<svg xmlns="http://www.w3.org/2000/svg" xmlns:xlink="http://www.w3.org/1999/xlink" width="792.22" height="586.8" viewBox="0 0 792.22 586.8"><defs><linearGradient id="a" x1="733.3" y1="486.67" x2="792.22" y2="486.67" gradientUnits="userSpaceOnUse"><stop offset="0" stop-color="#e39a65"/><stop offset="1" stop-color="#e95f8d"/></linearGradient><linearGradient id="b" x1="652.63" y1="405.93" x2="751.6" y2="405.93" xlink:href="#a"/><linearGradient id="c" x1="0" y1="439.08" x2="98.97" y2="439.08" xlink:href="#a"/><linearGradient id="d" x1="115.22" y1="432.74" x2="643.43" y2="432.74" xlink:href="#a"/><radialGradient id="e" cx="406.98" cy="41.66" r="403.43" gradientUnits="userSpaceOnUse"><stop offset="0" stop-color="#e39a65"/><stop offset="0.47" stop-color="#a92ffb"/><stop offset="0.59" stop-color="#891cfb"/><stop offset="0.74" stop-color="#6507fa"/><stop offset="0.8" stop-color="#0d0c6f"/></radialGradient><radialGradient id="f" cx="160.23" cy="365.65" r="441.15" gradientUnits="userSpaceOnUse"><stop offset="0" stop-color="#e39a65"/><stop offset="0.47" stop-color="#a92ffb"/><stop offset="0.57" stop-color="#891cfb"/><stop offset="0.68" stop-color="#6507fa"/><stop offset="0.74" stop-color="#0d0c6f"/></radialGradient><radialGradient id="g" cx="200.81" cy="277.1" r="395.6" gradientUnits="userSpaceOnUse"><stop offset="0" stop-color="#e39a65"/><stop offset="0.47" stop-color="#a92ffb"/><stop offset="0.59" stop-color="#891cfb"/><stop offset="0.73" stop-color="#6507fa"/><stop offset="1" stop-color="#3919bb"/></radialGradient><radialGradient id="h" cx="299.36" cy="125.82" r="403.51" xlink:href="#g"/><linearGradient id="i" x1="343.71" y1="231.74" x2="667.05" y2="231.74" gradientUnits="userSpaceOnUse"><stop offset="0" stop-color="#3919bb"/><stop offset="1" stop-color="#6507fa"/></linearGradient><radialGradient id="j" cx="152.06" cy="39.65" r="628.46" xlink:href="#g"/><linearGradient id="k" x1="123.26" y1="275.97" x2="261.97" y2="275.97" xlink:href="#a"/><radialGradient id="l" cx="135.56" cy="162.82" r="298.74" gradientUnits="userSpaceOnUse"><stop offset="0" stop-color="#e39a65"/><stop offset="0.15" stop-color="#a92ffb"/><stop offset="0.41" stop-color="#3919bb"/><stop offset="0.93" stop-color="#3919bb"/></radialGradient><linearGradient id="m" x1="140.85" y1="125.82" x2="248" y2="125.82" gradientUnits="userSpaceOnUse"><stop offset="0" stop-color="#e39a65"/><stop offset="0.25" stop-color="#a92ffb"/><stop offset="0.56" stop-color="#3919bb"/></linearGradient><linearGradient id="n" x1="150.9" y1="120.37" x2="237.95" y2="120.37" gradientUnits="userSpaceOnUse"><stop offset="0" stop-color="#4f1fec"/><stop offset="1" stop-color="#a92ffb"/></linearGradient><linearGradient id="o" x1="148.83" y1="120.37" x2="235.89" y2="120.37" xlink:href="#n"/><linearGradient id="p" x1="150.9" y1="108.9" x2="260.66" y2="108.9" gradientUnits="userSpaceOnUse"><stop offset="0" stop-color="#131060"/><stop offset="0.19" stop-color="#141062"/><stop offset="0.28" stop-color="#19106a"/><stop offset="0.36" stop-color="#221078"/><stop offset="0.42" stop-color="#2e0f8b"/><stop offset="0.48" stop-color="#3e0fa3"/><stop offset="0.54" stop-color="#510ec2"/><stop offset="0.58" stop-color="#680de5"/><stop offset="0.61" stop-color="#740df8"/><stop offset="0.62" stop-color="#7a14f0"/><stop offset="0.68" stop-color="#9b3cc3"/><stop offset="0.75" stop-color="#b75d9d"/><stop offset="0.81" stop-color="#cc7680"/><stop offset="0.88" stop-color="#dc886c"/><stop offset="0.94" stop-color="#e5935f"/><stop offset="1" stop-color="#e8975b"/></linearGradient><radialGradient id="q" cx="127.47" cy="95.5" r="195.42" gradientUnits="userSpaceOnUse"><stop offset="0" stop-color="#e39a65"/><stop offset="0.25" stop-color="#a92ffb"/><stop offset="0.74" stop-color="#3919bb"/></radialGradient><linearGradient id="r" x1="187.53" y1="144.32" x2="202.72" y2="144.32" xlink:href="#p"/></defs><path d="M762.76,504a12.59,12.59,0,0,1-6.29-1.68l-21.2-12.25a3.92,3.92,0,0,1,0-6.8L756.47,471a12.62,12.62,0,0,1,12.58,0l21.21,12.24a3.93,3.93,0,0,1,0,6.8l-21.21,12.25A12.56,12.56,0,0,1,762.76,504Zm0-31.29a9.23,9.23,0,0,0-4.61,1.23L737,486.18a.56.56,0,0,0-.29.49.55.55,0,0,0,.29.49l21.2,12.25h0a9.25,9.25,0,0,0,9.22,0l21.21-12.25a.56.56,0,0,0,.28-.49.57.57,0,0,0-.28-.49l-21.21-12.24A9.23,9.23,0,0,0,762.76,472.71Z" fill="url(#a)"/><path d="M702.11,434.53a20.4,20.4,0,0,1-10.21-2.73l-36.5-21.07a5.55,5.55,0,0,1,0-9.61l36.49-21.06a20.47,20.47,0,0,1,20.44,0l36.49,21.06a5.55,5.55,0,0,1,0,9.61l-36.5,21.07A20.41,20.41,0,0,1,702.11,434.53Zm-8.53-5.64a17.12,17.12,0,0,0,17.07,0l36.49-21.07a2.18,2.18,0,0,0,0-3.78L710.65,383a17.13,17.13,0,0,0-17.08,0L657.08,404a2.18,2.18,0,0,0,0,3.78Z" fill="url(#b)"/><path d="M49.49,467.69A20.41,20.41,0,0,1,39.27,465L2.77,443.89a5.55,5.55,0,0,1,0-9.61l36.5-21.07a20.48,20.48,0,0,1,20.43,0l36.49,21.07a5.54,5.54,0,0,1,0,9.61L59.7,465A20.4,20.4,0,0,1,49.49,467.69Zm0-53.85A17.15,17.15,0,0,0,41,416.12L4.45,437.19a2.19,2.19,0,0,0,0,3.79L41,462.05h0a17.16,17.16,0,0,0,17.07,0L94.51,441a2.18,2.18,0,0,0,0-3.79L58,416.12A17.16,17.16,0,0,0,49.48,413.84Z" fill="url(#c)"/><path d="M419,559.6,158.1,408.94c-3.81-2.19-3.33-6,1.06-8.56l167.48-96.7c4.39-2.53,11-2.81,14.84-.61L602.42,453.73c3.81,2.19,3.33,6-1.06,8.56L433.88,559C429.49,561.52,422.85,561.8,419,559.6Z" fill="#020230" opacity="0.6"/><path d="M425,586.8a16.66,16.66,0,0,1-8.21-1.92h0L119,412.93c-2.43-1.4-3.77-3.43-3.77-5.7,0-2.61,1.82-5.16,5-7l203-118.94c5.57-3.21,13.75-3.52,18.63-.7L639.66,452.54c2.43,1.4,3.77,3.43,3.77,5.7,0,2.61-1.81,5.16-5,7l-203,118.94A21.36,21.36,0,0,1,425,586.8ZM333.67,282.05a18,18,0,0,0-8.76,2.16l-203,118.94c-2.08,1.2-3.31,2.73-3.31,4.08a3.55,3.55,0,0,0,2.08,2.79L418.49,582h0c3.8,2.19,10.79,1.87,15.25-.71l203-118.94c2.08-1.2,3.32-2.72,3.32-4.08s-1.14-2.24-2.09-2.79L340.17,283.51A13.34,13.34,0,0,0,333.67,282.05Z" fill="url(#d)"/><path d="M671.75,201.15,411.83,51.09a6.72,6.72,0,0,0-5.31-.77h0L401.69,52l1.69.4a8.36,8.36,0,0,0-1.59,3L343,246.23c-1.45,4.73.68,10.48,4.77,12.84L607.7,409.13a7.58,7.58,0,0,0,1.91.79l-.65,1.4,4.6-1.62h0a7.36,7.36,0,0,0,4.18-4.86L676.51,214C678,209.26,675.83,203.51,671.75,201.15Z" fill="url(#e)"/><path d="M598.39,416.26l.09.11L341.75,268.15c-3.77-2.18-10.37-1.91-14.73.61L161.14,364.52l-5.53-2.11,1.56,7.76h0a4.66,4.66,0,0,0,2.49,3.1l259.11,149.6c3.78,2.18,10.37,1.91,14.73-.61l166.3-96c2.05-1.19,3.23-2.66,3.52-4.11h0l1.59-7.55Z" fill="url(#f)"/><path d="M419,516,158.1,365.38c-3.81-2.19-3.33-6,1.06-8.56l167.48-96.7c4.39-2.53,11-2.81,14.84-.61L602.42,410.17c3.81,2.19,3.33,6-1.06,8.56l-167.48,96.7C429.49,518,422.85,518.24,419,516Z" fill="url(#g)"/><path d="M601.36,416.7,433.88,513.39c-4.39,2.54-11,2.82-14.84.62L158.1,363.35a4.89,4.89,0,0,1-2.38-2.7c-.5,1.75.24,3.5,2.38,4.73L419,516c3.81,2.2,10.45,1.92,14.84-.61l167.48-96.7c2.89-1.67,4-3.9,3.44-5.86A7,7,0,0,1,601.36,416.7Z" fill="#fff"/><g opacity="0.4"><path d="M282.56,340.94l-8.81-5.09c-.7-.41-.61-1.12.2-1.59l10.4-6a3.07,3.07,0,0,1,2.76-.11l8.81,5.08c.71.41.62,1.13-.2,1.6l-10.4,6A3.1,3.1,0,0,1,282.56,340.94Z" fill="#06033e"/><path d="M296.17,348.79l-8.81-5.09c-.71-.4-.62-1.12.2-1.59l10.4-6a3.07,3.07,0,0,1,2.76-.12l8.81,5.09c.7.41.61,1.12-.2,1.59l-10.4,6A3.07,3.07,0,0,1,296.17,348.79Z" fill="#06033e"/><path d="M309.77,356.65,301,351.56c-.7-.41-.61-1.12.2-1.59l10.4-6a3.07,3.07,0,0,1,2.76-.11l8.81,5.08c.71.41.62,1.13-.2,1.6l-10.4,6A3.1,3.1,0,0,1,309.77,356.65Z" fill="#06033e"/><path d="M328.59,350.16l-8.81-5.09c-.71-.41-.62-1.12.2-1.59l8.73-5a3.1,3.1,0,0,1,2.76-.12l8.81,5.09c.71.41.62,1.12-.2,1.59l-8.73,5A3,3,0,0,1,328.59,350.16Z" fill="#06033e"/><path d="M342.2,358l-8.81-5.08c-.71-.41-.62-1.12.19-1.6l8.73-5a3.07,3.07,0,0,1,2.76-.11l8.81,5.09c.71.4.62,1.12-.19,1.59l-8.73,5A3.07,3.07,0,0,1,342.2,358Z" fill="#06033e"/><path d="M355.8,365.87,347,360.78c-.71-.41-.62-1.12.2-1.59l8.73-5a3.1,3.1,0,0,1,2.76-.12l8.81,5.09c.71.41.62,1.12-.2,1.59l-8.73,5A3,3,0,0,1,355.8,365.87Z" fill="#06033e"/><path d="M369.41,373.72l-8.81-5.08c-.71-.41-.62-1.12.19-1.6l8.73-5a3.07,3.07,0,0,1,2.76-.11l8.81,5.09c.71.4.62,1.12-.19,1.59l-8.73,5A3.07,3.07,0,0,1,369.41,373.72Z" fill="#06033e"/><path d="M383,381.58l-8.81-5.09c-.71-.41-.62-1.12.2-1.59l8.73-5a3.1,3.1,0,0,1,2.76-.12l8.81,5.09c.71.41.62,1.12-.2,1.59l-8.73,5A3,3,0,0,1,383,381.58Z" fill="#06033e"/><path d="M396.62,389.43l-8.81-5.08c-.71-.41-.62-1.13.19-1.6l8.73-5a3.07,3.07,0,0,1,2.76-.11l8.81,5.09c.71.4.62,1.12-.19,1.59l-8.73,5A3.07,3.07,0,0,1,396.62,389.43Z" fill="#06033e"/><path d="M410.22,397.29l-8.81-5.09c-.71-.41-.62-1.12.2-1.59l8.73-5a3.1,3.1,0,0,1,2.76-.12l8.81,5.09c.71.41.62,1.12-.2,1.59l-8.73,5A3,3,0,0,1,410.22,397.29Z" fill="#06033e"/><path d="M423.83,405.14,415,400.06c-.71-.41-.62-1.13.2-1.6l8.72-5a3.07,3.07,0,0,1,2.76-.11l8.81,5.09c.71.4.62,1.12-.19,1.59l-8.73,5A3.07,3.07,0,0,1,423.83,405.14Z" fill="#06033e"/><path d="M437.43,413l-8.81-5.09c-.71-.41-.62-1.12.2-1.59l8.73-5a3.1,3.1,0,0,1,2.76-.12l8.81,5.09c.71.41.62,1.12-.2,1.59l-8.73,5A3,3,0,0,1,437.43,413Z" fill="#06033e"/><path d="M451,420.85l-8.81-5.08c-.71-.41-.62-1.13.2-1.6l8.72-5a3.07,3.07,0,0,1,2.76-.11l8.81,5.09c.71.4.62,1.12-.19,1.59l-8.73,5A3.07,3.07,0,0,1,451,420.85Z" fill="#06033e"/><path d="M348.64,346.44l-8.81-5.09c-.71-.41-.62-1.12.2-1.59l8.72-5a3.07,3.07,0,0,1,2.76-.11l8.81,5.08c.71.41.62,1.12-.19,1.6l-8.73,5A3.07,3.07,0,0,1,348.64,346.44Z" fill="#06033e"/><path d="M334.83,338.47,326,333.38c-.71-.41-.62-1.12.2-1.59l8.73-5a3.1,3.1,0,0,1,2.76-.12l8.81,5.09c.7.41.61,1.12-.2,1.59l-8.73,5A3.07,3.07,0,0,1,334.83,338.47Z" fill="#06033e"/><path d="M321,330.48l-19-11c-.7-.41-.61-1.12.2-1.6l8.73-5a3.07,3.07,0,0,1,2.76-.11l19,11c.7.41.61,1.13-.2,1.6l-8.73,5A3.07,3.07,0,0,1,321,330.48Z" fill="#06033e"/><path d="M330.67,320.77l-15.4-8.89c-.71-.41-.62-1.12.2-1.59l8.73-5a3.1,3.1,0,0,1,2.76-.12L342.35,314c.71.41.62,1.13-.19,1.6l-8.73,5A3.07,3.07,0,0,1,330.67,320.77Z" fill="#06033e"/><path d="M362.24,354.29l-8.81-5.08c-.7-.41-.62-1.12.2-1.6l8.73-5a3,3,0,0,1,2.76-.12l8.81,5.09c.71.41.62,1.12-.2,1.59l-8.73,5A3.07,3.07,0,0,1,362.24,354.29Z" fill="#06033e"/><path d="M375.85,362.15,367,357.06c-.71-.41-.62-1.12.2-1.59l8.72-5a3.07,3.07,0,0,1,2.76-.11l8.81,5.08c.71.41.62,1.12-.19,1.6l-8.73,5A3.07,3.07,0,0,1,375.85,362.15Z" fill="#06033e"/><path d="M389.45,370l-8.81-5.08c-.7-.41-.62-1.12.2-1.6l8.73-5a3,3,0,0,1,2.76-.12l8.81,5.09c.71.41.62,1.12-.2,1.59l-8.73,5A3.07,3.07,0,0,1,389.45,370Z" fill="#06033e"/><path d="M403.06,377.86l-8.81-5.09c-.71-.41-.62-1.12.2-1.59l8.73-5a3,3,0,0,1,2.75-.11l8.81,5.08c.71.41.62,1.12-.19,1.6l-8.73,5A3,3,0,0,1,403.06,377.86Z" fill="#06033e"/><path d="M416.66,385.71l-8.81-5.08c-.7-.41-.62-1.12.2-1.6l8.73-5a3.07,3.07,0,0,1,2.76-.11l8.81,5.09c.71.41.62,1.12-.2,1.59l-8.73,5A3.07,3.07,0,0,1,416.66,385.71Z" fill="#06033e"/><path d="M430.27,393.57l-8.81-5.09c-.71-.41-.62-1.12.2-1.59l8.73-5a3.07,3.07,0,0,1,2.76-.11l8.8,5.08c.71.41.62,1.12-.19,1.6l-8.73,5A3,3,0,0,1,430.27,393.57Z" fill="#06033e"/><path d="M443.87,401.42l-8.81-5.08c-.7-.41-.62-1.12.2-1.6l8.73-5a3.07,3.07,0,0,1,2.76-.11l8.81,5.09c.71.4.62,1.12-.2,1.59l-8.73,5A3.07,3.07,0,0,1,443.87,401.42Z" fill="#06033e"/><path d="M457.48,409.28l-8.81-5.09c-.71-.41-.62-1.12.2-1.59l8.73-5a3.07,3.07,0,0,1,2.76-.11l8.81,5.08c.7.41.61,1.12-.2,1.59l-8.73,5A3,3,0,0,1,457.48,409.28Z" fill="#06033e"/><path d="M471.08,417.13l-8.81-5.08c-.7-.41-.62-1.12.2-1.6l8.73-5a3.07,3.07,0,0,1,2.76-.11l8.81,5.09c.71.4.62,1.12-.2,1.59l-8.73,5A3.07,3.07,0,0,1,471.08,417.13Z" fill="#06033e"/><path d="M495.27,431.1,476.05,420c-.71-.41-.62-1.12.2-1.59l8.73-5a3,3,0,0,1,2.75-.12L507,424.35c.7.41.62,1.12-.2,1.59L498,431A3,3,0,0,1,495.27,431.1Z" fill="#06033e"/><path d="M521.76,415.81l-16.23-9.37c-.7-.41-.62-1.12.2-1.59l8.73-5a3,3,0,0,1,2.76-.12l16.22,9.37c.71.41.62,1.12-.19,1.59l-8.73,5A3.1,3.1,0,0,1,521.76,415.81Z" fill="#06033e"/><path d="M386.07,352.76l-8.81-5.09c-.71-.41-.62-1.12.2-1.59l8.73-5a3.1,3.1,0,0,1,2.76-.12l8.8,5.09c.71.41.62,1.12-.19,1.59l-8.73,5A3.07,3.07,0,0,1,386.07,352.76Z" fill="#06033e"/><path d="M372.12,344.71l-8.81-5.09c-.7-.41-.61-1.12.2-1.59l8.73-5a3.1,3.1,0,0,1,2.76-.12l8.81,5.09c.71.41.62,1.12-.2,1.59l-8.73,5A3.07,3.07,0,0,1,372.12,344.71Z" fill="#06033e"/><path d="M358.18,336.66l-8.81-5.09c-.71-.41-.62-1.12.2-1.59l8.73-5a3.07,3.07,0,0,1,2.76-.12l8.81,5.09c.71.41.62,1.12-.2,1.59l-8.73,5A3.07,3.07,0,0,1,358.18,336.66Z" fill="#06033e"/><path d="M344.24,328.61l-8.81-5.09c-.71-.41-.62-1.12.2-1.59l8.72-5a3.07,3.07,0,0,1,2.76-.12l8.81,5.09c.71.41.62,1.12-.19,1.59l-8.73,5A3.07,3.07,0,0,1,344.24,328.61Z" fill="#06033e"/><path d="M399.67,360.61l-8.81-5.08c-.7-.41-.62-1.13.2-1.6l8.73-5a3.07,3.07,0,0,1,2.76-.11l8.81,5.09c.71.4.62,1.12-.2,1.59l-8.73,5A3.07,3.07,0,0,1,399.67,360.61Z" fill="#06033e"/><path d="M413.28,368.47l-8.81-5.09c-.71-.41-.62-1.12.2-1.59l8.73-5a3.1,3.1,0,0,1,2.76-.12l8.81,5.09c.7.41.61,1.12-.2,1.59l-8.73,5A3.07,3.07,0,0,1,413.28,368.47Z" fill="#06033e"/><path d="M426.88,376.32l-8.81-5.08c-.7-.41-.62-1.13.2-1.6l8.73-5a3.07,3.07,0,0,1,2.76-.11l8.81,5.08c.71.41.62,1.13-.2,1.6l-8.73,5A3.07,3.07,0,0,1,426.88,376.32Z" fill="#06033e"/><path d="M440.49,384.18l-8.81-5.09c-.71-.41-.62-1.12.2-1.59l8.73-5a3.1,3.1,0,0,1,2.76-.12l8.81,5.09c.7.41.61,1.12-.2,1.59l-8.73,5A3.07,3.07,0,0,1,440.49,384.18Z" fill="#06033e"/><path d="M454.09,392,445.28,387c-.7-.41-.62-1.13.2-1.6l8.73-5a3.07,3.07,0,0,1,2.76-.11l8.81,5.08c.71.41.62,1.13-.2,1.6l-8.73,5A3.07,3.07,0,0,1,454.09,392Z" fill="#06033e"/><path d="M467.7,399.89l-8.81-5.09c-.71-.41-.62-1.12.2-1.59l8.73-5a3.1,3.1,0,0,1,2.76-.12l8.81,5.09c.7.41.61,1.12-.2,1.59l-8.73,5A3.07,3.07,0,0,1,467.7,399.89Z" fill="#06033e"/><path d="M481.3,407.74l-8.81-5.08c-.7-.41-.61-1.13.2-1.6l8.73-5a3.07,3.07,0,0,1,2.76-.11L493,401c.71.41.62,1.13-.2,1.6l-8.73,5A3.07,3.07,0,0,1,481.3,407.74Z" fill="#06033e"/><path d="M494.91,415.6l-8.81-5.09c-.71-.41-.62-1.12.2-1.59l8.73-5a3.07,3.07,0,0,1,2.76-.12l8.81,5.09c.7.41.61,1.12-.2,1.59l-8.73,5A3.07,3.07,0,0,1,494.91,415.6Z" fill="#06033e"/><path d="M508.51,423.45l-8.81-5.08c-.7-.41-.61-1.13.2-1.6l8.73-5a3.07,3.07,0,0,1,2.76-.11l8.81,5.08c.71.41.62,1.13-.2,1.6l-8.73,5A3.07,3.07,0,0,1,508.51,423.45Z" fill="#06033e"/><path d="M378.9,333.33l-8.81-5.09c-.7-.41-.61-1.12.2-1.59l8.73-5a3.07,3.07,0,0,1,2.76-.11l8.81,5.08c.71.41.62,1.12-.2,1.59l-8.73,5A3,3,0,0,1,378.9,333.33Z" fill="#06033e"/><path d="M365.37,325.51l-8.81-5.08c-.71-.41-.62-1.12.19-1.6l8.73-5a3.07,3.07,0,0,1,2.76-.11l8.81,5.09c.71.4.62,1.12-.19,1.59l-8.73,5A3.07,3.07,0,0,1,365.37,325.51Z" fill="#06033e"/><path d="M351.83,317.7,343,312.61c-.71-.41-.62-1.12.2-1.59l8.73-5a3.1,3.1,0,0,1,2.76-.12l8.81,5.09c.7.41.61,1.12-.2,1.59l-8.73,5A3.07,3.07,0,0,1,351.83,317.7Z" fill="#06033e"/><path d="M338.29,309.88l-8.81-5.08c-.71-.41-.62-1.13.2-1.6l8.73-5a3.07,3.07,0,0,1,2.76-.11l8.81,5.08c.71.41.62,1.13-.2,1.6l-8.73,5A3.07,3.07,0,0,1,338.29,309.88Z" fill="#06033e"/><path d="M352.21,301.84l-8.81-5.08c-.7-.41-.62-1.12.2-1.6l2.89-1.66a3.1,3.1,0,0,1,2.76-.12l8.81,5.09c.7.41.61,1.12-.2,1.59L355,301.73A3.07,3.07,0,0,1,352.21,301.84Z" fill="#06033e"/><path d="M369.88,312,361.07,307c-.71-.41-.62-1.12.2-1.6l2.88-1.66a3.1,3.1,0,0,1,2.76-.12l8.81,5.09c.71.41.62,1.12-.2,1.59l-2.88,1.67A3.07,3.07,0,0,1,369.88,312Z" fill="#06033e"/><path d="M383.36,319.83l-8.81-5.09c-.71-.41-.62-1.12.2-1.59l2.88-1.67a3.07,3.07,0,0,1,2.76-.11l8.81,5.08c.71.41.62,1.13-.19,1.6l-2.89,1.66A3.07,3.07,0,0,1,383.36,319.83Z" fill="#06033e"/><path d="M396.84,327.61,388,322.52c-.71-.4-.62-1.12.2-1.59l2.88-1.66a3,3,0,0,1,2.76-.12l8.81,5.09c.71.41.62,1.12-.19,1.59l-2.89,1.67A3.07,3.07,0,0,1,396.84,327.61Z" fill="#06033e"/><path d="M410.32,335.39l-8.81-5.08c-.71-.41-.62-1.12.2-1.6l2.89-1.66a3.1,3.1,0,0,1,2.76-.12l8.81,5.09c.7.41.61,1.12-.2,1.59l-2.89,1.67A3.07,3.07,0,0,1,410.32,335.39Z" fill="#06033e"/><path d="M485.58,378.85l-8.81-5.09c-.7-.41-.61-1.12.2-1.59l2.89-1.67a3.07,3.07,0,0,1,2.76-.11l8.81,5.08c.7.41.62,1.12-.2,1.6l-2.89,1.66A3.07,3.07,0,0,1,485.58,378.85Z" fill="#06033e"/><path d="M499.06,386.63l-8.8-5.09c-.71-.4-.62-1.12.19-1.59l2.89-1.67a3.07,3.07,0,0,1,2.76-.11l8.81,5.09c.71.4.62,1.12-.2,1.59l-2.89,1.67A3.07,3.07,0,0,1,499.06,386.63Z" fill="#06033e"/><path d="M512.55,394.41l-8.81-5.08c-.71-.41-.62-1.12.19-1.6l2.89-1.66a3.07,3.07,0,0,1,2.76-.12l8.81,5.09c.71.41.62,1.12-.2,1.59l-2.88,1.67A3.07,3.07,0,0,1,512.55,394.41Z" fill="#06033e"/><path d="M526,402.2l-8.81-5.09c-.71-.41-.62-1.12.2-1.59l2.88-1.67a3.07,3.07,0,0,1,2.76-.11l8.81,5.08c.71.41.62,1.12-.2,1.6l-2.88,1.66A3.07,3.07,0,0,1,526,402.2Z" fill="#06033e"/><path d="M392.51,341.18l-8.81-5.08c-.71-.41-.62-1.12.2-1.6l8.73-5a3.07,3.07,0,0,1,2.76-.11l8.81,5.09c.7.41.61,1.12-.2,1.59l-8.73,5A3.07,3.07,0,0,1,392.51,341.18Z" fill="#06033e"/><path d="M406.11,349,397.3,344c-.7-.41-.61-1.12.2-1.59l8.73-5a3.07,3.07,0,0,1,2.76-.11l8.81,5.08c.71.41.62,1.12-.2,1.59l-8.73,5A3,3,0,0,1,406.11,349Z" fill="#06033e"/><path d="M419.72,356.89l-8.81-5.08c-.71-.41-.62-1.12.2-1.6l8.73-5a3.07,3.07,0,0,1,2.76-.11l8.81,5.09c.7.4.61,1.12-.2,1.59l-8.73,5A3.07,3.07,0,0,1,419.72,356.89Z" fill="#06033e"/><path d="M433.32,364.75l-8.81-5.09c-.7-.41-.61-1.12.2-1.59l8.73-5a3.1,3.1,0,0,1,2.76-.12L445,358c.71.41.62,1.12-.2,1.59l-8.73,5A3,3,0,0,1,433.32,364.75Z" fill="#06033e"/><path d="M446.93,372.6l-8.81-5.08c-.71-.41-.62-1.12.2-1.6l8.73-5a3.07,3.07,0,0,1,2.76-.11l8.81,5.09c.7.4.62,1.12-.2,1.59l-8.73,5A3.07,3.07,0,0,1,446.93,372.6Z" fill="#06033e"/><path d="M460.53,380.46l-8.81-5.09c-.7-.41-.61-1.12.2-1.59l8.73-5a3.1,3.1,0,0,1,2.76-.12l8.81,5.09c.71.41.62,1.12-.2,1.59l-8.73,5A3,3,0,0,1,460.53,380.46Z" fill="#06033e"/><path d="M474.14,388.31l-8.81-5.08c-.71-.41-.62-1.12.2-1.6l8.73-5a3.07,3.07,0,0,1,2.76-.11l8.81,5.09c.7.4.62,1.12-.2,1.59l-8.73,5A3.07,3.07,0,0,1,474.14,388.31Z" fill="#06033e"/><path d="M487.74,396.17l-8.8-5.09c-.71-.41-.62-1.12.19-1.59l8.73-5a3.1,3.1,0,0,1,2.76-.12l8.81,5.09c.71.41.62,1.12-.2,1.59l-8.73,5A3,3,0,0,1,487.74,396.17Z" fill="#06033e"/><path d="M501.35,404l-8.81-5.08c-.71-.41-.62-1.12.2-1.6l8.73-5a3.07,3.07,0,0,1,2.76-.11l8.81,5.09c.7.4.62,1.12-.2,1.59l-8.73,5A3.07,3.07,0,0,1,501.35,404Z" fill="#06033e"/><path d="M314.73,342.15l-26-15c-.71-.4-.62-1.12.2-1.59l8.73-5a3.07,3.07,0,0,1,2.76-.11l25.94,15c.71.4.62,1.12-.19,1.59l-8.73,5A3.07,3.07,0,0,1,314.73,342.15Z" fill="#06033e"/><path d="M481.87,438.65l-25.95-15c-.7-.41-.62-1.12.2-1.59l8.73-5a3.07,3.07,0,0,1,2.76-.11l25.95,15c.7.4.61,1.12-.2,1.59l-8.73,5A3.07,3.07,0,0,1,481.87,438.65Z" fill="#06033e"/><path d="M427.46,424.59l-8.81-5.09c-.71-.4-.62-1.12.2-1.59l10.4-6a3.07,3.07,0,0,1,2.76-.12l8.81,5.09c.7.41.61,1.12-.2,1.59l-10.4,6A3.07,3.07,0,0,1,427.46,424.59Z" fill="#06033e"/><path d="M328.66,367.55l-14.09-8.14c-.71-.4-.62-1.12.2-1.59l10.4-6a3.07,3.07,0,0,1,2.76-.12L342,359.84c.7.41.61,1.12-.2,1.59l-10.4,6A3,3,0,0,1,328.66,367.55Z" fill="#06033e"/><path d="M414.35,417l-14.09-8.13c-.71-.41-.62-1.12.2-1.6l10.4-6a3.07,3.07,0,0,1,2.76-.11l14.09,8.13c.7.41.62,1.12-.2,1.59l-10.4,6A3.07,3.07,0,0,1,414.35,417Z" fill="#06033e"/><path d="M348.29,378.88l-14.09-8.13c-.71-.41-.62-1.12.2-1.6l10.4-6a3.07,3.07,0,0,1,2.76-.11l14.09,8.13c.7.41.61,1.12-.2,1.59l-10.4,6A3.07,3.07,0,0,1,348.29,378.88Z" fill="#06033e"/><path d="M347.65,363.09l61.26,35.37a.84.84,0,0,1,0,1.59l-10.61,6.12a3,3,0,0,1-2.75,0L334.29,370.8Z" fill="#06033e"/><path d="M465.48,438.83l9.82,5.67c.58.33.5.92-.17,1.3l-4.25,2.46a2.48,2.48,0,0,1-2.26.09l-9.81-5.66c-.58-.34-.51-.92.16-1.31l4.25-2.45A2.52,2.52,0,0,1,465.48,438.83Z" fill="#06033e"/><path d="M451.77,430.91l9.81,5.67c.58.33.51.92-.16,1.3l-4.26,2.46a2.48,2.48,0,0,1-2.26.09l-9.81-5.66c-.58-.34-.51-.92.16-1.31L449.5,431A2.54,2.54,0,0,1,451.77,430.91Z" fill="#06033e"/><path d="M438.16,423.06l9.81,5.66c.58.34.51.92-.16,1.31l-4.25,2.46a2.54,2.54,0,0,1-2.26.09l-9.82-5.67c-.58-.33-.5-.92.16-1.3l4.26-2.46A2.51,2.51,0,0,1,438.16,423.06Z" fill="#06033e"/><path d="M459.28,426.58l9.81,5.66c.58.34.51.92-.16,1.31L464.68,436a2.54,2.54,0,0,1-2.27.1l-9.81-5.67c-.58-.33-.51-.92.16-1.31l4.26-2.45A2.48,2.48,0,0,1,459.28,426.58Z" fill="#06033e"/></g><g opacity="0.4"><path d="M282.56,340.94l-8.81-5.09c-.7-.41-.61-1.12.2-1.59l10.4-6a3.07,3.07,0,0,1,2.76-.11l8.81,5.08c.71.41.62,1.13-.2,1.6l-10.4,6A3.1,3.1,0,0,1,282.56,340.94Z" fill="#06033e"/><path d="M296.17,348.79l-8.81-5.09c-.71-.4-.62-1.12.2-1.59l10.4-6a3.07,3.07,0,0,1,2.76-.12l8.81,5.09c.7.41.61,1.12-.2,1.59l-10.4,6A3.07,3.07,0,0,1,296.17,348.79Z" fill="#06033e"/><path d="M309.77,356.65,301,351.56c-.7-.41-.61-1.12.2-1.59l10.4-6a3.07,3.07,0,0,1,2.76-.11l8.81,5.08c.71.41.62,1.13-.2,1.6l-10.4,6A3.1,3.1,0,0,1,309.77,356.65Z" fill="#06033e"/><path d="M328.59,350.16l-8.81-5.09c-.71-.41-.62-1.12.2-1.59l8.73-5a3.1,3.1,0,0,1,2.76-.12l8.81,5.09c.71.41.62,1.12-.2,1.59l-8.73,5A3,3,0,0,1,328.59,350.16Z" fill="#06033e"/><path d="M342.2,358l-8.81-5.08c-.71-.41-.62-1.12.19-1.6l8.73-5a3.07,3.07,0,0,1,2.76-.11l8.81,5.09c.71.4.62,1.12-.19,1.59l-8.73,5A3.07,3.07,0,0,1,342.2,358Z" fill="#06033e"/><path d="M355.8,365.87,347,360.78c-.71-.41-.62-1.12.2-1.59l8.73-5a3.1,3.1,0,0,1,2.76-.12l8.81,5.09c.71.41.62,1.12-.2,1.59l-8.73,5A3,3,0,0,1,355.8,365.87Z" fill="#06033e"/><path d="M369.41,373.72l-8.81-5.08c-.71-.41-.62-1.12.19-1.6l8.73-5a3.07,3.07,0,0,1,2.76-.11l8.81,5.09c.71.4.62,1.12-.19,1.59l-8.73,5A3.07,3.07,0,0,1,369.41,373.72Z" fill="#06033e"/><path d="M383,381.58l-8.81-5.09c-.71-.41-.62-1.12.2-1.59l8.73-5a3.1,3.1,0,0,1,2.76-.12l8.81,5.09c.71.41.62,1.12-.2,1.59l-8.73,5A3,3,0,0,1,383,381.58Z" fill="#06033e"/><path d="M396.62,389.43l-8.81-5.08c-.71-.41-.62-1.13.19-1.6l8.73-5a3.07,3.07,0,0,1,2.76-.11l8.81,5.09c.71.4.62,1.12-.19,1.59l-8.73,5A3.07,3.07,0,0,1,396.62,389.43Z" fill="#06033e"/><path d="M410.22,397.29l-8.81-5.09c-.71-.41-.62-1.12.2-1.59l8.73-5a3.1,3.1,0,0,1,2.76-.12l8.81,5.09c.71.41.62,1.12-.2,1.59l-8.73,5A3,3,0,0,1,410.22,397.29Z" fill="#06033e"/><path d="M423.83,405.14,415,400.06c-.71-.41-.62-1.13.2-1.6l8.72-5a3.07,3.07,0,0,1,2.76-.11l8.81,5.09c.71.4.62,1.12-.19,1.59l-8.73,5A3.07,3.07,0,0,1,423.83,405.14Z" fill="#06033e"/><path d="M437.43,413l-8.81-5.09c-.71-.41-.62-1.12.2-1.59l8.73-5a3.1,3.1,0,0,1,2.76-.12l8.81,5.09c.71.41.62,1.12-.2,1.59l-8.73,5A3,3,0,0,1,437.43,413Z" fill="#06033e"/><path d="M451,420.85l-8.81-5.08c-.71-.41-.62-1.13.2-1.6l8.72-5a3.07,3.07,0,0,1,2.76-.11l8.81,5.09c.71.4.62,1.12-.19,1.59l-8.73,5A3.07,3.07,0,0,1,451,420.85Z" fill="#06033e"/><path d="M348.64,346.44l-8.81-5.09c-.71-.41-.62-1.12.2-1.59l8.72-5a3.07,3.07,0,0,1,2.76-.11l8.81,5.08c.71.41.62,1.12-.19,1.6l-8.73,5A3.07,3.07,0,0,1,348.64,346.44Z" fill="#06033e"/><path d="M334.83,338.47,326,333.38c-.71-.41-.62-1.12.2-1.59l8.73-5a3.1,3.1,0,0,1,2.76-.12l8.81,5.09c.7.41.61,1.12-.2,1.59l-8.73,5A3.07,3.07,0,0,1,334.83,338.47Z" fill="#06033e"/><path d="M321,330.48l-19-11c-.7-.41-.61-1.12.2-1.6l8.73-5a3.07,3.07,0,0,1,2.76-.11l19,11c.7.41.61,1.13-.2,1.6l-8.73,5A3.07,3.07,0,0,1,321,330.48Z" fill="#06033e"/><path d="M330.67,320.77l-15.4-8.89c-.71-.41-.62-1.12.2-1.59l8.73-5a3.1,3.1,0,0,1,2.76-.12L342.35,314c.71.41.62,1.13-.19,1.6l-8.73,5A3.07,3.07,0,0,1,330.67,320.77Z" fill="#06033e"/><path d="M362.24,354.29l-8.81-5.08c-.7-.41-.62-1.12.2-1.6l8.73-5a3,3,0,0,1,2.76-.12l8.81,5.09c.71.41.62,1.12-.2,1.59l-8.73,5A3.07,3.07,0,0,1,362.24,354.29Z" fill="#06033e"/><path d="M375.85,362.15,367,357.06c-.71-.41-.62-1.12.2-1.59l8.72-5a3.07,3.07,0,0,1,2.76-.11l8.81,5.08c.71.41.62,1.12-.19,1.6l-8.73,5A3.07,3.07,0,0,1,375.85,362.15Z" fill="#06033e"/><path d="M389.45,370l-8.81-5.08c-.7-.41-.62-1.12.2-1.6l8.73-5a3,3,0,0,1,2.76-.12l8.81,5.09c.71.41.62,1.12-.2,1.59l-8.73,5A3.07,3.07,0,0,1,389.45,370Z" fill="#06033e"/><path d="M403.06,377.86l-8.81-5.09c-.71-.41-.62-1.12.2-1.59l8.73-5a3,3,0,0,1,2.75-.11l8.81,5.08c.71.41.62,1.12-.19,1.6l-8.73,5A3,3,0,0,1,403.06,377.86Z" fill="#06033e"/><path d="M416.66,385.71l-8.81-5.08c-.7-.41-.62-1.12.2-1.6l8.73-5a3.07,3.07,0,0,1,2.76-.11l8.81,5.09c.71.41.62,1.12-.2,1.59l-8.73,5A3.07,3.07,0,0,1,416.66,385.71Z" fill="#06033e"/><path d="M430.27,393.57l-8.81-5.09c-.71-.41-.62-1.12.2-1.59l8.73-5a3.07,3.07,0,0,1,2.76-.11l8.8,5.08c.71.41.62,1.12-.19,1.6l-8.73,5A3,3,0,0,1,430.27,393.57Z" fill="#06033e"/><path d="M443.87,401.42l-8.81-5.08c-.7-.41-.62-1.12.2-1.6l8.73-5a3.07,3.07,0,0,1,2.76-.11l8.81,5.09c.71.4.62,1.12-.2,1.59l-8.73,5A3.07,3.07,0,0,1,443.87,401.42Z" fill="#06033e"/><path d="M457.48,409.28l-8.81-5.09c-.71-.41-.62-1.12.2-1.59l8.73-5a3.07,3.07,0,0,1,2.76-.11l8.81,5.08c.7.41.61,1.12-.2,1.59l-8.73,5A3,3,0,0,1,457.48,409.28Z" fill="#06033e"/><path d="M471.08,417.13l-8.81-5.08c-.7-.41-.62-1.12.2-1.6l8.73-5a3.07,3.07,0,0,1,2.76-.11l8.81,5.09c.71.4.62,1.12-.2,1.59l-8.73,5A3.07,3.07,0,0,1,471.08,417.13Z" fill="#06033e"/><path d="M495.27,431.1,476.05,420c-.71-.41-.62-1.12.2-1.59l8.73-5a3,3,0,0,1,2.75-.12L507,424.35c.7.41.62,1.12-.2,1.59L498,431A3,3,0,0,1,495.27,431.1Z" fill="#06033e"/><path d="M521.76,415.81l-16.23-9.37c-.7-.41-.62-1.12.2-1.59l8.73-5a3,3,0,0,1,2.76-.12l16.22,9.37c.71.41.62,1.12-.19,1.59l-8.73,5A3.1,3.1,0,0,1,521.76,415.81Z" fill="#06033e"/><path d="M386.07,352.76l-8.81-5.09c-.71-.41-.62-1.12.2-1.59l8.73-5a3.1,3.1,0,0,1,2.76-.12l8.8,5.09c.71.41.62,1.12-.19,1.59l-8.73,5A3.07,3.07,0,0,1,386.07,352.76Z" fill="#06033e"/><path d="M372.12,344.71l-8.81-5.09c-.7-.41-.61-1.12.2-1.59l8.73-5a3.1,3.1,0,0,1,2.76-.12l8.81,5.09c.71.41.62,1.12-.2,1.59l-8.73,5A3.07,3.07,0,0,1,372.12,344.71Z" fill="#06033e"/><path d="M358.18,336.66l-8.81-5.09c-.71-.41-.62-1.12.2-1.59l8.73-5a3.07,3.07,0,0,1,2.76-.12l8.81,5.09c.71.41.62,1.12-.2,1.59l-8.73,5A3.07,3.07,0,0,1,358.18,336.66Z" fill="#06033e"/><path d="M344.24,328.61l-8.81-5.09c-.71-.41-.62-1.12.2-1.59l8.72-5a3.07,3.07,0,0,1,2.76-.12l8.81,5.09c.71.41.62,1.12-.19,1.59l-8.73,5A3.07,3.07,0,0,1,344.24,328.61Z" fill="#06033e"/><path d="M399.67,360.61l-8.81-5.08c-.7-.41-.62-1.13.2-1.6l8.73-5a3.07,3.07,0,0,1,2.76-.11l8.81,5.09c.71.4.62,1.12-.2,1.59l-8.73,5A3.07,3.07,0,0,1,399.67,360.61Z" fill="#06033e"/><path d="M413.28,368.47l-8.81-5.09c-.71-.41-.62-1.12.2-1.59l8.73-5a3.1,3.1,0,0,1,2.76-.12l8.81,5.09c.7.41.61,1.12-.2,1.59l-8.73,5A3.07,3.07,0,0,1,413.28,368.47Z" fill="#06033e"/><path d="M426.88,376.32l-8.81-5.08c-.7-.41-.62-1.13.2-1.6l8.73-5a3.07,3.07,0,0,1,2.76-.11l8.81,5.08c.71.41.62,1.13-.2,1.6l-8.73,5A3.07,3.07,0,0,1,426.88,376.32Z" fill="#06033e"/><path d="M440.49,384.18l-8.81-5.09c-.71-.41-.62-1.12.2-1.59l8.73-5a3.1,3.1,0,0,1,2.76-.12l8.81,5.09c.7.41.61,1.12-.2,1.59l-8.73,5A3.07,3.07,0,0,1,440.49,384.18Z" fill="#06033e"/><path d="M454.09,392,445.28,387c-.7-.41-.62-1.13.2-1.6l8.73-5a3.07,3.07,0,0,1,2.76-.11l8.81,5.08c.71.41.62,1.13-.2,1.6l-8.73,5A3.07,3.07,0,0,1,454.09,392Z" fill="#06033e"/><path d="M467.7,399.89l-8.81-5.09c-.71-.41-.62-1.12.2-1.59l8.73-5a3.1,3.1,0,0,1,2.76-.12l8.81,5.09c.7.41.61,1.12-.2,1.59l-8.73,5A3.07,3.07,0,0,1,467.7,399.89Z" fill="#06033e"/><path d="M481.3,407.74l-8.81-5.08c-.7-.41-.61-1.13.2-1.6l8.73-5a3.07,3.07,0,0,1,2.76-.11L493,401c.71.41.62,1.13-.2,1.6l-8.73,5A3.07,3.07,0,0,1,481.3,407.74Z" fill="#06033e"/><path d="M494.91,415.6l-8.81-5.09c-.71-.41-.62-1.12.2-1.59l8.73-5a3.07,3.07,0,0,1,2.76-.12l8.81,5.09c.7.41.61,1.12-.2,1.59l-8.73,5A3.07,3.07,0,0,1,494.91,415.6Z" fill="#06033e"/><path d="M508.51,423.45l-8.81-5.08c-.7-.41-.61-1.13.2-1.6l8.73-5a3.07,3.07,0,0,1,2.76-.11l8.81,5.08c.71.41.62,1.13-.2,1.6l-8.73,5A3.07,3.07,0,0,1,508.51,423.45Z" fill="#06033e"/><path d="M378.9,333.33l-8.81-5.09c-.7-.41-.61-1.12.2-1.59l8.73-5a3.07,3.07,0,0,1,2.76-.11l8.81,5.08c.71.41.62,1.12-.2,1.59l-8.73,5A3,3,0,0,1,378.9,333.33Z" fill="#06033e"/><path d="M365.37,325.51l-8.81-5.08c-.71-.41-.62-1.12.19-1.6l8.73-5a3.07,3.07,0,0,1,2.76-.11l8.81,5.09c.71.4.62,1.12-.19,1.59l-8.73,5A3.07,3.07,0,0,1,365.37,325.51Z" fill="#06033e"/><path d="M351.83,317.7,343,312.61c-.71-.41-.62-1.12.2-1.59l8.73-5a3.1,3.1,0,0,1,2.76-.12l8.81,5.09c.7.41.61,1.12-.2,1.59l-8.73,5A3.07,3.07,0,0,1,351.83,317.7Z" fill="#06033e"/><path d="M338.29,309.88l-8.81-5.08c-.71-.41-.62-1.13.2-1.6l8.73-5a3.07,3.07,0,0,1,2.76-.11l8.81,5.08c.71.41.62,1.13-.2,1.6l-8.73,5A3.07,3.07,0,0,1,338.29,309.88Z" fill="#06033e"/><path d="M352.21,301.84l-8.81-5.08c-.7-.41-.62-1.12.2-1.6l2.89-1.66a3.1,3.1,0,0,1,2.76-.12l8.81,5.09c.7.41.61,1.12-.2,1.59L355,301.73A3.07,3.07,0,0,1,352.21,301.84Z" fill="#06033e"/><path d="M369.88,312,361.07,307c-.71-.41-.62-1.12.2-1.6l2.88-1.66a3.1,3.1,0,0,1,2.76-.12l8.81,5.09c.71.41.62,1.12-.2,1.59l-2.88,1.67A3.07,3.07,0,0,1,369.88,312Z" fill="#06033e"/><path d="M383.36,319.83l-8.81-5.09c-.71-.41-.62-1.12.2-1.59l2.88-1.67a3.07,3.07,0,0,1,2.76-.11l8.81,5.08c.71.41.62,1.13-.19,1.6l-2.89,1.66A3.07,3.07,0,0,1,383.36,319.83Z" fill="#06033e"/><path d="M396.84,327.61,388,322.52c-.71-.4-.62-1.12.2-1.59l2.88-1.66a3,3,0,0,1,2.76-.12l8.81,5.09c.71.41.62,1.12-.19,1.59l-2.89,1.67A3.07,3.07,0,0,1,396.84,327.61Z" fill="#06033e"/><path d="M410.32,335.39l-8.81-5.08c-.71-.41-.62-1.12.2-1.6l2.89-1.66a3.1,3.1,0,0,1,2.76-.12l8.81,5.09c.7.41.61,1.12-.2,1.59l-2.89,1.67A3.07,3.07,0,0,1,410.32,335.39Z" fill="#06033e"/><path d="M485.58,378.85l-8.81-5.09c-.7-.41-.61-1.12.2-1.59l2.89-1.67a3.07,3.07,0,0,1,2.76-.11l8.81,5.08c.7.41.62,1.12-.2,1.6l-2.89,1.66A3.07,3.07,0,0,1,485.58,378.85Z" fill="#06033e"/><path d="M499.06,386.63l-8.8-5.09c-.71-.4-.62-1.12.19-1.59l2.89-1.67a3.07,3.07,0,0,1,2.76-.11l8.81,5.09c.71.4.62,1.12-.2,1.59l-2.89,1.67A3.07,3.07,0,0,1,499.06,386.63Z" fill="#06033e"/><path d="M512.55,394.41l-8.81-5.08c-.71-.41-.62-1.12.19-1.6l2.89-1.66a3.07,3.07,0,0,1,2.76-.12l8.81,5.09c.71.41.62,1.12-.2,1.59l-2.88,1.67A3.07,3.07,0,0,1,512.55,394.41Z" fill="#06033e"/><path d="M526,402.2l-8.81-5.09c-.71-.41-.62-1.12.2-1.59l2.88-1.67a3.07,3.07,0,0,1,2.76-.11l8.81,5.08c.71.41.62,1.12-.2,1.6l-2.88,1.66A3.07,3.07,0,0,1,526,402.2Z" fill="#06033e"/><path d="M392.51,341.18l-8.81-5.08c-.71-.41-.62-1.12.2-1.6l8.73-5a3.07,3.07,0,0,1,2.76-.11l8.81,5.09c.7.41.61,1.12-.2,1.59l-8.73,5A3.07,3.07,0,0,1,392.51,341.18Z" fill="#06033e"/><path d="M406.11,349,397.3,344c-.7-.41-.61-1.12.2-1.59l8.73-5a3.07,3.07,0,0,1,2.76-.11l8.81,5.08c.71.41.62,1.12-.2,1.59l-8.73,5A3,3,0,0,1,406.11,349Z" fill="#06033e"/><path d="M419.72,356.89l-8.81-5.08c-.71-.41-.62-1.12.2-1.6l8.73-5a3.07,3.07,0,0,1,2.76-.11l8.81,5.09c.7.4.61,1.12-.2,1.59l-8.73,5A3.07,3.07,0,0,1,419.72,356.89Z" fill="#06033e"/><path d="M433.32,364.75l-8.81-5.09c-.7-.41-.61-1.12.2-1.59l8.73-5a3.1,3.1,0,0,1,2.76-.12L445,358c.71.41.62,1.12-.2,1.59l-8.73,5A3,3,0,0,1,433.32,364.75Z" fill="#06033e"/><path d="M446.93,372.6l-8.81-5.08c-.71-.41-.62-1.12.2-1.6l8.73-5a3.07,3.07,0,0,1,2.76-.11l8.81,5.09c.7.4.62,1.12-.2,1.59l-8.73,5A3.07,3.07,0,0,1,446.93,372.6Z" fill="#06033e"/><path d="M460.53,380.46l-8.81-5.09c-.7-.41-.61-1.12.2-1.59l8.73-5a3.1,3.1,0,0,1,2.76-.12l8.81,5.09c.71.41.62,1.12-.2,1.59l-8.73,5A3,3,0,0,1,460.53,380.46Z" fill="#06033e"/><path d="M474.14,388.31l-8.81-5.08c-.71-.41-.62-1.12.2-1.6l8.73-5a3.07,3.07,0,0,1,2.76-.11l8.81,5.09c.7.4.62,1.12-.2,1.59l-8.73,5A3.07,3.07,0,0,1,474.14,388.31Z" fill="#06033e"/><path d="M487.74,396.17l-8.8-5.09c-.71-.41-.62-1.12.19-1.59l8.73-5a3.1,3.1,0,0,1,2.76-.12l8.81,5.09c.71.41.62,1.12-.2,1.59l-8.73,5A3,3,0,0,1,487.74,396.17Z" fill="#06033e"/><path d="M501.35,404l-8.81-5.08c-.71-.41-.62-1.12.2-1.6l8.73-5a3.07,3.07,0,0,1,2.76-.11l8.81,5.09c.7.4.62,1.12-.2,1.59l-8.73,5A3.07,3.07,0,0,1,501.35,404Z" fill="#06033e"/><path d="M314.73,342.15l-26-15c-.71-.4-.62-1.12.2-1.59l8.73-5a3.07,3.07,0,0,1,2.76-.11l25.94,15c.71.4.62,1.12-.19,1.59l-8.73,5A3.07,3.07,0,0,1,314.73,342.15Z" fill="#06033e"/><path d="M481.87,438.65l-25.95-15c-.7-.41-.62-1.12.2-1.59l8.73-5a3.07,3.07,0,0,1,2.76-.11l25.95,15c.7.4.61,1.12-.2,1.59l-8.73,5A3.07,3.07,0,0,1,481.87,438.65Z" fill="#06033e"/><path d="M427.46,424.59l-8.81-5.09c-.71-.4-.62-1.12.2-1.59l10.4-6a3.07,3.07,0,0,1,2.76-.12l8.81,5.09c.7.41.61,1.12-.2,1.59l-10.4,6A3.07,3.07,0,0,1,427.46,424.59Z" fill="#06033e"/><path d="M328.66,367.55l-14.09-8.14c-.71-.4-.62-1.12.2-1.59l10.4-6a3.07,3.07,0,0,1,2.76-.12L342,359.84c.7.41.61,1.12-.2,1.59l-10.4,6A3,3,0,0,1,328.66,367.55Z" fill="#06033e"/><path d="M414.35,417l-14.09-8.13c-.71-.41-.62-1.12.2-1.6l10.4-6a3.07,3.07,0,0,1,2.76-.11l14.09,8.13c.7.41.62,1.12-.2,1.59l-10.4,6A3.07,3.07,0,0,1,414.35,417Z" fill="#06033e"/><path d="M348.29,378.88l-14.09-8.13c-.71-.41-.62-1.12.2-1.6l10.4-6a3.07,3.07,0,0,1,2.76-.11l14.09,8.13c.7.41.61,1.12-.2,1.59l-10.4,6A3.07,3.07,0,0,1,348.29,378.88Z" fill="#06033e"/><path d="M347.65,363.09l61.26,35.37a.84.84,0,0,1,0,1.59l-10.61,6.12a3,3,0,0,1-2.75,0L334.29,370.8Z" fill="#06033e"/><path d="M465.48,438.83l9.82,5.67c.58.33.5.92-.17,1.3l-4.25,2.46a2.48,2.48,0,0,1-2.26.09l-9.81-5.66c-.58-.34-.51-.92.16-1.31l4.25-2.45A2.52,2.52,0,0,1,465.48,438.83Z" fill="#06033e"/><path d="M451.77,430.91l9.81,5.67c.58.33.51.92-.16,1.3l-4.26,2.46a2.48,2.48,0,0,1-2.26.09l-9.81-5.66c-.58-.34-.51-.92.16-1.31L449.5,431A2.54,2.54,0,0,1,451.77,430.91Z" fill="#06033e"/><path d="M438.16,423.06l9.81,5.66c.58.34.51.92-.16,1.31l-4.25,2.46a2.54,2.54,0,0,1-2.26.09l-9.82-5.67c-.58-.33-.5-.92.16-1.3l4.26-2.46A2.51,2.51,0,0,1,438.16,423.06Z" fill="#06033e"/><path d="M459.28,426.58l9.81,5.66c.58.34.51.92-.16,1.31L464.68,436a2.54,2.54,0,0,1-2.27.1l-9.81-5.67c-.58-.33-.51-.92.16-1.31l4.26-2.45A2.48,2.48,0,0,1,459.28,426.58Z" fill="#06033e"/></g><path d="M603.27,410.68,343.35,260.62c-4.09-2.36-6.22-8.11-4.77-12.84L397.36,56.93c1.46-4.73,5.95-6.65,10-4.29L667.32,202.7c4.09,2.36,6.22,8.11,4.76,12.84L613.3,406.39C611.85,411.12,607.35,413,603.27,410.68Z" fill="url(#h)"/><path d="M600.82,404,348.71,258.33c-3.91-2.26-5.95-7.76-4.56-12.29l56.2-182.45c1.39-4.53,5.69-6.37,9.6-4.11L662.06,205.15c3.91,2.26,6,7.76,4.56,12.29l-56.2,182.45C609,404.42,604.73,406.26,600.82,404Z" fill="url(#i)"/><path d="M600.82,404,348.71,258.33c-3.91-2.26-5.95-7.76-4.56-12.29l56.2-182.45c1.39-4.53,5.69-6.37,9.6-4.11L662.06,205.15c3.91,2.26,6,7.76,4.56,12.29l-56.2,182.45C609,404.42,604.73,406.26,600.82,404Z" fill="#06033e" opacity="0.4"/><path d="M600.82,404,348.71,258.33c-3.91-2.26-5.95-7.76-4.56-12.29l56.2-182.45c1.39-4.53,5.69-6.37,9.6-4.11L662.06,205.15c3.91,2.26,6,7.76,4.56,12.29l-56.2,182.45C609,404.42,604.73,406.26,600.82,404Z" fill="#06033e" opacity="0.4"/><path d="M587.27,348.25,416.61,249.71a7.54,7.54,0,0,1-3.13-8.43L452.07,116c1-3.11,3.91-4.37,6.59-2.82l170.67,98.53a7.57,7.57,0,0,1,3.13,8.43l-38.6,125.31C592.91,348.53,590,349.79,587.27,348.25Z" fill="#06033e" opacity="0.5"/><path d="M564.21,351.27,393.55,252.74a7.57,7.57,0,0,1-3.13-8.43L429,119c1-3.11,3.9-4.38,6.59-2.83l170.66,98.54a7.57,7.57,0,0,1,3.13,8.43L570.8,348.45C569.85,351.56,566.9,352.82,564.21,351.27Z" fill="url(#j)"/><g opacity="0.5"><path d="M564.21,351.27,393.55,252.74a7.57,7.57,0,0,1-3.13-8.43L429,119c1-3.11,3.9-4.38,6.59-2.83l170.66,98.54a7.57,7.57,0,0,1,3.13,8.43L570.8,348.45C569.85,351.56,566.9,352.82,564.21,351.27Z" fill="#06033e"/></g><path d="M606.27,214.71,435.61,116.17a4.26,4.26,0,0,0-4.81.17,4.58,4.58,0,0,1,2.47.63L603.93,215.5a7.56,7.56,0,0,1,3.13,8.43L568.47,349.24a5.19,5.19,0,0,1-1.79,2.66,4.49,4.49,0,0,0,4.12-3.45l38.6-125.31A7.57,7.57,0,0,0,606.27,214.71Z" fill="#fff"/><path d="M349,453.6a12.9,12.9,0,0,1-6.33-1.48h0l-68.37-39.48a4.92,4.92,0,0,1-2.81-4.21c0-1.94,1.37-3.84,3.77-5.23l35.19-20.32c4.31-2.48,10.62-2.72,14.38-.55l68.38,39.47A5,5,0,0,1,396,426c0,1.93-1.38,3.84-3.77,5.22L357,451.56A16.46,16.46,0,0,1,349,453.6Zm-30.46-70.76a14.73,14.73,0,0,0-7.1,1.75l-35.19,20.32c-1.77,1-2.79,2.31-2.79,3.52a3.11,3.11,0,0,0,1.83,2.5l68.37,39.48c3.1,1.79,8.78,1.53,12.4-.56l35.2-20.32c1.77-1,2.78-2.3,2.78-3.51a3.13,3.13,0,0,0-1.82-2.51L323.81,384A10.76,10.76,0,0,0,318.51,382.84Z" fill="#06033e" opacity="0.4"/><path d="M477.17,181.92l-10.55-6.1a2.74,2.74,0,0,1-1.17-3h0a1.56,1.56,0,0,1,2.37-1l10.55,6.09a2.77,2.77,0,0,1,1.18,3h0A1.57,1.57,0,0,1,477.17,181.92Z" fill="#fff"/><path d="M502.31,196.43l-15.56-9a2.74,2.74,0,0,1-1.17-3h0a1.56,1.56,0,0,1,2.37-1l15.56,9a2.74,2.74,0,0,1,1.17,3h0A1.56,1.56,0,0,1,502.31,196.43Z" fill="#fff"/><path d="M455.9,228.89l-10.56-6.09a2.77,2.77,0,0,1-1.17-3h0a1.56,1.56,0,0,1,2.37-1l10.56,6.09a2.76,2.76,0,0,1,1.17,3h0A1.56,1.56,0,0,1,455.9,228.89Z" fill="#fff"/><path d="M478.3,241.82l-15.56-9a2.74,2.74,0,0,1-1.17-3h0a1.56,1.56,0,0,1,2.37-1l15.56,9a2.76,2.76,0,0,1,1.17,3h0A1.55,1.55,0,0,1,478.3,241.82Z" fill="#fff"/><path d="M445.57,173.54l-6.59-3.8a2.75,2.75,0,0,1-1.18-3h0a1.57,1.57,0,0,1,2.38-1l6.59,3.8a2.76,2.76,0,0,1,1.17,3h0A1.55,1.55,0,0,1,445.57,173.54Z" fill="#fff"/><path d="M465.4,194.87l-20.14-11.63a2.74,2.74,0,0,1-1.17-3h0a1.56,1.56,0,0,1,2.37-1l20.14,11.63a2.75,2.75,0,0,1,1.17,3h0A1.55,1.55,0,0,1,465.4,194.87Z" fill="#fff"/><path d="M446.83,203.9l-6.59-3.8a2.77,2.77,0,0,1-1.18-3h0a1.57,1.57,0,0,1,2.38-1l6.59,3.81a2.75,2.75,0,0,1,1.17,3h0A1.56,1.56,0,0,1,446.83,203.9Z" fill="#fff"/><path d="M480.73,263l-17.61-10.16a2.78,2.78,0,0,1-1.17-3h0a1.55,1.55,0,0,1,2.37-1L481.93,259a2.74,2.74,0,0,1,1.17,3h0A1.56,1.56,0,0,1,480.73,263Z" fill="#fff"/><path d="M439.44,219.39,435.21,217a2.75,2.75,0,0,1-1.17-3h0a1.55,1.55,0,0,1,2.37-1l4.23,2.44a2.74,2.74,0,0,1,1.17,3h0A1.56,1.56,0,0,1,439.44,219.39Z" fill="#fff"/><path d="M435.44,236.83l-5.26-3a2.76,2.76,0,0,1-1.17-3h0a1.55,1.55,0,0,1,2.37-1l5.26,3a2.76,2.76,0,0,1,1.17,3h0A1.56,1.56,0,0,1,435.44,236.83Z" fill="#fff"/><path d="M455.88,248.63l-13.86-8a2.74,2.74,0,0,1-1.17-3h0a1.56,1.56,0,0,1,2.37-1l13.86,8a2.76,2.76,0,0,1,1.17,3h0A1.56,1.56,0,0,1,455.88,248.63Z" fill="#fff"/><path d="M437.63,248l-10-5.75a2.73,2.73,0,0,1-1.17-3h0a1.56,1.56,0,0,1,2.37-1l10,5.75a2.76,2.76,0,0,1,1.17,3h0A1.55,1.55,0,0,1,437.63,248Z" fill="#fff"/><path d="M495.83,271.74l-6.39-3.69a2.75,2.75,0,0,1-1.18-3h0a1.56,1.56,0,0,1,2.37-1l6.4,3.69a2.74,2.74,0,0,1,1.17,3h0A1.55,1.55,0,0,1,495.83,271.74Z" fill="#fff"/><path d="M471.34,218.06l-17.6-10.17a2.74,2.74,0,0,1-1.17-3h0a1.56,1.56,0,0,1,2.37-1L472.54,214a2.75,2.75,0,0,1,1.18,3h0A1.57,1.57,0,0,1,471.34,218.06Z" fill="#fff"/><path d="M473.43,209.38l-30.68-17.71a2.74,2.74,0,0,1-1.17-3h0a1.56,1.56,0,0,1,2.37-1l30.68,17.71a2.76,2.76,0,0,1,1.17,3h0A1.55,1.55,0,0,1,473.43,209.38Z" fill="#e8975b"/><path d="M455.33,218.68l-17.61-10.16a2.74,2.74,0,0,1-1.17-3h0a1.56,1.56,0,0,1,2.37-1l17.61,10.16a2.78,2.78,0,0,1,1.17,3h0A1.55,1.55,0,0,1,455.33,218.68Z" fill="#e8975b"/><path d="M484.7,225.77l-6.4-3.7a2.74,2.74,0,0,1-1.17-3h0a1.56,1.56,0,0,1,2.37-1l6.4,3.69a2.76,2.76,0,0,1,1.17,3h0A1.56,1.56,0,0,1,484.7,225.77Z" fill="#e8975b"/><path d="M549.76,223.82,511.88,202a2.74,2.74,0,0,1-1.17-3h0a1.56,1.56,0,0,1,2.37-1L551,219.8a2.76,2.76,0,0,1,1.17,3h0A1.55,1.55,0,0,1,549.76,223.82Z" fill="#e8975b"/><path d="M453.86,237.59,432.7,225.37a2.75,2.75,0,0,1-1.18-3h0a1.57,1.57,0,0,1,2.37-1l21.17,12.22a2.74,2.74,0,0,1,1.17,3h0A1.56,1.56,0,0,1,453.86,237.59Z" fill="#f8359e"/><path d="M457.05,170.3l-15.56-9a2.74,2.74,0,0,1-1.17-3h0a1.56,1.56,0,0,1,2.37-1l15.56,9a2.74,2.74,0,0,1,1.17,3h0A1.56,1.56,0,0,1,457.05,170.3Z" fill="#f8359e"/><path d="M434.37,256l-18-10.4a2.77,2.77,0,0,1-1.18-3h0a1.56,1.56,0,0,1,2.38-1l18,10.4a2.75,2.75,0,0,1,1.18,3h0A1.57,1.57,0,0,1,434.37,256Z" fill="#e8975b"/><path d="M554,204.34l-7.71-4.45a2,2,0,0,1-.86-2.22h0a1.15,1.15,0,0,1,1.74-.72l7.71,4.45a2,2,0,0,1,.85,2.22h0A1.13,1.13,0,0,1,554,204.34Z" fill="#fff"/><path d="M568.72,212.84,561,208.38a2,2,0,0,1-.86-2.21h0a1.15,1.15,0,0,1,1.74-.73l7.71,4.46a2,2,0,0,1,.86,2.21h0A1.15,1.15,0,0,1,568.72,212.84Z" fill="#fff"/><path d="M583.43,221.33l-7.71-4.45a2,2,0,0,1-.86-2.22h0a1.14,1.14,0,0,1,1.74-.72l7.71,4.45a2,2,0,0,1,.86,2.22h0A1.15,1.15,0,0,1,583.43,221.33Z" fill="#fff"/><path d="M590.66,225.51l-.23-.14a2,2,0,0,1-.86-2.22h0a1.15,1.15,0,0,1,1.74-.72l.23.14a2,2,0,0,1,.86,2.22h0A1.15,1.15,0,0,1,590.66,225.51Z" fill="#f8359e"/><path d="M192.62,315.76A28.2,28.2,0,0,1,178.5,312h0l-51.66-29.83a7.15,7.15,0,0,1,0-12.39L178.5,240a28.29,28.29,0,0,1,28.23,0l51.67,29.83a7.16,7.16,0,0,1,0,12.39L206.74,312A28.2,28.2,0,0,1,192.62,315.76Zm-12.44-6.68a25,25,0,0,0,24.88,0l51.66-29.83a3.79,3.79,0,0,0,0-6.56l-51.67-29.83a24.93,24.93,0,0,0-24.87,0l-51.66,29.83a3.79,3.79,0,0,0,0,6.56Z" fill="url(#k)"/><ellipse cx="192.36" cy="276.67" rx="35.48" ry="20.49" fill="#020230" opacity="0.6"/><path d="M245,130.66H143.89l9.4,109.43h0c0,6.07,4,12.15,12.05,16.79,16.06,9.27,42.11,9.27,58.17,0,8-4.64,12.05-10.72,12.05-16.79Z" fill="url(#l)"/><path d="M245,130.66H143.89l1.54,18a39.51,39.51,0,0,0,9.37,8.43c19.31,12.81,51.18,15.28,72.93,6l-3.37,80a15.66,15.66,0,0,1-3.61,9.54c-3.27,3.85-9.58,8.39-21.7,11,8.93-.58,17.61-2.83,24.46-6.79,8-4.64,12.05-10.72,12.05-16.79l7.54-87.76h0Z" fill="#06033e" opacity="0.4"/><ellipse cx="194.42" cy="130.66" rx="50.54" ry="29.18" fill="#06033e" opacity="0.4"/><ellipse cx="194.42" cy="120.37" rx="43.53" ry="25.13" fill="#06033e" opacity="0.4"/><path d="M248,129.28h0v-.09s0-.1,0-.15l-1-9.8,0,.11c-.43-7.41-5.54-14.76-15.35-20.42-20.51-11.84-53.78-11.84-74.3,0-10.05,5.81-15.17,13.38-15.37,21v0l-.92,8.72c0,.23-.06.45-.08.68v.15h0c-.56,8.31,4.65,16.73,15.64,23.07,20.93,12.08,54.86,12.08,75.78,0C243.37,146.13,248.58,137.64,248,129.28Z" fill="url(#m)"/><ellipse cx="194.42" cy="120.37" rx="43.53" ry="25.13" fill="url(#n)"/><ellipse cx="192.36" cy="120.37" rx="43.53" ry="25.13" fill="url(#o)"/><path d="M168.81,106.34c17-9.81,44.56-9.81,61.55,0,.22.13.4.27.61.39a34.72,34.72,0,0,0-5.77-4.13c-17-9.81-44.56-9.81-61.56,0-16.78,9.69-17,25.31-.6,35.15C152.11,128,154,114.88,168.81,106.34Z" fill="#06033e" opacity="0.4"/><path d="M163.64,107c17-9.81,44.56-9.81,61.56,0,7.54,4.35,11.73,9.91,12.58,15.59,1.07-7.14-3.12-14.49-12.58-20-17-9.81-44.56-9.81-61.56,0-9.46,5.46-13.64,12.81-12.57,20C151.92,116.86,156.11,111.31,163.64,107Z" fill="url(#p)"/><path d="M231.9,99.17C211.41,87.1,178,86.81,157.32,98.51s-20.86,31-.37,43.06,53.87,12.37,74.57.66S252.39,111.24,231.9,99.17Zm-6.7,39a56.51,56.51,0,0,1-19.79,6.52l-.79-2.59a2.5,2.5,0,0,0-2.38-1.77H186.61a2.48,2.48,0,0,0-2.38,1.77l-.79,2.59a56.57,56.57,0,0,1-19.8-6.52c-17-9.81-17-25.73,0-35.54s44.56-9.81,61.56,0S242.2,128.33,225.2,138.14Z" fill="url(#q)"/><path d="M225.2,100.74c-17-9.81-44.56-9.81-61.56,0-8.91,5.14-13.14,12-12.71,18.7.39-6.12,4.62-12.17,12.71-16.84,17-9.81,44.56-9.81,61.56,0,8.09,4.67,12.32,10.72,12.71,16.84C238.34,112.7,234.11,105.88,225.2,100.74Z" fill="#fff"/><path d="M231.52,140.37c-20.7,11.7-54.08,11.41-74.57-.66-9.75-5.74-14.82-13.12-15.22-20.54-.41,8,4.65,16.18,15.22,22.4,20.49,12.07,53.87,12.37,74.57.66,10.85-6.14,16-14.35,15.6-22.52C246.74,127.25,241.55,134.7,231.52,140.37Z" fill="#fff"/><rect x="188.57" y="143.49" width="11.7" height="2.53" rx="0.65" fill="#0c0a78"/><path d="M199.09,143.49h-9.34a1.18,1.18,0,0,0-1.18,1.18v.17a1.55,1.55,0,0,0,.06.31,1.18,1.18,0,0,1,1.12-.87h9.34a1.18,1.18,0,0,1,1.12.87,1.07,1.07,0,0,0,.06-.31v-.17A1.18,1.18,0,0,0,199.09,143.49Z" fill="url(#r)"/><path d="M195.85,228.85a8.07,8.07,0,0,1-15.6-4.15c1.14-4.31,5.21-5.53,9.52-4.39S197,224.54,195.85,228.85Z" fill="#e8975b"/><path d="M202.21,220.34a3.57,3.57,0,1,1-5-5.11c1.63-1.59,4.72-2.38,6.1-1S203.84,218.75,202.21,220.34Z" fill="#e8975b"/><path d="M193.77,213.58a3.58,3.58,0,1,1-7-1.25c.39-2.24,2.45-4.67,4.4-4.33S194.16,211.35,193.77,213.58Z" fill="#e8975b"/><path d="M183.36,212.55a3.58,3.58,0,1,1-6.62,2.72c-.86-2.1-.43-5.26,1.4-6S182.49,210.45,183.36,212.55Z" fill="#e8975b"/><path d="M197.73,144.75s28.26-9.47,16.82-41.93-33.72-42.37-24.74-68.34c0,0-14.07,21-.93,49.47s16,25.18,15.87,38.79a24.54,24.54,0,0,1-13.24,22Z" fill="#fff" opacity="0.5"/><path d="M200.27,39s-2.94-19.43,15.28-39c0,0-16.11,36-10.84,53.75C204.71,53.75,200.45,42.46,200.27,39Z" fill="#fff" opacity="0.5"/></svg>