<svg width="165" height="33" viewBox="0 0 165 33" fill="none" xmlns="http://www.w3.org/2000/svg">
<path d="M2.894 7.84V7.312C2.894 6.828 2.872 6.487 2.828 6.289C2.784 6.069 2.641 5.937 2.399 5.893C2.223 5.893 2.047 5.948 1.871 6.058L1.475 6.223C1.365 6.223 1.244 6.179 1.112 6.091C0.98 5.981 0.881 5.805 0.815 5.563L0.749 4.87V4.54C0.749 4.078 1.09 3.649 1.772 3.253L3.521 2.296L6.524 0.645999C6.81 0.469998 7.085 0.381998 7.349 0.381998C7.481 0.381998 7.646 0.447999 7.844 0.58C8.042 0.69 8.141 0.998 8.141 1.504V1.999L8.042 2.824C8.02 3 7.833 3.209 7.481 3.451C7.129 3.671 6.887 3.924 6.755 4.21L6.623 5.398V11.008C7.349 10.304 8.24 9.721 9.296 9.259C10.352 8.797 11.364 8.566 12.332 8.566C12.684 8.566 13.069 8.61 13.487 8.698C13.927 8.786 14.378 8.929 14.84 9.127C15.764 9.457 16.578 10.084 17.282 11.008C17.92 11.866 18.338 12.779 18.536 13.747C18.734 14.715 18.833 15.54 18.833 16.222C18.833 17.388 18.646 18.532 18.272 19.654C17.898 20.754 17.271 21.744 16.391 22.624C15.533 23.482 14.477 24.131 13.223 24.571C11.991 25.011 10.814 25.231 9.692 25.231C8.394 25.231 7.206 24.978 6.128 24.472C5.49 24.186 4.984 23.944 4.61 23.746C4.258 23.526 3.906 23.251 3.554 22.921C2.982 22.415 2.641 22.019 2.531 21.733L2.399 20.974C2.399 20.666 2.465 20.314 2.597 19.918L2.894 19.159V7.84ZM6.623 14.737V17.806C6.623 19.346 6.876 20.369 7.382 20.875C7.888 21.381 8.427 21.744 8.999 21.964C9.593 22.162 10.165 22.261 10.715 22.261L11.078 22.228L11.936 22.096C12.376 22.03 12.893 21.733 13.487 21.205C14.081 20.655 14.477 20.083 14.675 19.489L15.071 18.169L15.17 17.146C15.17 16.618 15.071 16.09 14.873 15.562C14.719 15.034 14.422 14.506 13.982 13.978C13.608 13.472 13.113 13.098 12.497 12.856C12.277 12.768 12.002 12.691 11.672 12.625C11.364 12.559 11.056 12.526 10.748 12.526L10.352 12.559L9.791 12.658C9.593 12.658 9.142 12.878 8.438 13.318C7.756 13.736 7.151 14.209 6.623 14.737ZM22.0366 15.661V15.133C22.0366 14.649 22.0036 14.286 21.9376 14.044C21.9156 13.846 21.7946 13.736 21.5746 13.714C21.3986 13.714 21.1786 13.802 20.9146 13.978L20.5516 14.011C20.3976 14.011 20.2656 13.967 20.1556 13.879C20.0676 13.791 19.9906 13.604 19.9246 13.318L19.8916 12.658V12.328C19.8916 11.888 20.2326 11.47 20.9146 11.074L22.6636 10.084L25.6666 8.467C25.9526 8.291 26.2276 8.203 26.4916 8.203C26.6236 8.203 26.7446 8.247 26.8546 8.335C26.9866 8.401 27.0856 8.522 27.1516 8.698L27.2836 9.292V9.787L27.1846 10.645C27.1626 10.821 26.9756 11.019 26.6236 11.239C26.2716 11.459 26.0296 11.712 25.8976 11.998L25.7656 13.186V18.829C25.7656 19.313 25.7656 19.764 25.7656 20.182C25.7656 20.6 25.7876 21.029 25.8316 21.469C25.8976 21.909 26.2056 22.129 26.7556 22.129C27.2616 22.129 27.5806 22.239 27.7126 22.459C27.8446 22.657 27.9106 23.009 27.9106 23.515C27.9106 24.131 27.8336 24.538 27.6796 24.736C27.5476 24.912 27.1626 25 26.5246 25H21.2446C20.6286 25 20.2436 24.912 20.0896 24.736C19.9576 24.538 19.8916 24.131 19.8916 23.515C19.8916 23.031 19.9466 22.679 20.0566 22.459C20.1886 22.239 20.5186 22.129 21.0466 22.129C21.7066 22.129 22.0366 21.073 22.0366 18.961V15.661ZM25.8316 5.629C25.8316 5.937 25.7656 6.179 25.6336 6.355C25.5236 6.531 25.2046 6.762 24.6766 7.048L22.7296 8.071C22.2236 8.335 21.7836 8.489 21.4096 8.533C20.9476 8.533 20.7166 8.126 20.7166 7.312V4.771C20.7166 4.419 20.7716 4.166 20.8816 4.012C21.0136 3.858 21.3656 3.627 21.9376 3.319L23.8516 2.329C24.3576 2.065 24.7976 1.911 25.1716 1.867C25.6116 1.867 25.8316 2.263 25.8316 3.055V5.629ZM40.4227 12.427C39.9827 12.185 39.5317 12.064 39.0697 12.064C38.1897 12.064 37.2987 12.438 36.3967 13.186L35.1757 14.308V18.829C35.1757 19.313 35.1757 19.764 35.1757 20.182C35.1757 20.6 35.1977 21.029 35.2417 21.469C35.3077 21.909 35.6157 22.129 36.1657 22.129C36.6717 22.129 36.9907 22.239 37.1227 22.459C37.2547 22.657 37.3207 23.009 37.3207 23.515C37.3207 24.131 37.2437 24.538 37.0897 24.736C36.9577 24.912 36.5727 25 35.9347 25H30.6547C30.0387 25 29.6537 24.912 29.4997 24.736C29.3677 24.538 29.3017 24.131 29.3017 23.515C29.3017 23.031 29.3567 22.679 29.4667 22.459C29.5987 22.239 29.9287 22.129 30.4567 22.129C30.8747 22.129 31.1387 21.887 31.2487 21.403C31.3807 20.897 31.4467 20.039 31.4467 18.829V16.552V15.43V14.836C31.4467 14.616 31.4247 14.418 31.3807 14.242C31.3807 14.066 31.2927 13.934 31.1167 13.846L30.7537 13.681L30.0607 13.78C29.9287 13.78 29.7857 13.736 29.6317 13.648L29.3677 13.252L29.3017 12.493C29.3017 12.053 29.3677 11.723 29.4997 11.503C29.6537 11.261 29.9947 10.92 30.5227 10.48L32.7007 8.83C33.2287 8.478 33.6687 8.302 34.0207 8.302C34.2187 8.302 34.4497 8.346 34.7137 8.434C35.0217 8.5 35.1757 8.874 35.1757 9.556V10.711C36.0777 10.139 37.0127 9.644 37.9807 9.226C38.9707 8.786 39.9057 8.566 40.7857 8.566C41.6657 8.566 42.5017 8.786 43.2937 9.226C44.0637 9.6 44.6467 10.216 45.0427 11.074C45.4387 11.932 45.6367 13.186 45.6367 14.836V18.829C45.6367 19.313 45.6367 19.764 45.6367 20.182C45.6367 20.6 45.6587 21.029 45.7027 21.469C45.7687 21.909 46.0767 22.129 46.6267 22.129C47.1107 22.129 47.4187 22.239 47.5507 22.459C47.6827 22.679 47.7487 23.031 47.7487 23.515C47.7487 24.131 47.6717 24.538 47.5177 24.736C47.3857 24.912 47.0227 25 46.4287 25H41.1157C40.4997 25 40.1147 24.912 39.9607 24.736C39.8287 24.538 39.7627 24.131 39.7627 23.515C39.7627 23.031 39.8177 22.679 39.9277 22.459C40.0597 22.239 40.3897 22.129 40.9177 22.129C41.5557 22.129 41.8747 21.029 41.8747 18.829V15.298C41.8747 14.682 41.7867 14.154 41.6107 13.714C41.4787 13.208 41.0827 12.779 40.4227 12.427ZM62.9904 21.997C63.0564 22.063 63.2324 22.096 63.5184 22.096H64.0794C64.2774 22.118 64.4204 22.239 64.5084 22.459L64.7724 23.086C64.8384 23.284 64.8494 23.471 64.8054 23.647C64.7834 23.801 64.6514 23.966 64.4094 24.142C64.1894 24.318 63.8264 24.505 63.3204 24.703L62.0994 25.066L61.1754 25.198C60.6914 25.198 60.3284 25.11 60.0864 24.934L59.4924 24.307L59.0304 23.581C58.1504 24.087 57.2924 24.483 56.4564 24.769C55.6204 25.055 54.8064 25.198 54.0144 25.198C53.3104 25.198 52.4194 25 51.3414 24.604C50.2854 24.208 49.4934 23.273 48.9654 21.799C48.8114 21.337 48.7344 20.864 48.7344 20.38C48.7344 19.94 48.8004 19.467 48.9324 18.961C49.0864 18.455 49.4384 17.784 49.9884 16.948C50.5604 16.09 51.6054 15.375 53.1234 14.803C54.6414 14.209 56.2694 13.912 58.0074 13.912H58.8324C58.8324 13.274 58.7554 12.801 58.6014 12.493C58.4694 12.163 58.2054 11.888 57.8094 11.668C57.4134 11.426 56.9514 11.305 56.4234 11.305C55.9614 11.305 55.5874 11.382 55.3014 11.536C55.0154 11.668 54.5864 12.02 54.0144 12.592C53.4424 13.164 52.9584 13.45 52.5624 13.45H51.8364L50.7804 13.417C50.5824 13.373 50.3844 13.23 50.1864 12.988C50.0984 12.856 50.0324 12.68 49.9884 12.46C49.9444 12.24 49.9224 11.932 49.9224 11.536C49.9224 11.206 49.9444 10.986 49.9884 10.876L50.1204 10.282C50.1864 10.018 50.3734 9.798 50.6814 9.622C50.9894 9.424 51.4294 9.237 52.0014 9.061L53.7834 8.698L56.0934 8.566C57.1494 8.566 58.1064 8.665 58.9644 8.863C59.8444 9.061 60.5374 9.358 61.0434 9.754C61.5494 10.15 61.9344 10.689 62.1984 11.371C62.4624 11.965 62.5944 12.856 62.5944 14.044V14.836V20.611C62.5944 21.403 62.7264 21.865 62.9904 21.997ZM53.9814 17.773C53.6514 18.059 53.3984 18.367 53.2224 18.697C53.0684 19.005 52.9694 19.357 52.9254 19.753L53.0244 20.71C53.0904 21.15 53.4204 21.502 54.0144 21.766C54.6084 22.008 55.0814 22.129 55.4334 22.129C56.2914 22.129 57.1494 21.832 58.0074 21.238L58.8324 20.545V16.42C57.8204 16.42 56.8854 16.541 56.0274 16.783C55.1914 17.003 54.5094 17.333 53.9814 17.773ZM71.8173 10.975L73.2363 9.787C73.6103 9.501 73.9843 9.281 74.3583 9.127C74.7323 8.951 75.1833 8.808 75.7113 8.698L76.9653 8.599C77.1853 8.599 77.3613 8.621 77.4933 8.665C77.6473 8.665 77.7903 8.819 77.9223 9.127C77.9883 9.303 78.0323 9.446 78.0543 9.556C78.0763 9.666 78.0873 9.864 78.0873 10.15V11.734V12.394C78.0873 12.79 78.0653 13.076 78.0213 13.252C77.9993 13.428 77.9113 13.571 77.7573 13.681L77.0973 13.846L76.5693 13.879H75.8433L75.2823 13.78L74.5563 13.351C74.2703 13.153 73.9953 13.032 73.7313 12.988C73.4673 12.988 73.1813 13.098 72.8733 13.318L71.8173 14.143V18.829C71.8173 20.083 71.8833 20.952 72.0153 21.436C72.1473 21.898 72.5543 22.129 73.2363 22.129C73.7203 22.129 74.0283 22.239 74.1603 22.459C74.2923 22.679 74.3583 23.031 74.3583 23.515C74.3583 24.131 74.2813 24.538 74.1273 24.736C73.9953 24.912 73.6213 25 73.0053 25H67.2963C66.6803 25 66.2953 24.912 66.1413 24.736C66.0093 24.538 65.9433 24.131 65.9433 23.515C65.9433 23.031 65.9983 22.679 66.1083 22.459C66.2403 22.239 66.5703 22.129 67.0983 22.129C67.5163 22.129 67.7803 21.887 67.8903 21.403C68.0223 20.897 68.0883 20.039 68.0883 18.829V16.552V15.43V14.836C68.0883 14.616 68.0663 14.418 68.0223 14.242C68.0223 14.066 67.9343 13.934 67.7583 13.846L67.3953 13.681L66.7023 13.78C66.5703 13.78 66.4273 13.736 66.2733 13.648L66.0093 13.252L65.9433 12.493C65.9433 12.053 66.0093 11.723 66.1413 11.503C66.2953 11.261 66.6363 10.92 67.1643 10.48L69.3423 8.83C69.8703 8.478 70.3103 8.302 70.6623 8.302C70.8603 8.302 71.0913 8.346 71.3553 8.434C71.6633 8.5 71.8173 8.874 71.8173 9.556V10.975ZM87.7991 32.029H86.7431H86.3141C86.1601 32.029 85.9291 32.007 85.6211 31.963C85.3131 31.963 85.0271 31.831 84.7631 31.567C84.5431 31.303 84.4331 30.951 84.4331 30.511C84.4331 29.895 84.6091 29.169 84.9611 28.333L86.5121 24.472L80.8031 12.922L80.3411 12.031C80.1651 11.701 79.9451 11.536 79.6811 11.536C79.3951 11.536 79.1861 11.426 79.0541 11.206C78.9441 10.942 78.8891 10.623 78.8891 10.249C78.8891 9.743 78.9221 9.369 78.9881 9.127C79.0541 8.863 79.4611 8.731 80.2091 8.731H85.7201C86.2921 8.731 86.6661 8.83 86.8421 9.028C86.9961 9.27 87.0731 9.677 87.0731 10.249C87.0731 10.689 87.0071 11.03 86.8751 11.272C86.7651 11.514 86.4461 11.635 85.9181 11.635C85.6761 11.635 85.4891 11.668 85.3571 11.734C85.2471 11.778 85.1481 11.921 85.0601 12.163C84.9941 12.559 85.3791 13.582 86.2151 15.232L88.4921 19.786L91.2971 13.384C91.4291 13.054 91.5171 12.735 91.5611 12.427C91.5611 11.965 91.2971 11.679 90.7691 11.569C90.2411 11.503 89.9001 11.36 89.7461 11.14C89.5921 10.898 89.5151 10.601 89.5151 10.249C89.5151 9.677 89.5811 9.281 89.7131 9.061C89.8451 8.841 90.2411 8.731 90.9011 8.731H96.0491C96.6431 8.731 97.0061 8.841 97.1381 9.061C97.2921 9.259 97.3691 9.655 97.3691 10.249C97.3691 10.601 97.2701 10.876 97.0721 11.074C96.9621 11.162 96.8301 11.25 96.6761 11.338C96.5221 11.426 96.3901 11.492 96.2801 11.536C95.9721 11.668 95.6531 12.075 95.3231 12.757L94.6301 14.275L90.3401 24.373L89.6141 26.221C89.3941 26.947 89.2841 27.486 89.2841 27.838C89.2841 28.124 89.3281 28.355 89.4161 28.531C89.5041 28.707 89.6581 28.85 89.8781 28.96C90.0981 29.092 90.4281 29.158 90.8681 29.158C91.3741 29.158 91.6821 29.257 91.7921 29.455C91.9241 29.675 91.9901 30.038 91.9901 30.544C91.9901 31.16 91.9131 31.556 91.7591 31.732C91.6271 31.93 91.2531 32.029 90.6371 32.029H87.7991ZM105.067 14.11V18.433V19.588C105.067 19.83 105.067 20.061 105.067 20.281C105.067 20.479 105.089 20.71 105.133 20.974C105.199 21.216 105.375 21.414 105.661 21.568C105.969 21.7 106.299 21.766 106.651 21.766C107.135 21.766 107.443 21.887 107.575 22.129C107.707 22.371 107.773 22.712 107.773 23.152V23.581C107.773 24.065 107.696 24.428 107.542 24.67C107.41 24.89 107.047 25 106.453 25H99.5229C98.9509 25 98.5659 24.89 98.3679 24.67C98.2359 24.428 98.1699 24.065 98.1699 23.581V23.152C98.1699 22.668 98.2249 22.316 98.3349 22.096C98.4449 21.876 98.7749 21.766 99.3249 21.766C99.6329 21.766 99.9299 21.7 100.216 21.568C100.502 21.436 100.689 21.194 100.777 20.842C100.887 20.468 100.942 19.962 100.942 19.324V18.433V7.345V6.256C100.942 5.728 100.909 5.299 100.843 4.969C100.799 4.639 100.634 4.419 100.348 4.309C100.062 4.177 99.7209 4.089 99.3249 4.045C98.7969 4.045 98.4779 3.946 98.3679 3.748C98.2799 3.55 98.2249 3.396 98.2029 3.286C98.1809 3.176 98.1699 2.967 98.1699 2.659V2.23C98.1699 1.746 98.2359 1.383 98.3679 1.141C98.4999 0.898999 98.8849 0.777999 99.5229 0.777999H106.453C107.047 0.777999 107.41 0.898999 107.542 1.141C107.696 1.383 107.773 1.746 107.773 2.23V2.659C107.773 3.143 107.718 3.495 107.608 3.715C107.498 3.935 107.179 4.045 106.651 4.045C106.343 4.045 106.057 4.1 105.793 4.21C105.529 4.32 105.331 4.584 105.199 5.002L105.067 6.553V7.345V10.645H115.231V7.345V6.487C115.231 5.783 115.176 5.277 115.066 4.969C115 4.639 114.824 4.408 114.538 4.276C114.252 4.122 113.933 4.045 113.581 4.045C113.097 4.045 112.778 3.924 112.624 3.682C112.558 3.528 112.514 3.396 112.492 3.286C112.47 3.176 112.459 2.967 112.459 2.659V2.23C112.459 1.746 112.525 1.383 112.657 1.141C112.789 0.898999 113.163 0.777999 113.779 0.777999H120.676C121.27 0.777999 121.644 0.898999 121.798 1.141C121.952 1.383 122.029 1.746 122.029 2.23V2.659C122.029 3.143 121.974 3.495 121.864 3.715C121.754 3.935 121.435 4.045 120.907 4.045C120.599 4.045 120.313 4.1 120.049 4.21C119.785 4.32 119.587 4.584 119.455 5.002L119.323 6.553V7.345V18.433V19.588C119.323 19.83 119.323 20.061 119.323 20.281C119.323 20.479 119.345 20.71 119.389 20.974C119.455 21.216 119.631 21.414 119.917 21.568C120.225 21.7 120.555 21.766 120.907 21.766C121.391 21.766 121.699 21.887 121.831 22.129C121.963 22.371 122.029 22.712 122.029 23.152V23.581C122.029 24.153 121.919 24.538 121.699 24.736C121.501 24.912 121.16 25 120.676 25H113.779C113.185 25 112.811 24.89 112.657 24.67C112.525 24.428 112.459 24.065 112.459 23.581V23.152C112.459 22.668 112.514 22.316 112.624 22.096C112.734 21.876 113.053 21.766 113.581 21.766C113.889 21.766 114.175 21.711 114.439 21.601C114.725 21.469 114.923 21.227 115.033 20.875C115.165 20.501 115.231 19.984 115.231 19.324V18.433V14.11H105.067ZM129.752 8.698L131.039 8.599C132.095 8.599 133.14 8.808 134.174 9.226C135.208 9.622 136.088 10.238 136.814 11.074C137.562 11.91 138.123 12.856 138.497 13.912C138.871 14.968 139.058 15.991 139.058 16.981C139.058 17.685 139.025 18.213 138.959 18.565C138.893 18.895 138.827 19.17 138.761 19.39C138.717 19.588 138.618 19.907 138.464 20.347C138.266 21.117 137.76 21.931 136.946 22.789C136.154 23.625 135.164 24.241 133.976 24.637C132.81 25.011 131.765 25.198 130.841 25.198C129.895 25.198 129.026 25.077 128.234 24.835C127.794 24.681 127.376 24.505 126.98 24.307C126.606 24.087 126.166 23.779 125.66 23.383C124.758 22.657 124.065 21.722 123.581 20.578C123.361 20.028 123.185 19.445 123.053 18.829C122.921 18.191 122.855 17.542 122.855 16.882L122.954 15.133C123.02 14.407 123.383 13.483 124.043 12.361C124.703 11.217 125.649 10.326 126.881 9.688C128.113 9.028 129.07 8.698 129.752 8.698ZM128.498 12.064C127.772 12.592 127.31 13.208 127.112 13.912C126.936 14.594 126.848 15.441 126.848 16.453C126.848 17.355 127.079 18.356 127.541 19.456C128.025 20.556 128.641 21.337 129.389 21.799C130.159 22.261 130.83 22.492 131.402 22.492L132.095 22.459L133.052 22.063C133.514 21.821 133.91 21.414 134.24 20.842C134.57 20.248 134.79 19.665 134.9 19.093L134.999 17.971C134.999 16.959 134.823 15.925 134.471 14.869C134.141 13.813 133.69 13.065 133.118 12.625C132.634 12.207 132.161 11.888 131.699 11.668C131.501 11.58 131.303 11.514 131.105 11.47C130.929 11.426 130.72 11.404 130.478 11.404C130.192 11.404 129.906 11.448 129.62 11.536L128.993 11.734C128.839 11.778 128.674 11.888 128.498 12.064ZM145.773 8.698C146.169 8.632 146.73 8.599 147.456 8.599C148.27 8.599 148.831 8.621 149.139 8.665C149.447 8.687 149.931 8.764 150.591 8.896C151.273 9.028 151.768 9.27 152.076 9.622C152.406 9.952 152.604 10.392 152.67 10.942L152.769 11.965L152.736 12.526C152.714 12.746 152.637 12.933 152.505 13.087C152.461 13.153 152.318 13.241 152.076 13.351L151.614 13.45L151.086 13.483C150.668 13.483 150.36 13.461 150.162 13.417L149.601 13.186L149.172 12.856L148.545 12.229C148.347 11.987 148.083 11.767 147.753 11.569C147.423 11.371 146.928 11.272 146.268 11.272C145.564 11.272 145.058 11.47 144.75 11.866C144.552 12.196 144.431 12.515 144.387 12.823L144.585 13.516C144.717 13.846 145.058 14.154 145.608 14.44C145.762 14.506 146.07 14.627 146.532 14.803C146.994 14.957 147.412 15.089 147.786 15.199L148.743 15.463C150.151 15.815 151.207 16.233 151.911 16.717C152.681 17.179 153.143 17.773 153.297 18.499C153.319 18.609 153.363 18.873 153.429 19.291C153.517 19.709 153.561 19.973 153.561 20.083C153.561 20.655 153.44 21.238 153.198 21.832C152.956 22.404 152.527 22.965 151.911 23.515C151.317 24.043 150.481 24.461 149.403 24.769C148.325 25.055 147.291 25.198 146.301 25.198L144.552 25.099C144.354 25.077 144.09 25.033 143.76 24.967C143.452 24.901 143.133 24.824 142.803 24.736C142.165 24.538 141.56 24.307 140.988 24.043C140.504 23.779 140.229 23.471 140.163 23.119L140.097 22.294V21.832C140.097 21.238 140.108 20.864 140.13 20.71C140.174 20.534 140.284 20.369 140.46 20.215C140.658 20.039 141.032 19.951 141.582 19.951L142.011 19.984L142.737 20.083C143.089 20.127 143.386 20.248 143.628 20.446L144.783 21.601C145.179 21.953 145.707 22.239 146.367 22.459L147.159 22.525C147.621 22.525 148.006 22.481 148.314 22.393C148.622 22.283 148.897 22.085 149.139 21.799C149.381 21.491 149.502 21.15 149.502 20.776C149.502 20.644 149.447 20.402 149.337 20.05C149.227 19.698 148.952 19.423 148.512 19.225L146.202 18.466L145.311 18.235C143.947 17.861 142.869 17.443 142.077 16.981C141.307 16.519 140.845 15.969 140.691 15.331L140.427 14.143L140.394 13.516C140.394 12.988 140.482 12.46 140.658 11.932C140.856 11.382 141.23 10.876 141.78 10.414C142.242 9.952 142.836 9.567 143.562 9.259C143.87 9.149 144.189 9.05 144.519 8.962C144.871 8.874 145.289 8.786 145.773 8.698ZM160.634 9.358L162.086 8.698L162.515 8.599C162.691 8.599 162.823 8.577 162.911 8.533C163.153 8.533 163.307 8.566 163.373 8.632C163.461 8.698 163.56 8.841 163.67 9.061C163.692 9.105 163.714 9.204 163.736 9.358C163.78 9.49 163.802 9.699 163.802 9.985V10.579C163.802 10.909 163.725 11.162 163.571 11.338L162.614 11.998L160.634 13.153V18.07L160.667 20.248C160.667 21.018 160.821 21.48 161.129 21.634L161.789 21.931L162.218 21.964C162.46 21.964 162.647 21.942 162.779 21.898L163.34 21.733C163.538 21.667 163.703 21.667 163.835 21.733C164.297 21.975 164.528 22.426 164.528 23.086C164.528 23.592 164.231 23.988 163.637 24.274C163.065 24.56 162.46 24.791 161.822 24.967C161.492 25.033 161.184 25.088 160.898 25.132C160.634 25.176 160.37 25.198 160.106 25.198C159.358 25.198 158.72 25.033 158.192 24.703C157.686 24.351 157.334 23.845 157.136 23.185C157.07 22.833 157.015 22.47 156.971 22.096C156.927 21.722 156.905 21.304 156.905 20.842V20.05V14.176L156.179 14.473L155.519 14.605C155.299 14.605 155.112 14.539 154.958 14.407C154.826 14.275 154.76 13.835 154.76 13.087V12.724C154.76 12.152 154.826 11.789 154.958 11.635C155.09 11.481 155.508 11.217 156.212 10.843L156.905 10.513V7.015C156.905 6.333 156.916 5.915 156.938 5.761C156.982 5.607 157.312 5.365 157.928 5.035C158.566 4.683 159.017 4.463 159.281 4.375C159.545 4.287 159.754 4.243 159.908 4.243C160.04 4.243 160.139 4.254 160.205 4.276C160.359 4.408 160.469 4.595 160.535 4.837C160.601 5.079 160.634 5.431 160.634 5.893V9.358Z" fill="#0069FF"/>
</svg>
