<svg width="50" height="50" viewBox="0 0 50 50" fill="none" xmlns="http://www.w3.org/2000/svg">
<circle opacity="0.16" cx="25" cy="25" r="25" fill="#56CCF2"/>
<path d="M35.4211 32.3263L34.5789 37.6316C34.5789 39.4842 30.2842 41 25.3158 41C20.3474 41 16.0526 39.4842 16.0526 37.6316L15.2105 32.3263C15.1263 31.9895 15.4632 31.6526 15.8842 31.8211C18.4105 32.9158 21.9474 33.4211 25.3158 33.4211C28.6842 33.4211 32.2211 32.9158 34.7474 31.8211C35.0842 31.6526 35.5053 31.9895 35.4211 32.3263ZM39.6316 13.2105C39.6316 13.3789 39.6316 13.4632 39.5474 13.6316L37.1053 27.5263C37.1053 29.8842 31.8842 31.7368 25.4 31.7368C18.9158 31.7368 13.5263 29.8842 13.5263 27.5263L11.0842 13.6316C11 13.4632 11 13.3789 11 13.2105C11 10.8526 17.4 9 25.3158 9C33.2316 9 39.6316 10.8526 39.6316 13.2105ZM29.5263 24.1579C29.5263 21.8 27.6737 19.9474 25.3158 19.9474C22.9579 19.9474 21.1053 21.8 21.1053 24.1579C21.1053 26.5158 22.9579 28.3684 25.3158 28.3684C27.6737 28.3684 29.5263 26.5158 29.5263 24.1579ZM35.2526 13.2105C35.2526 11.7789 30.7895 10.6842 25.3158 10.6842C19.8421 10.6842 15.3789 11.7789 15.3789 13.2105C15.3789 14.6421 19.8421 15.7368 25.3158 15.7368C30.7895 15.7368 35.2526 14.6421 35.2526 13.2105ZM25.3158 25.8421C26.2421 25.8421 27 25.0842 27 24.1579C27 23.2316 26.2421 22.4737 25.3158 22.4737C24.3895 22.4737 23.6316 23.2316 23.6316 24.1579C23.6316 25.0842 24.3895 25.8421 25.3158 25.8421Z" fill="#2196F3"/>
</svg>
