<svg width="50" height="50" viewBox="0 0 50 50" fill="none" xmlns="http://www.w3.org/2000/svg">
<circle opacity="0.16" cx="25" cy="25" r="25" fill="#56CCF2"/>
<path d="M41.6545 22.8437C41.5596 22.7692 40.6722 22.1083 38.8003 22.1083C38.3058 22.1105 37.8128 22.1521 37.3257 22.2332C36.9634 19.7835 34.9746 18.6325 34.8826 18.5791L34.3801 18.2928L34.0493 18.7632C33.6352 19.3957 33.2692 20.0486 33.0918 20.7812C32.7565 22.1798 32.9603 23.493 33.6804 24.6156C32.8098 25.094 31.3265 25.1363 31.0446 25.1466H8.09802C7.49474 25.1473 7.0054 25.6286 7.00175 26.2231C6.97472 28.2192 7.25957 30.2788 7.9556 32.1529C8.75097 34.2111 9.93488 35.7273 11.4745 36.6549C13.1996 37.6971 16.0027 38.2931 19.1805 38.2931C20.6157 38.2975 22.0487 38.1697 23.4597 37.9104C25.4215 37.5547 27.3095 36.8784 29.0448 35.9092C30.4749 35.0919 31.7618 34.0526 32.8566 32.8307C34.6861 30.7872 35.7759 28.5121 36.5866 26.4897C36.6954 26.4897 36.8042 26.4897 36.9094 26.4897C38.9128 26.4897 40.1441 25.6987 40.8234 25.0363C41.2747 24.6134 41.6275 24.0985 41.8561 23.5281L42 23.1132L41.6545 22.8437Z" fill="#2395EC"/>
<path d="M12.7852 24.4161H10.5941C10.191 24.4161 9.86377 24.0889 9.86377 23.6857V21.4946C9.86377 21.0915 10.191 20.7643 10.5941 20.7643H12.7852C13.1884 20.7643 13.5156 21.0915 13.5156 21.4946V23.6857C13.5156 24.0889 13.1884 24.4161 12.7852 24.4161Z" fill="#2395EC"/>
<path d="M17.1675 24.4161H14.9765C14.5733 24.4161 14.2461 24.0889 14.2461 23.6857V21.4946C14.2461 21.0915 14.5733 20.7643 14.9765 20.7643H17.1675C17.5707 20.7643 17.8979 21.0915 17.8979 21.4946V23.6857C17.8979 24.0889 17.5707 24.4161 17.1675 24.4161Z" fill="#2395EC"/>
<path d="M21.5499 24.4161H19.3588C18.9556 24.4161 18.6284 24.0889 18.6284 23.6857V21.4946C18.6284 21.0915 18.9556 20.7643 19.3588 20.7643H21.5499C21.953 20.7643 22.2802 21.0915 22.2802 21.4946V23.6857C22.2802 24.0889 21.953 24.4161 21.5499 24.4161Z" fill="#2395EC"/>
<path d="M25.9322 24.4161H23.7411C23.3379 24.4161 23.0107 24.0889 23.0107 23.6857V21.4946C23.0107 21.0915 23.3379 20.7643 23.7411 20.7643H25.9322C26.3354 20.7643 26.6626 21.0915 26.6626 21.4946V23.6857C26.6626 24.0889 26.3354 24.4161 25.9322 24.4161Z" fill="#2395EC"/>
<path d="M17.1675 20.034H14.9765C14.5733 20.034 14.2461 19.7068 14.2461 19.3037V17.1126C14.2461 16.7094 14.5733 16.3822 14.9765 16.3822H17.1675C17.5707 16.3822 17.8979 16.7094 17.8979 17.1126V19.3037C17.8979 19.7068 17.5707 20.034 17.1675 20.034Z" fill="#2395EC"/>
<path d="M21.5499 20.034H19.3588C18.9556 20.034 18.6284 19.7068 18.6284 19.3037V17.1126C18.6284 16.7094 18.9556 16.3822 19.3588 16.3822H21.5499C21.953 16.3822 22.2802 16.7094 22.2802 17.1126V19.3037C22.2802 19.7068 21.953 20.034 21.5499 20.034Z" fill="#2395EC"/>
<path d="M25.9322 20.034H23.7411C23.3379 20.034 23.0107 19.7068 23.0107 19.3037V17.1126C23.0107 16.7094 23.3379 16.3822 23.7411 16.3822H25.9322C26.3354 16.3822 26.6626 16.7094 26.6626 17.1126V19.3037C26.6626 19.7068 26.3354 20.034 25.9322 20.034Z" fill="#2395EC"/>
<path d="M25.9322 15.6518H23.7411C23.3379 15.6518 23.0107 15.3246 23.0107 14.9215V12.7304C23.0107 12.3272 23.3379 12 23.7411 12H25.9322C26.3354 12 26.6626 12.3272 26.6626 12.7304V14.9215C26.6626 15.3246 26.3354 15.6518 25.9322 15.6518Z" fill="#2395EC"/>
<path d="M30.3145 24.4161H28.1234C27.7203 24.4161 27.3931 24.0889 27.3931 23.6857V21.4946C27.3931 21.0915 27.7203 20.7643 28.1234 20.7643H30.3145C30.7177 20.7643 31.0449 21.0915 31.0449 21.4946V23.6857C31.0449 24.0889 30.7177 24.4161 30.3145 24.4161Z" fill="#2395EC"/>
</svg>
