<svg width="1627" height="917" viewBox="0 0 1627 917" fill="none" xmlns="http://www.w3.org/2000/svg">
<path opacity="0.07" d="M1467.92 397.258H828.84C828.65 396.828 828.45 396.398 828.26 395.958C825.7 390.128 823.32 383.858 821.14 377.258C810.33 344.518 804.47 303.648 805.33 268.338C805.65 254.798 807.43 240.868 814.14 229.108C820.85 217.338 833.41 208.138 846.94 208.688C858.82 209.168 869.56 216.808 881.44 217.128C899.31 217.608 913.66 201.148 918.53 183.948C923.4 166.758 921.54 148.468 922.78 130.638C926.15 81.9981 955.11 35.1081 998.67 13.1781C1042.22 -8.74192 1099.02 -3.23192 1135.54 29.0781C1156.9 47.9681 1175.76 76.7681 1204.25 75.5281C1223.1 74.7081 1238.17 60.3281 1255.08 51.9581C1283.99 37.6581 1321.16 42.0581 1345.93 62.7181C1370.69 83.3881 1381.68 119.158 1372.79 150.168C1370.02 159.818 1365.52 168.968 1363.65 178.838C1361.78 188.708 1363.09 199.998 1370.36 206.928C1380.45 216.558 1396.54 213.828 1410.36 215.708C1434.52 218.998 1453.71 238.748 1463.26 261.188C1481.53 304.098 1467.92 397.258 1467.92 397.258Z" fill="#2D4059"/>
<path d="M1177.33 397.258H822.51C822.32 396.828 822.12 396.398 821.93 395.958C819.37 390.128 816.99 383.858 814.81 377.258C815.26 377.258 815.71 377.268 816.16 377.298C819.83 377.528 823.01 379.418 826.49 380.598C825.87 371.668 832.81 362.828 841.65 361.338C850.48 359.848 860.59 366.948 862.93 375.598C865.5 370.838 873.65 370.758 878.48 373.208C878.9 367.878 883.21 363.268 888.37 361.888C893.54 360.508 899.25 362.118 903.38 365.518C907.5 368.918 910.93 374.688 912.06 379.908C914.16 377.568 917.31 376.398 920.43 376.078C921.94 375.928 923.46 375.958 924.97 376.088C926.18 370.118 929.46 364.508 934.93 361.178C942.11 356.808 952.93 356.718 957.75 363.238C961.51 356.918 969.07 353.238 976.62 351.138C984.83 348.868 993.72 348.058 1002.01 350.098C1010.29 352.138 1018.86 359.278 1022.18 366.488C1020.05 360.258 1025.82 353.638 1032.64 351.678C1039.47 349.708 1048.5 353.178 1055.49 354.588C1056.84 345.818 1065.32 338.828 1074.78 336.838C1084.25 334.848 1094.33 337.218 1102.77 341.608C1111.21 345.988 1117.85 353.388 1124.6 359.758C1125.25 355.848 1129.34 352.928 1133.63 352.348C1137.92 351.758 1142.27 353.088 1146.06 355.018C1158.56 361.398 1166.24 374.858 1164.79 387.848C1165.76 388.008 1166.75 388.298 1167.72 388.688C1171.79 390.288 1175.65 393.648 1177.33 397.258Z" fill="#96D272"/>
<path d="M1134.12 386.348L1129.5 397.258H829.91C830.64 394.258 832.24 391.438 834.45 389.298C838.84 385.058 845.23 383.288 851.32 383.638C857.42 383.988 863.46 387.008 868.82 389.928C871.99 386.938 876.46 385.368 880.8 385.738C885.14 386.108 888.41 388.088 891.03 391.578C890.73 388.158 893.58 385.268 896.58 383.618C905.57 378.668 917.74 381.768 924.4 389.568C928.44 386.108 935.03 386.598 938.78 390.358C941.78 383.178 951.41 379.128 959.01 380.778C959.57 372.928 966.39 365.998 974.23 365.318C982.08 364.628 990.36 369.188 992.28 376.818C997.68 371.168 1006.71 370.098 1014.05 372.778C1021.39 375.458 1027.55 381.458 1031.96 387.908C1032.04 385.158 1033.56 382.488 1035.88 381.018C1038.21 379.548 1041.85 379.688 1044.36 380.798C1042.84 374.138 1044.11 366.708 1048.44 361.418C1052.77 356.128 1060.28 353.398 1066.81 355.418C1073.33 357.448 1078.5 363.098 1077.19 369.798C1079.19 366.798 1082.7 364.858 1086.3 364.758C1089.91 364.648 1093.29 367.638 1095.46 370.518C1097.9 364.908 1104.24 361.558 1110.35 361.768C1116.46 361.988 1122.19 365.348 1126.17 369.988C1130.16 374.628 1132.57 380.438 1134.12 386.348Z" fill="#50AA6E"/>
<path d="M1452.34 397.258H1166.55C1166.77 394.378 1167.16 391.518 1167.72 388.688C1170.86 372.628 1179.25 357.568 1191.53 346.708C1197.22 341.678 1204 337.408 1211.55 336.668C1219.1 335.928 1227.44 339.538 1230.39 346.538C1235.8 339.268 1246.34 335.848 1255.07 338.288C1263.8 340.718 1270.24 350.358 1268.04 359.148C1277.32 357.568 1287.96 361.098 1291.47 369.838C1293.65 362.918 1296.95 357.118 1302.89 352.968C1308.84 348.808 1316.68 347.148 1323.59 349.358C1330.5 351.578 1336.11 357.938 1336.66 365.178C1343.19 359.958 1350.04 353.968 1358.27 352.478C1366.5 350.998 1376.25 354.558 1379.07 362.428C1380.19 355.548 1385.68 348.908 1392.43 347.178C1399.17 345.448 1406.82 348.068 1411.11 353.558C1415.39 359.048 1416.06 367.098 1412.74 373.228C1422.27 368.988 1434.63 371.878 1442.6 378.598C1448.11 383.238 1451.58 390.118 1452.34 397.258Z" fill="#96D272"/>
<path d="M1451.34 397.258H1195.75C1194.38 389.718 1193.29 382.138 1192.49 374.508L1199.74 363.128C1203.12 356.818 1210.1 352.598 1217.26 352.528C1224.42 352.468 1231.47 356.558 1234.96 362.808C1238.29 361.078 1241.57 361.208 1244.92 362.898C1248.27 364.598 1250.72 367.958 1251.3 371.668C1259.27 366.308 1270.19 366.638 1279.36 369.478C1288.54 372.318 1296.27 379.478 1299.82 388.408C1303.73 385.518 1309.32 383.978 1313.95 385.458C1314.81 377.508 1321.24 368.538 1329.23 368.198C1337.23 367.848 1345.01 373.968 1346.56 381.818C1348.19 376.618 1355.02 373.688 1360.48 373.838C1365.93 373.998 1371.04 378.088 1372.38 383.378C1378.66 375.638 1389.77 372.528 1399.67 373.618C1409.58 374.718 1418.74 381.118 1423.18 390.048C1430.68 384.518 1439.82 383.558 1446.59 389.968C1448.73 391.998 1450.32 394.518 1451.34 397.258Z" fill="#50AA6E"/>
<path d="M1460.54 370.348C1450.3 385.128 1439.62 397.258 1439.62 397.258H1376.97C1376.97 397.258 1327.13 324.218 1350.4 308.908C1365.5 298.968 1396.52 374.388 1396.52 374.388C1396.52 374.388 1393.69 299.138 1408.35 266.338V266.328C1412.78 256.428 1418.79 250.398 1426.96 251.468C1450.38 254.548 1440.75 308.328 1431.67 344.028C1427.2 361.588 1422.86 374.778 1422.66 375.398C1423.07 374.568 1436.34 347.928 1450.69 331.598C1450.69 331.598 1450.7 331.598 1450.7 331.588C1459.33 321.758 1468.35 315.658 1475.2 321.148C1485.42 329.348 1473.32 351.908 1460.54 370.348Z" fill="#13387E"/>
<path d="M1460.54 370.348C1467.33 353.878 1474.9 331.918 1469.26 327.228C1464.72 323.458 1457.2 326.998 1450.7 331.588C1459.33 321.758 1468.35 315.658 1475.2 321.148C1485.42 329.348 1473.32 351.908 1460.54 370.348Z" fill="#0069FF"/>
<path d="M1431.67 344.028C1434.47 319.038 1439.03 263.408 1424.82 259.948C1418.1 258.318 1412.62 261.558 1408.35 266.328C1412.78 256.428 1418.79 250.398 1426.96 251.468C1450.38 254.548 1440.75 308.328 1431.67 344.028Z" fill="#0069FF"/>
<path d="M1417.78 291.948C1412.19 326.098 1406.6 362.128 1401.01 396.278" stroke="#0069FF" stroke-miterlimit="10" stroke-linecap="round" stroke-linejoin="round"/>
<path d="M1354.87 330.248C1367.34 350.618 1380.95 374.668 1391.14 396.268" stroke="#0069FF" stroke-miterlimit="10" stroke-linecap="round" stroke-linejoin="round"/>
<path d="M1464.58 340.588C1451.16 358.358 1435.31 379.218 1421.9 396.998" stroke="#0069FF" stroke-miterlimit="10" stroke-linecap="round" stroke-linejoin="round"/>
<path d="M884.26 397.258L846.6 397.188C846.6 397.188 837.69 391.808 827.57 383.758C827.57 383.758 827.57 383.758 827.56 383.748C812.23 371.568 794.14 353.278 800.2 338.398C804.22 328.528 813.64 333.158 823.5 342.278C838 355.698 853.47 378.828 854.14 379.838C853.92 379.318 850.52 371.508 846.1 360.218C833.21 327.258 811.59 264.598 834.65 266.888C839.76 267.388 844.19 270.528 848.02 275.418C867.64 300.428 871.68 371.398 871.68 371.398C871.68 371.398 885.06 316.328 904.08 321.428C919.12 325.468 884.26 397.258 884.26 397.258Z" fill="#13387E"/>
<path d="M846.1 360.218C833.21 327.258 811.59 264.598 834.65 266.888C839.76 267.388 844.19 270.528 848.02 275.418C843.61 273.368 839.38 268.988 831.97 275.698C821.16 285.488 848.21 360.678 846.1 360.218Z" fill="#0069FF"/>
<path d="M827.56 383.748C812.23 371.568 794.14 353.278 800.2 338.398C804.22 328.528 813.64 333.158 823.5 342.278C816.57 338.128 808.34 333.038 803.88 341.538C797.51 353.678 816.34 370.038 827.56 383.748Z" fill="#0069FF"/>
<path d="M846.83 304.868C855.53 334.968 862.28 366.248 864.43 396.448" stroke="#0069FF" stroke-miterlimit="10" stroke-linecap="round" stroke-linejoin="round"/>
<path d="M894.33 347.908C885.59 364.288 876.86 380.068 868.12 396.448" stroke="#0069FF" stroke-miterlimit="10" stroke-linecap="round" stroke-linejoin="round"/>
<path d="M817.81 354.868C831.77 369.198 845.17 382.118 859.14 396.448" stroke="#0069FF" stroke-miterlimit="10" stroke-linecap="round" stroke-linejoin="round"/>
<path opacity="0.1" d="M351 477.044C151.5 460.544 59 526.044 0 572.544V916.544H1627V415.68C1627 415.68 1518.87 374.992 1489.5 378.612C1241.5 409.18 1291.5 394.612 1138 378.612C961.614 360.226 935.5 435.612 683.5 354.112C431.5 272.612 550.5 493.544 351 477.044Z" fill="#677694"/>
<path d="M1218.19 381.148H1111.84L1101.75 314.788H1208.1L1218.19 381.148Z" fill="#2D4059"/>
<path d="M1201.51 381.148H1111.84L1101.75 314.788H1191.42L1201.51 381.148Z" fill="#2D4059"/>
<path d="M1261.44 397.258H1058.5C1058.5 391.488 1060.84 386.268 1064.62 382.488C1068.39 378.698 1073.62 376.368 1079.38 376.368H1240.54C1252.08 376.368 1261.44 385.718 1261.44 397.258Z" fill="#2D4059"/>
<path d="M1230.42 397.258H1058.5C1058.5 391.488 1060.84 386.268 1064.62 382.488C1068.39 378.698 1073.62 376.368 1079.38 376.368H1209.54C1221.08 376.368 1230.42 385.718 1230.42 397.258Z" fill="#2D4059"/>
<path d="M1331.38 328.828H974.43C961.24 328.828 951.76 318.138 953.26 304.948L975.97 105.458C977.47 92.2681 989.38 81.5781 1002.58 81.5781H1359.53C1372.72 81.5781 1382.2 92.2681 1380.7 105.458L1357.99 304.948C1356.49 318.138 1344.58 328.828 1331.38 328.828Z" fill="#2D4059"/>
<path d="M1317.36 328.828H960.41C947.22 328.828 937.74 318.138 939.24 304.948L961.95 105.458C963.45 92.2681 975.37 81.5781 988.56 81.5781H1345.5C1358.69 81.5781 1368.17 92.2681 1366.67 105.458L1343.96 304.948C1342.46 318.138 1330.55 328.828 1317.36 328.828Z" fill="#13387E"/>
<path d="M1349.41 118.388C1349.4 118.758 1349.36 119.118 1349.32 119.498L1339.93 201.958L1329.81 290.908C1328.31 304.098 1316.4 314.788 1303.2 314.788H977.76C964.57 314.788 955.09 304.098 956.59 290.908L963.52 230.038L976.1 119.498C976.15 119.128 976.19 118.758 976.25 118.388C978.27 105.708 989.88 95.6081 1002.71 95.6081H1328.15C1340.97 95.6081 1350.28 105.708 1349.41 118.388Z" fill="#E6F1F4"/>
<path d="M1349.41 118.388H976.25C978.27 105.708 989.88 95.6081 1002.71 95.6081H1328.15C1340.97 95.6081 1350.28 105.708 1349.41 118.388Z" fill="#CDD9EF"/>
<path d="M1327.78 112.408C1330.13 112.408 1332.03 110.505 1332.03 108.158C1332.03 105.811 1330.13 103.908 1327.78 103.908C1325.43 103.908 1323.53 105.811 1323.53 108.158C1323.53 110.505 1325.43 112.408 1327.78 112.408Z" fill="#F27D6B"/>
<path d="M1311.48 112.408C1313.83 112.408 1315.73 110.505 1315.73 108.158C1315.73 105.811 1313.83 103.908 1311.48 103.908C1309.13 103.908 1307.23 105.811 1307.23 108.158C1307.23 110.505 1309.13 112.408 1311.48 112.408Z" fill="#EFC71B"/>
<path d="M1294.77 112.408C1297.12 112.408 1299.02 110.505 1299.02 108.158C1299.02 105.811 1297.12 103.908 1294.77 103.908C1292.42 103.908 1290.52 105.811 1290.52 108.158C1290.52 110.505 1292.42 112.408 1294.77 112.408Z" fill="#4ECE82"/>
<path d="M1316.25 139.088H1267.24C1266.63 139.088 1266.2 138.538 1266.29 137.868L1266.33 137.538C1266.41 136.858 1266.98 136.318 1267.59 136.318H1316.6C1317.21 136.318 1317.64 136.868 1317.55 137.538L1317.51 137.868C1317.43 138.538 1316.86 139.088 1316.25 139.088Z" fill="#507399"/>
<path d="M1324.66 145.938H1266.4C1265.79 145.938 1265.36 145.388 1265.45 144.718L1265.49 144.388C1265.57 143.708 1266.14 143.168 1266.75 143.168H1325.02C1325.63 143.168 1326.06 143.718 1325.97 144.388L1325.93 144.718C1325.84 145.398 1325.27 145.938 1324.66 145.938Z" fill="#507399"/>
<path d="M1323.82 152.798H1265.55C1264.94 152.798 1264.51 152.248 1264.6 151.578L1264.64 151.248C1264.72 150.568 1265.29 150.028 1265.9 150.028H1324.17C1324.78 150.028 1325.21 150.578 1325.12 151.248L1325.08 151.578C1324.99 152.248 1324.43 152.798 1323.82 152.798Z" fill="#507399"/>
<path d="M1322.97 159.658H1264.7C1264.09 159.658 1263.66 159.108 1263.75 158.438L1263.79 158.108C1263.87 157.428 1264.44 156.888 1265.05 156.888H1323.32C1323.93 156.888 1324.36 157.438 1324.27 158.108L1324.23 158.438C1324.14 159.108 1323.58 159.658 1322.97 159.658Z" fill="#507399"/>
<path d="M1322.12 166.508H1263.85C1263.24 166.508 1262.81 165.958 1262.9 165.288L1262.94 164.958C1263.02 164.278 1263.59 163.738 1264.2 163.738H1322.47C1323.08 163.738 1323.51 164.288 1323.42 164.958L1323.38 165.288C1323.29 165.958 1322.73 166.508 1322.12 166.508Z" fill="#507399"/>
<path d="M1321.27 173.368H1263C1262.39 173.368 1261.96 172.818 1262.05 172.148L1262.09 171.818C1262.17 171.138 1262.74 170.598 1263.35 170.598H1321.62C1322.23 170.598 1322.66 171.148 1322.57 171.818L1322.53 172.148C1322.44 172.818 1321.88 173.368 1321.27 173.368Z" fill="#507399"/>
<path d="M1320.42 180.218H1262.15C1261.54 180.218 1261.11 179.668 1261.2 178.998L1261.24 178.668C1261.32 177.988 1261.89 177.448 1262.5 177.448H1320.77C1321.38 177.448 1321.81 177.998 1321.72 178.668L1321.68 178.998C1321.6 179.668 1321.03 180.218 1320.42 180.218Z" fill="#507399"/>
<path d="M1309.61 192.788H1260.6C1259.99 192.788 1259.56 192.238 1259.65 191.568L1259.69 191.238C1259.77 190.558 1260.34 190.018 1260.95 190.018H1309.96C1310.57 190.018 1311 190.568 1310.91 191.238L1310.87 191.568C1310.78 192.238 1310.22 192.788 1309.61 192.788Z" fill="#507399"/>
<path d="M1318.02 199.648H1259.75C1259.14 199.648 1258.71 199.098 1258.8 198.428L1258.84 198.098C1258.92 197.418 1259.49 196.878 1260.1 196.878H1318.37C1318.98 196.878 1319.41 197.428 1319.32 198.098L1319.28 198.428C1319.19 199.098 1318.63 199.648 1318.02 199.648Z" fill="#507399"/>
<path d="M1317.17 206.498H1258.9C1258.29 206.498 1257.86 205.948 1257.95 205.278L1257.99 204.948C1258.07 204.268 1258.64 203.728 1259.25 203.728H1317.52C1318.13 203.728 1318.56 204.278 1318.47 204.948L1318.43 205.278C1318.34 205.948 1317.78 206.498 1317.17 206.498Z" fill="#507399"/>
<path d="M1316.32 213.358H1258.05C1257.44 213.358 1257.01 212.808 1257.1 212.138L1257.14 211.808C1257.22 211.128 1257.79 210.588 1258.4 210.588H1316.67C1317.28 210.588 1317.71 211.138 1317.62 211.808L1317.58 212.138C1317.5 212.808 1316.93 213.358 1316.32 213.358Z" fill="#507399"/>
<path d="M1315.48 220.208H1257.21C1256.6 220.208 1256.17 219.658 1256.26 218.988L1256.3 218.658C1256.38 217.978 1256.95 217.438 1257.56 217.438H1315.83C1316.44 217.438 1316.87 217.988 1316.78 218.658L1316.74 218.988C1316.65 219.658 1316.09 220.208 1315.48 220.208Z" fill="#507399"/>
<path d="M1314.63 227.068H1256.36C1255.75 227.068 1255.32 226.518 1255.41 225.848L1255.45 225.518C1255.53 224.838 1256.1 224.298 1256.71 224.298H1314.98C1315.59 224.298 1316.02 224.848 1315.93 225.518L1315.89 225.848C1315.8 226.518 1315.24 227.068 1314.63 227.068Z" fill="#507399"/>
<path d="M1313.78 233.918H1255.51C1254.9 233.918 1254.47 233.368 1254.56 232.698L1254.6 232.368C1254.68 231.688 1255.25 231.148 1255.86 231.148H1314.13C1314.74 231.148 1315.17 231.698 1315.08 232.368L1315.04 232.698C1314.95 233.368 1314.39 233.918 1313.78 233.918Z" fill="#507399"/>
<path d="M1034.93 150.838H985.801C985.191 150.838 984.761 150.288 984.841 149.618L984.881 149.288C984.961 148.608 985.531 148.068 986.141 148.068H1035.27C1035.88 148.068 1036.31 148.618 1036.23 149.288L1036.19 149.618C1036.1 150.288 1035.54 150.838 1034.93 150.838Z" fill="#507399"/>
<path d="M1043.36 157.688H984.951C984.341 157.688 983.911 157.138 983.991 156.468L984.031 156.138C984.111 155.458 984.681 154.918 985.291 154.918H1043.7C1044.31 154.918 1044.74 155.468 1044.66 156.138L1044.62 156.468C1044.53 157.148 1043.97 157.688 1043.36 157.688Z" fill="#507399"/>
<path d="M1042.51 164.548H984.1C983.49 164.548 983.06 163.998 983.14 163.328L983.18 162.998C983.26 162.318 983.83 161.778 984.44 161.778H1042.85C1043.46 161.778 1043.89 162.328 1043.81 162.998L1043.77 163.328C1043.68 163.998 1043.12 164.548 1042.51 164.548Z" fill="#507399"/>
<path d="M1041.66 171.398H983.25C982.64 171.398 982.21 170.848 982.29 170.178L982.33 169.848C982.41 169.168 982.98 168.628 983.59 168.628H1042C1042.61 168.628 1043.04 169.178 1042.96 169.848L1042.92 170.178C1042.83 170.858 1042.27 171.398 1041.66 171.398Z" fill="#507399"/>
<path d="M1040.81 178.258H982.401C981.791 178.258 981.361 177.708 981.441 177.038L981.481 176.708C981.561 176.028 982.131 175.488 982.741 175.488H1041.15C1041.76 175.488 1042.19 176.038 1042.11 176.708L1042.07 177.038C1041.98 177.708 1041.42 178.258 1040.81 178.258Z" fill="#507399"/>
<path d="M1039.96 185.108H981.551C980.941 185.108 980.511 184.558 980.591 183.888L980.631 183.558C980.711 182.878 981.281 182.338 981.891 182.338H1040.3C1040.91 182.338 1041.34 182.888 1041.26 183.558L1041.22 183.888C1041.13 184.568 1040.57 185.108 1039.96 185.108Z" fill="#507399"/>
<path d="M1039.11 191.968H980.701C980.091 191.968 979.661 191.418 979.741 190.748L979.781 190.418C979.861 189.738 980.431 189.198 981.041 189.198H1039.45C1040.06 189.198 1040.49 189.748 1040.41 190.418L1040.37 190.748C1040.28 191.418 1039.72 191.968 1039.11 191.968Z" fill="#507399"/>
<path d="M1028.27 204.538H979.14C978.53 204.538 978.1 203.988 978.18 203.318L978.22 202.988C978.3 202.308 978.87 201.768 979.48 201.768H1028.61C1029.22 201.768 1029.65 202.318 1029.57 202.988L1029.53 203.318C1029.44 203.988 1028.88 204.538 1028.27 204.538Z" fill="#507399"/>
<path d="M1036.7 211.388H978.29C977.68 211.388 977.25 210.838 977.33 210.168L977.37 209.838C977.45 209.158 978.02 208.618 978.63 208.618H1037.04C1037.65 208.618 1038.08 209.168 1038 209.838L1037.96 210.168C1037.87 210.848 1037.31 211.388 1036.7 211.388Z" fill="#507399"/>
<path d="M1035.85 218.248H977.44C976.83 218.248 976.4 217.698 976.48 217.028L976.52 216.698C976.6 216.018 977.17 215.478 977.78 215.478H1036.19C1036.8 215.478 1037.23 216.028 1037.15 216.698L1037.11 217.028C1037.02 217.698 1036.46 218.248 1035.85 218.248Z" fill="#507399"/>
<path d="M1035 225.098H976.59C975.98 225.098 975.55 224.548 975.63 223.878L975.67 223.548C975.75 222.868 976.32 222.328 976.93 222.328H1035.34C1035.95 222.328 1036.38 222.878 1036.3 223.548L1036.26 223.878C1036.17 224.558 1035.61 225.098 1035 225.098Z" fill="#507399"/>
<path d="M1034.15 231.958H975.741C975.131 231.958 974.701 231.408 974.781 230.738L974.821 230.408C974.901 229.728 975.471 229.188 976.081 229.188H1034.49C1035.1 229.188 1035.53 229.738 1035.45 230.408L1035.41 230.738C1035.32 231.408 1034.76 231.958 1034.15 231.958Z" fill="#507399"/>
<path d="M1033.3 238.818H974.89C974.28 238.818 973.85 238.268 973.93 237.598L973.97 237.268C974.05 236.588 974.62 236.048 975.23 236.048H1033.64C1034.25 236.048 1034.68 236.598 1034.6 237.268L1034.56 237.598C1034.47 238.268 1033.91 238.818 1033.3 238.818Z" fill="#507399"/>
<path d="M1032.45 245.668H974.04C973.43 245.668 973 245.118 973.08 244.448L973.12 244.118C973.2 243.438 973.77 242.898 974.38 242.898H1032.79C1033.4 242.898 1033.83 243.448 1033.75 244.118L1033.71 244.448C1033.62 245.118 1033.06 245.668 1032.45 245.668Z" fill="#507399"/>
<path d="M1161.51 173.758L1163.71 164.788L1154.19 162.448C1154.26 159.838 1153.85 157.288 1153.03 154.908L1161.42 149.828L1156.63 141.928L1148.25 147.008C1146.51 145.178 1144.44 143.628 1142.1 142.488L1144.44 132.968L1135.46 130.768L1133.12 140.288C1130.52 140.218 1127.97 140.628 1125.58 141.438L1120.5 133.058L1112.6 137.838L1117.68 146.228C1115.84 147.958 1114.3 150.038 1113.16 152.378L1103.64 150.038L1101.44 159.008L1110.96 161.348C1110.89 163.958 1111.3 166.498 1112.12 168.888L1103.73 173.958L1108.52 181.858L1116.91 176.788C1118.65 178.618 1120.72 180.158 1123.05 181.298L1120.71 190.818L1129.69 193.018L1132.03 183.498C1134.63 183.568 1137.18 183.158 1139.57 182.348L1144.65 190.728L1152.55 185.938L1147.47 177.558C1149.31 175.818 1150.85 173.748 1151.99 171.408L1161.51 173.758ZM1129.68 173.708C1123.15 172.108 1119.17 165.518 1120.78 158.998C1122.38 152.478 1128.96 148.488 1135.48 150.088C1142.01 151.688 1145.99 158.278 1144.39 164.798C1142.79 171.318 1136.21 175.308 1129.68 173.708Z" fill="#507399"/>
<path d="M1197.3 215.608L1200.03 208.918L1192.93 206.018C1193.28 204.008 1193.26 201.988 1192.89 200.048L1199.97 197.078L1197.17 190.418L1190.1 193.388C1188.96 191.768 1187.53 190.338 1185.86 189.188L1188.76 182.088L1182.06 179.358L1179.16 186.458C1177.16 186.108 1175.14 186.128 1173.19 186.488L1170.22 179.418L1163.56 182.218L1166.53 189.298C1164.91 190.428 1163.48 191.858 1162.33 193.538L1155.23 190.638L1152.5 197.328L1159.6 200.228C1159.25 202.238 1159.27 204.248 1159.64 206.198L1152.57 209.168L1155.37 215.828L1162.44 212.858C1163.57 214.468 1165 215.898 1166.68 217.058L1163.78 224.158L1170.48 226.888L1173.38 219.788C1175.39 220.138 1177.4 220.118 1179.35 219.758L1182.32 226.828L1188.98 224.028L1186 216.958C1187.62 215.818 1189.05 214.398 1190.21 212.718L1197.3 215.608ZM1172.67 211.938C1167.8 209.948 1165.47 204.398 1167.46 199.538C1169.44 194.678 1174.99 192.338 1179.86 194.328C1184.73 196.318 1187.06 201.868 1185.08 206.728C1183.09 211.588 1177.53 213.918 1172.67 211.938Z" fill="#507399"/>
<path d="M1227.27 180.538L1229.25 175.698L1224.11 173.598C1224.36 172.138 1224.35 170.678 1224.08 169.278L1229.2 167.128L1227.17 162.308L1222.06 164.458C1221.24 163.288 1220.2 162.248 1218.99 161.418L1221.09 156.278L1216.24 154.298L1214.14 159.438C1212.69 159.178 1211.23 159.198 1209.82 159.458L1207.67 154.348L1202.85 156.368L1205 161.488C1203.83 162.308 1202.79 163.338 1201.96 164.558L1196.82 162.458L1194.84 167.298L1199.98 169.398C1199.73 170.848 1199.74 172.308 1200.01 173.718L1194.89 175.868L1196.92 180.688L1202.04 178.538C1202.86 179.708 1203.89 180.738 1205.11 181.578L1203.01 186.718L1207.85 188.698L1209.95 183.558C1211.4 183.808 1212.86 183.798 1214.27 183.538L1216.42 188.648L1221.24 186.618L1219.09 181.498C1220.26 180.678 1221.3 179.648 1222.13 178.428L1227.27 180.538ZM1209.45 177.868C1205.93 176.428 1204.24 172.418 1205.68 168.888C1207.12 165.368 1211.13 163.678 1214.65 165.118C1218.17 166.558 1219.86 170.578 1218.43 174.088C1216.99 177.618 1212.97 179.308 1209.45 177.868Z" fill="#507399"/>
<path d="M1256.96 66.1981C1256.96 66.1981 1238.24 75.4181 1231.72 102.148C1218.49 156.318 1269.2 225.168 1212.88 255.148C1171.75 277.048 1192.88 181.078 1212.88 201.948C1231.22 221.078 1142.52 297.378 1086.96 263.748C1036.82 233.398 1062.92 168.068 1095.6 168.648" stroke="white" stroke-width="2" stroke-miterlimit="10" stroke-linecap="round" stroke-linejoin="round" stroke-dasharray="12 12"/>
<path d="M1263.64 75.0481L1314.49 27.2981L1266.68 56.6781L1263.64 75.0481Z" fill="#04C2F3"/>
<path d="M1255.15 46.3881C1257.67 45.5081 1314.49 27.2981 1314.49 27.2981L1282.6 67.0481L1255.15 46.3881Z" fill="#04C2F3"/>
<path d="M1314.49 27.2981L1269.43 57.1281L1265.53 54.1981L1314.49 27.2981Z" fill="#0069FF"/>
<path d="M1265.53 54.1981L1263.64 75.0481L1269.43 57.1281L1265.53 54.1981Z" fill="#0069FF"/>
<path d="M1339.49 204.468L1329.37 293.418C1327.87 306.598 1315.95 317.288 1302.76 317.288H1246.31C1246.06 316.928 1245.84 316.558 1245.63 316.188C1245.48 316.558 1245.33 316.928 1245.17 317.288H977.32C964.13 317.288 954.65 306.598 956.15 293.418L963.08 232.538C965.96 234.768 967.76 237.908 967.76 241.378C967.76 242.948 967.38 244.448 966.71 245.828C968.34 245.508 970.03 245.328 971.77 245.328C985.08 245.328 995.87 255.148 995.87 267.248C995.87 270.138 995.23 272.898 994.11 275.428C999.25 276.188 1004.03 277.598 1008.31 279.528C1013.07 266.358 1025.46 256.978 1039.99 256.978C1058.42 256.978 1073.37 272.048 1073.77 290.798C1074.68 290.718 1075.59 290.668 1076.53 290.668C1083.63 290.668 1090.03 293.128 1094.55 297.058C1096.13 292.298 1100.43 287.908 1105.39 285.278C1104.5 282.378 1104.02 279.298 1104.02 276.108C1104.02 258.868 1118 244.888 1135.25 244.888C1149.13 244.888 1160.9 253.948 1164.96 266.488C1180.18 265.348 1195.53 273.618 1199.62 284.668C1204.22 282.538 1209.51 281.328 1215.14 281.328C1216.08 281.328 1217 281.368 1217.93 281.438C1217.81 280.618 1217.75 279.798 1217.75 278.948C1217.75 264.188 1229.89 254.788 1245.04 254.788C1251.41 254.788 1257.4 258.718 1262.06 261.638C1267.36 254.088 1279.11 250.428 1288.94 253.688C1288.27 245.848 1297.73 237.758 1306.29 238.348C1301.4 236.348 1298.03 232.188 1298.03 227.378C1298.03 220.588 1304.67 215.108 1312.87 215.108C1317.2 215.108 1321.1 216.658 1323.81 219.118C1326.21 210.548 1332.19 204.458 1339.22 204.458C1339.32 204.458 1339.4 204.458 1339.49 204.468Z" fill="#F8FCFF"/>
<path d="M1084.96 231.138L1075.68 297.688L1011.77 294.358L1055.15 222.318L1084.96 231.138Z" fill="#F8FCFF"/>
<path d="M1080.24 238.818L1073.56 272.658" stroke="#DFE8EF" stroke-miterlimit="10" stroke-linecap="round" stroke-linejoin="round"/>
<path d="M1068.25 250.998L1061.81 280.168" stroke="#DFE8EF" stroke-miterlimit="10" stroke-linecap="round" stroke-linejoin="round"/>
<path d="M1061.81 244.278L1053.55 268.348" stroke="#DFE8EF" stroke-miterlimit="10" stroke-linecap="round" stroke-linejoin="round"/>
<path d="M1055.15 237.418L1038.01 268.348" stroke="#DFE8EF" stroke-miterlimit="10" stroke-linecap="round" stroke-linejoin="round"/>
<path d="M1047.31 222.318L1059.48 180.328L1022.34 214.398C1020.15 216.408 1021.39 220.058 1024.35 220.318L1047.31 222.318Z" fill="#41A639"/>
<path d="M1091.19 238.498L1109.2 198.658L1115.32 248.688C1115.68 251.638 1112.36 253.608 1109.94 251.888L1091.19 238.498Z" fill="#41A639"/>
<path d="M1044.71 229.288L1088.63 245.518L1101.58 219.068L1102.11 217.988L1124.26 172.728L1124.84 171.548L1128.79 163.478L1150.21 119.718C1154.75 109.668 1156.55 98.5881 1155.54 87.2781L1155.42 85.8881L1149.49 19.8781C1149.32 17.9681 1146.51 16.9281 1145.14 18.2781L1097.73 64.5881L1096.74 65.5581C1088.61 73.4981 1082.79 83.0981 1079.7 93.6781L1065.28 149.598L1064.95 150.858L1044.71 229.288Z" fill="#E5E5E5"/>
<path d="M1064.94 150.848C1073.76 148.198 1084.13 148.508 1094.53 151.858C1106.92 155.848 1117.7 163.518 1124.26 172.718L1124.84 171.538C1118.09 162.368 1107.28 154.758 1094.89 150.768C1084.53 147.428 1074.17 147.048 1065.27 149.578L1064.94 150.848Z" fill="#EAB328"/>
<path d="M1099.31 150.058C1099.37 150.608 1099.86 151.018 1100.42 150.958C1100.97 150.898 1101.38 150.408 1101.32 149.848C1101.26 149.298 1100.77 148.888 1100.21 148.948C1099.66 149.008 1099.25 149.508 1099.31 150.058Z" fill="#F9F09D"/>
<path d="M1082.08 146.178C1082.14 146.728 1082.63 147.138 1083.19 147.078C1083.74 147.018 1084.15 146.528 1084.09 145.968C1084.03 145.418 1083.54 145.008 1082.98 145.068C1082.42 145.128 1082.02 145.628 1082.08 146.178Z" fill="#F9F09D"/>
<path d="M1067.8 146.658C1067.86 147.208 1068.35 147.618 1068.91 147.558C1069.46 147.498 1069.87 147.008 1069.81 146.448C1069.75 145.898 1069.26 145.488 1068.7 145.548C1068.14 145.608 1067.74 146.108 1067.8 146.658Z" fill="#F9F09D"/>
<path d="M1112.83 156.918C1112.89 157.468 1113.38 157.878 1113.94 157.818C1114.49 157.758 1114.9 157.268 1114.84 156.708C1114.78 156.158 1114.29 155.748 1113.73 155.808C1113.18 155.868 1112.77 156.368 1112.83 156.918Z" fill="#F9F09D"/>
<path d="M1121.83 165.228C1121.89 165.778 1122.38 166.188 1122.94 166.128C1123.49 166.068 1123.9 165.578 1123.84 165.018C1123.78 164.468 1123.29 164.058 1122.73 164.118C1122.18 164.178 1121.77 164.668 1121.83 165.228Z" fill="#F9F09D"/>
<path d="M1097.73 64.5681C1118.51 67.4781 1137.74 74.5781 1155.42 85.8781L1149.5 19.8681C1149.33 17.9481 1146.52 16.9181 1145.14 18.2581L1097.73 64.5681Z" fill="#41A639"/>
<path d="M1041.97 234.968L1087.02 251.608C1088.39 252.118 1089.92 251.418 1090.43 250.038L1091.07 248.318C1091.58 246.948 1090.88 245.418 1089.5 244.908L1044.45 228.268C1043.08 227.758 1041.55 228.458 1041.04 229.838L1040.4 231.558C1039.89 232.938 1040.59 234.458 1041.97 234.968Z" fill="#41A639"/>
<path d="M1047.1 217.158L1094.7 234.738C1096.19 235.288 1097.84 234.528 1098.39 233.038L1098.87 231.738C1099.42 230.248 1098.66 228.598 1097.17 228.048L1049.57 210.468C1048.08 209.918 1046.43 210.678 1045.88 212.168L1045.4 213.468C1044.85 214.948 1045.61 216.608 1047.1 217.158Z" fill="#41A639"/>
<path d="M1131.67 118.316C1135.54 107.823 1129.89 96.0767 1119.05 92.0791C1108.21 88.0815 1096.29 93.3467 1092.42 103.839C1088.55 114.332 1094.2 126.079 1105.04 130.076C1115.88 134.074 1127.81 128.809 1131.67 118.316Z" fill="#F9F09D"/>
<path d="M1098.28 105.988C1095.47 113.608 1099.36 122.048 1106.98 124.858C1108.5 125.418 1110.06 125.718 1111.6 125.758C1112.88 125.798 1114.13 125.678 1115.34 125.398C1116.82 125.058 1118.24 124.498 1119.54 123.718C1122.35 122.048 1124.62 119.448 1125.84 116.158C1128.65 108.538 1124.76 100.098 1117.15 97.2881C1113.19 95.8281 1109 96.1881 1105.51 97.9281C1104.2 98.5781 1103 99.4181 1101.93 100.438C1101.05 101.278 1100.26 102.238 1099.59 103.308V103.318C1099.07 104.148 1098.63 105.038 1098.28 105.988Z" fill="#102351"/>
<path d="M1105.51 97.9281L1119.55 123.718C1122.36 122.048 1124.63 119.448 1125.85 116.158C1128.66 108.538 1124.77 100.098 1117.16 97.2881C1113.19 95.8281 1109 96.1781 1105.51 97.9281Z" fill="#1F4968"/>
<path d="M1099.59 103.298V103.308L1111.61 125.758C1112.89 125.798 1114.14 125.678 1115.35 125.398C1111.92 119.098 1104.55 105.328 1101.93 100.438C1101.04 101.278 1100.25 102.228 1099.59 103.298Z" fill="#1F4968"/>
<path opacity="0.29" d="M1144.79 22.4781C1143.07 21.1981 1096.17 67.9681 1090.49 82.3381C1083.22 100.738 1060.81 183.298 1055.33 203.598C1054.64 206.158 1056.01 208.818 1058.5 209.748L1074.98 215.868C1074.98 215.868 1062.16 207.208 1068.07 183.708C1073.98 160.208 1085.66 102.058 1095.89 84.6581C1112.89 55.7581 1145.88 23.2881 1144.79 22.4781Z" fill="#FCFAF2"/>
<path d="M971.11 396.778L970.05 396.978C968.23 397.308 966.49 396.108 966.16 394.298L955.34 335.508C955.01 333.688 956.21 331.948 958.02 331.618L959.08 331.418C960.9 331.088 962.64 332.288 962.97 334.098L973.79 392.888C974.12 394.708 972.92 396.448 971.11 396.778Z" fill="#4B3141"/>
<path d="M907.61 396.778L908.67 396.978C910.49 397.308 912.23 396.108 912.56 394.298L923.38 335.508C923.71 333.688 922.51 331.948 920.7 331.618L919.64 331.418C917.82 331.088 916.08 332.288 915.75 334.098L904.93 392.888C904.59 394.708 905.79 396.448 907.61 396.778Z" fill="#4B3141"/>
<path d="M939.59 398.828L938.53 399.028C936.71 399.358 934.97 398.158 934.64 396.348L923.82 337.558C923.49 335.738 924.69 333.998 926.5 333.668L927.56 333.468C929.38 333.138 931.12 334.338 931.45 336.148L942.27 394.938C942.61 396.758 941.41 398.498 939.59 398.828Z" fill="#66485E"/>
<path d="M876.09 398.828L877.15 399.028C878.97 399.358 880.71 398.158 881.04 396.348L891.86 337.558C892.19 335.738 890.99 333.998 889.18 333.668L888.12 333.468C886.3 333.138 884.56 334.338 884.23 336.148L873.41 394.938C873.07 396.758 874.28 398.498 876.09 398.828Z" fill="#66485E"/>
<path d="M860.25 269.708L904.17 268.348L942.52 320.968L972.63 327.448L973.76 345.688H929.01L884.55 337.288" fill="#ED4F57"/>
<path d="M855.71 277.478L875.26 341.358C876.05 343.928 878.42 345.688 881.11 345.688H930.19C933.57 345.688 936.31 342.948 936.31 339.568V338.478C936.31 335.088 933.56 332.348 930.17 332.358L890.02 332.508C887.33 332.518 884.94 330.768 884.15 328.188L867.42 273.878C866.48 270.838 863.37 269.018 860.26 269.698C856.76 270.478 854.67 274.058 855.71 277.478Z" fill="#FF6252"/>
<path d="M932.31 263.748L938.2 279.518L964.42 276.308V284.158C964.42 284.158 931.88 294.568 929.56 293.088C927.24 291.608 917.64 266.338 917.64 266.338L932.31 263.748Z" fill="#FCC495"/>
<path d="M913.15 252.298V237.118C913.15 237.118 920.76 238.228 924.5 243.248C928.24 248.268 935.27 265.848 934.84 266.108C934.41 266.368 917.01 270.808 917.01 270.808L913.15 252.298Z" fill="#F99569"/>
<path d="M1013.24 396.938H981.97C981.62 396.988 981.35 395.928 981.41 394.268C981.5 391.448 982.5 386.838 985.52 382.898C986.18 382.028 995.28 383.258 995.28 383.258L998.01 385.038C998.01 385.038 1010.52 387.218 1012.89 394.268C1013.13 395.098 1013.27 395.978 1013.24 396.938Z" fill="#102351"/>
<path d="M1013.24 396.938H981.97C981.62 396.988 981.35 395.928 981.41 394.268H1012.88C1013.13 395.098 1013.27 395.978 1013.24 396.938Z" fill="#406091"/>
<path d="M925.19 295.038C925.19 295.038 968.63 298.388 976.1 302.968C983.5 307.498 999 385.248 999 385.248C999 385.248 983.21 389.028 982.79 387.778C982.37 386.528 966.57 330.498 961.99 327.998C957.41 325.498 911.93 317.788 911.93 317.788L925.19 295.038Z" fill="#1F2D3D"/>
<path d="M978.52 396.938H947.25C946.9 396.988 946.63 395.928 946.69 394.268C946.78 391.448 947.78 386.838 950.8 382.898C951.46 382.028 960.55 383.258 960.55 383.258L963.28 385.038C963.28 385.038 975.79 387.218 978.16 394.268C978.42 395.098 978.56 395.978 978.52 396.938Z" fill="#2D4059"/>
<path d="M978.52 396.938H947.25C946.9 396.988 946.63 395.928 946.69 394.268H978.16C978.42 395.098 978.56 395.978 978.52 396.938Z" fill="#2D4059"/>
<path d="M963.29 385.038C957.61 387.058 952.5 387.938 947.95 387.758L937.33 330.878C937.33 330.878 898.44 332.988 890.22 328.218C883.07 324.058 881.14 312.548 880.96 304.188C880.86 299.568 881.17 296.208 881.17 296.208L887 285.678L887.59 284.608C887.59 284.608 888.44 284.588 889.88 284.558C898.16 284.408 926.15 284.458 927.24 291.608C927.39 292.618 927.43 293.618 927.38 294.578C926.95 301.548 922.7 305.728 922.7 305.728C922.7 305.728 948.05 304.878 953.78 309.398C957.89 312.658 963.29 385.038 963.29 385.038Z" fill="#2D4059"/>
<path d="M927.38 294.588C919.73 296.618 892.8 303.578 880.96 304.188C880.86 299.568 881.17 296.208 881.17 296.208L887 285.678L889.88 284.568C898.16 284.418 926.15 284.468 927.24 291.618C927.39 292.618 927.43 293.618 927.38 294.588Z" fill="#2D4059"/>
<path d="M927.82 294.788L879.97 301.978C879.97 301.978 875.41 277.428 873.23 261.758C872.37 255.648 871.88 250.888 872.17 249.458C873.76 241.478 886.72 238.918 898.61 237.288C910.51 235.678 918.49 237.378 920.23 240.538C924.09 247.508 926.05 265.888 926.99 279.328C927.64 288.128 927.82 294.788 927.82 294.788Z" fill="#F48859"/>
<path d="M885.99 240.028C885.99 240.028 900.16 251.528 902.98 250.928C905.8 250.338 906.34 238.258 906.34 238.258C906.34 238.258 905.51 238.078 904.67 237.308C903.67 236.378 902.64 234.598 902.98 231.228L890.04 224.318C890.04 224.318 890.31 228.008 889.84 231.988C889.39 235.768 888.65 238.668 885.99 240.028Z" fill="#FFE6A6"/>
<path d="M889.84 231.998C892.65 234.608 898.76 239.318 904.67 237.318C903.67 236.388 902.64 234.608 902.98 231.238L890.04 224.328C890.03 224.328 890.31 228.018 889.84 231.998Z" fill="#FCC495"/>
<path d="M920.01 216.348C921.04 218.528 919.24 221.538 916 223.068C912.76 224.598 909.3 224.068 908.27 221.888C907.24 219.708 909.04 216.698 912.28 215.168C915.52 213.638 918.98 214.168 920.01 216.348Z" fill="#FCC495"/>
<path d="M885.6 220.738C889.39 231.818 899.75 235.738 905.96 234.878C914.31 233.718 918.1 222.098 915 210.818C914.8 210.088 914.57 209.368 914.31 208.668C912.8 204.588 910.36 201.158 907.42 198.698C903.14 195.108 897.79 193.548 892.68 194.948C886.99 196.508 881.23 207.958 885.6 220.738Z" fill="#FFE6A6"/>
<path d="M888.51 219.678C888.6 219.418 893.87 214.298 893.46 207.888C893.46 207.888 896.14 210.208 900.35 210.588C904.1 210.928 907.11 209.238 906.56 207.858C906.56 207.858 910.91 209.608 913.59 209.028C916.26 208.448 914.66 205.298 914.66 205.298L897.13 200.598L884.37 206.218L888.51 219.678Z" fill="#FCC495"/>
<path d="M901.5 218.928C901.57 219.518 902.02 219.958 902.49 219.898C902.97 219.838 903.29 219.308 903.22 218.718C903.15 218.128 902.7 217.688 902.23 217.748C901.75 217.798 901.43 218.328 901.5 218.928Z" fill="#102351"/>
<path d="M912.91 217.428C912.98 218.018 913.43 218.458 913.9 218.398C914.38 218.338 914.7 217.808 914.63 217.218C914.56 216.628 914.11 216.188 913.64 216.248C913.17 216.308 912.84 216.828 912.91 217.428Z" fill="#102351"/>
<path d="M903.58 212.728C901.29 212.068 898.64 212.558 896.79 213.988" stroke="#102351" stroke-miterlimit="10" stroke-linecap="round" stroke-linejoin="round"/>
<path d="M914.65 211.388C913.05 210.698 911.57 210.918 910.19 212.058" stroke="#102351" stroke-miterlimit="10" stroke-linecap="round" stroke-linejoin="round"/>
<path d="M909.42 218.398C909.83 219.928 909.84 221.548 909.45 223.088" stroke="#DD665E" stroke-miterlimit="10" stroke-linecap="round" stroke-linejoin="round"/>
<path d="M908.81 225.788C906.46 225.398 903.85 224.648 901.53 223.438C901.53 223.438 900.25 228.178 903.78 229.208C907.28 230.218 908.81 225.788 908.81 225.788Z" fill="#DD665E"/>
<path d="M919.42 206.278C918.14 207.168 916.78 207.728 916.78 207.728L915.98 216.148C915.89 213.038 914.12 208.148 914.12 208.148C909.18 208.768 901.26 205.048 900.55 204.708C901.03 204.998 904.92 207.388 905.09 208.148C905.27 208.958 902.38 210.068 898.4 208.968C894.43 207.848 892.18 205.698 892.18 205.698C893.1 213.818 887.65 222.678 887.65 222.678L882.98 222.168C882.98 222.168 878.25 213.748 878.77 207.048C879.21 201.308 884.91 197.778 884.91 197.778C884.91 197.778 880.59 197.698 881.4 195.418C882.22 193.128 887.67 195.758 887.67 195.758C887.65 192.348 890.11 190.348 891.76 189.828C892.14 189.698 892.48 189.658 892.73 189.688C893.66 189.798 892.43 192.008 891.53 193.438C891.1 194.118 890.74 194.638 890.74 194.638C891.61 193.968 892.51 193.448 893.46 193.068C902.19 189.448 913.78 197.118 919.41 200.438C923.21 202.678 921.41 204.888 919.42 206.278Z" fill="#102351"/>
<path d="M919.42 206.278C919.68 205.628 919.77 204.918 919.56 204.258C919.18 203.098 918 202.428 916.92 201.878C911.62 199.198 906.19 196.758 900.67 194.568C898.37 193.658 895.84 192.788 893.46 193.058C902.19 189.438 913.78 197.108 919.41 200.428C923.21 202.678 921.41 204.888 919.42 206.278Z" fill="#183960"/>
<path d="M890.79 223.278C890.26 225.628 887.41 226.988 884.43 226.318C881.45 225.648 879.46 223.188 879.99 220.838C880.52 218.488 883.37 217.128 886.35 217.798C889.33 218.478 891.32 220.928 890.79 223.278Z" fill="#FFE6A6"/>
<path d="M1009.2 287.438H935.57V290.228H1009.2V287.438Z" fill="#DECDC3"/>
<path d="M1009.2 287.438H958.97V290.228H1009.2V287.438Z" fill="#EAB51F"/>
<path d="M1015.38 253.458L1016.37 255.948L1011.24 288.168H959.99L958.39 287.348L963.78 253.458H1015.38Z" fill="#DECDC3"/>
<path d="M1016.37 255.948L1011.24 288.168H959.99L965.12 255.948H1016.37Z" fill="#E5E5E5"/>
<path d="M995.489 272.658C995.489 274.338 992.619 275.698 989.079 275.698C985.539 275.698 982.669 274.338 982.669 272.658C982.669 270.978 985.539 269.618 989.079 269.618C992.619 269.618 995.489 270.978 995.489 272.658Z" fill="#DECDC3"/>
<path d="M933.06 282.898C933.06 282.898 900.71 302.418 894.52 300.668C890.87 299.638 884.65 288.848 880.53 280.958C878.09 276.298 876.4 272.658 876.4 272.658L878.78 271.348L892.5 263.748C892.5 263.748 892.78 264.498 893.23 265.718C893.8 267.228 894.64 269.448 895.58 271.838C897.8 277.468 900.54 284.048 901.5 284.518C903.44 285.498 929.02 275.318 929.02 275.318L933.06 282.898Z" fill="#FFE6A6"/>
<path d="M878.73 242.218C878.73 242.218 871.61 245.188 870.02 252.608C868.43 260.038 876.01 279.528 876.01 279.528L895.88 270.818C895.88 270.808 887.45 243.668 878.73 242.218Z" fill="#F99569"/>
<path d="M925.78 277.678C926.12 277.068 936.55 267.298 938.42 266.348C939.51 265.798 945.69 264.828 947.03 265.198C948.37 265.568 954.19 271.438 952.21 273.158C950.77 274.408 946.58 268.488 945.84 268.618C945.11 268.738 942.9 269.448 942.9 269.448C942.9 269.448 949.97 272.418 949.83 274.638C949.7 276.688 947 276.498 947 276.498C947 276.498 947.63 278.178 945.95 279.308C944.64 280.188 942.89 279.808 942.89 279.808C942.89 279.808 943.25 281.278 941.79 282.458C940.25 283.688 937.96 282.658 937.96 282.658C937.96 282.658 934.48 285.108 930.61 283.768C927.22 282.598 925.78 277.678 925.78 277.678Z" fill="#FFE6A6"/>
<path d="M946.79 276.308C945.02 274.898 943.13 273.638 941.15 272.558" stroke="#E56B57" stroke-width="0.5" stroke-miterlimit="10" stroke-linecap="round" stroke-linejoin="round"/>
<path d="M942.72 279.618C941.33 277.858 939.28 276.188 937.17 275.438" stroke="#E56B57" stroke-width="0.5" stroke-miterlimit="10" stroke-linecap="round" stroke-linejoin="round"/>
<path d="M937.96 282.448C938.33 281.758 938.5 280.958 938.43 280.178" stroke="#E56B57" stroke-width="0.5" stroke-miterlimit="10" stroke-linecap="round" stroke-linejoin="round"/>
<path d="M938.42 281.478C938.94 281.598 939.45 281.708 939.97 281.828" stroke="#E56B57" stroke-width="0.5" stroke-miterlimit="10" stroke-linecap="round" stroke-linejoin="round"/>
<path d="M1064.97 290.498H924.49V302.528H1064.97V290.498Z" fill="#C49467"/>
<path d="M1067.03 290.228H922.43V296.508H1067.03V290.228Z" fill="#785638"/>
<path d="M997.58 302.528H991.88V392.198H997.58V302.528Z" fill="#C49467"/>
<path d="M997.58 302.528H991.88V311.078H997.58V302.528Z" fill="#AF6C46"/>
<path d="M1019.92 389.768H969.55V396.948H1019.92V389.768Z" fill="#AF6C46"/>
<path d="M890.87 115.068C893.4 120.718 893.67 126.748 892.09 132.188C889.8 140.078 889.74 148.438 891.39 156.488L891.93 159.118L872.55 166.398L871.18 163.978C867.01 156.638 861.02 150.578 854.05 145.798C849.99 143.018 846.71 138.998 844.85 134.038C839.82 120.648 847.06 105.668 860.95 101.438C872.82 97.8381 885.8 103.748 890.87 115.068Z" fill="#F9F09D"/>
<path d="M878.41 165.948L854.94 127.448" stroke="#F8D427" stroke-miterlimit="10" stroke-linecap="round" stroke-linejoin="round"/>
<path d="M887.22 162.638L879.53 118.208" stroke="#F8D427" stroke-miterlimit="10" stroke-linecap="round" stroke-linejoin="round"/>
<path d="M860.01 135.488L868.63 139.918L870.17 132.338L877.44 136.608L881.07 127.118" stroke="#F8D427" stroke-miterlimit="10" stroke-linecap="round" stroke-linejoin="round"/>
<path d="M897.21 174.038C898.3 176.948 895.07 180.858 889.98 182.768C884.89 184.678 879.88 183.868 878.79 180.958C877.7 178.048 880.93 174.138 886.02 172.228C891.1 170.318 896.12 171.128 897.21 174.038Z" fill="#EFAE1D"/>
<path d="M894.47 162.838L873.08 170.878C871.71 171.388 870.19 170.698 869.67 169.328L869.48 168.828C868.97 167.458 869.66 165.938 871.03 165.418L892.42 157.378C893.79 156.868 895.31 157.558 895.83 158.928L896.02 159.428C896.53 160.798 895.84 162.318 894.47 162.838Z" fill="#E5E5E5"/>
<path d="M896.52 168.288L875.13 176.328C873.76 176.838 872.24 176.148 871.72 174.778L871.53 174.278C871.02 172.908 871.71 171.388 873.08 170.868L894.47 162.828C895.84 162.318 897.36 163.008 897.88 164.378L898.07 164.878C898.58 166.248 897.89 167.768 896.52 168.288Z" fill="#E5E5E5"/>
<path d="M898.57 173.738L877.18 181.778C875.81 182.288 874.29 181.598 873.77 180.228L873.58 179.728C873.07 178.358 873.76 176.838 875.13 176.318L896.52 168.278C897.89 167.768 899.41 168.458 899.93 169.828L900.12 170.328C900.63 171.698 899.94 173.228 898.57 173.738Z" fill="#E5E5E5"/>
<path d="M874.03 170.518L893.6 163.158" stroke="#EFAE1D" stroke-miterlimit="10" stroke-linecap="round" stroke-linejoin="round"/>
<path d="M876.08 175.968L895.65 168.608" stroke="#EFAE1D" stroke-miterlimit="10" stroke-linecap="round" stroke-linejoin="round"/>
<path opacity="0.6" d="M885.37 113.488C885.49 115.588 879.25 109.968 873.5 108.348C866.3 106.318 859.16 106.448 861.76 104.468C864.69 102.238 872.01 103.178 874.88 104.148C878.98 105.528 885.19 110.338 885.37 113.488Z" fill="#F9F7CD"/>
<path d="M1436.17 76.7281C1434.33 81.1081 1431.08 84.4081 1427.21 86.3681C1421.59 89.2081 1416.87 93.5581 1413.22 98.6881L1412.03 100.368L1397.81 93.3081L1398.45 91.2781C1400.38 85.0981 1400.65 78.5681 1399.68 72.1681C1399.12 68.4381 1399.65 64.4981 1401.46 60.8581C1406.33 51.0381 1418.52 47.2481 1428.16 52.8281C1436.39 57.5981 1439.86 67.9581 1436.17 76.7281Z" fill="#F9F09D"/>
<path d="M1401.13 96.3681L1410.43 63.0681" stroke="#F8D427" stroke-miterlimit="10" stroke-linecap="round" stroke-linejoin="round"/>
<path d="M1407.59 99.5681L1428.48 72.0181" stroke="#F8D427" stroke-miterlimit="10" stroke-linecap="round" stroke-linejoin="round"/>
<path d="M1408.58 70.1181L1410.6 77.2581L1415.66 74.1681L1417.07 80.4681L1424.29 77.5381" stroke="#F8D427" stroke-miterlimit="10" stroke-linecap="round" stroke-linejoin="round"/>
<path d="M1406.43 111.138C1405.37 113.278 1401.48 113.508 1397.75 111.648C1394.02 109.798 1391.85 106.558 1392.91 104.428C1393.97 102.288 1397.86 102.058 1401.59 103.918C1405.32 105.768 1407.49 108.998 1406.43 111.138Z" fill="#EFAE1D"/>
<path d="M1411.09 103.648L1395.76 96.0481C1394.66 95.4981 1394.2 94.1581 1394.75 93.0581C1395.3 91.9481 1396.64 91.4981 1397.74 92.0481L1413.07 99.6481C1414.17 100.198 1414.63 101.538 1414.08 102.638C1413.54 103.748 1412.2 104.198 1411.09 103.648Z" fill="#E5E5E5"/>
<path d="M1409.11 107.648L1393.78 100.048C1392.68 99.4981 1392.22 98.1581 1392.77 97.0581C1393.32 95.9481 1394.66 95.4981 1395.76 96.0481L1411.09 103.648C1412.2 104.198 1412.65 105.538 1412.1 106.638C1411.55 107.748 1410.21 108.198 1409.11 107.648Z" fill="#E5E5E5"/>
<path d="M1407.12 111.648L1391.79 104.048C1390.69 103.498 1390.23 102.158 1390.78 101.058C1391.33 99.9581 1392.67 99.4981 1393.77 100.048L1409.1 107.648C1410.21 108.198 1410.66 109.538 1410.11 110.638C1409.57 111.748 1408.23 112.198 1407.12 111.648Z" fill="#E5E5E5"/>
<path d="M1396.28 96.2981L1410.64 103.428" stroke="#EFAE1D" stroke-miterlimit="10" stroke-linecap="round" stroke-linejoin="round"/>
<path d="M1394.29 100.298L1408.65 107.428" stroke="#EFAE1D" stroke-miterlimit="10" stroke-linecap="round" stroke-linejoin="round"/>
<path opacity="0.6" d="M1434.18 72.8281C1433.07 73.9981 1432.95 67.5581 1430.85 63.4781C1428.22 58.3781 1424.42 54.4481 1426.88 54.8681C1429.67 55.3481 1432.97 59.9381 1433.92 62.0581C1435.3 65.0781 1435.85 71.0681 1434.18 72.8281Z" fill="#F9F7CD"/>
</svg>
