<svg width="50" height="50" viewBox="0 0 50 50" fill="none" xmlns="http://www.w3.org/2000/svg">
<path d="M19.1473 6.21216L18.7693 6.32441C19.7497 7.30485 20.5808 8.13492 21.4212 8.97426C23.6498 7.60248 26.2358 8.03605 27.8723 9.43976C28.7549 10.1967 29.3749 11.1287 29.6478 12.2626C30.0206 13.8136 29.7755 15.2822 28.9845 16.5561C30.1328 17.7127 31.2358 18.8249 32.344 19.9413C35.0268 18.3059 38.0443 19.1916 39.6045 21.1926C41.241 23.2925 41.1452 26.2884 39.3718 28.241C37.5386 30.2585 34.587 30.6488 32.3079 29.1689C31.1936 28.4459 30.4356 27.4439 30.0474 26.1741C29.5499 24.5438 29.8218 23.0093 30.6735 21.5973C29.5469 20.4707 28.448 19.3708 27.3532 18.275C26.7497 18.5263 26.1215 18.7889 25.4737 19.0587C25.4737 22.7322 25.4737 26.4325 25.4737 30.1256C28.8187 31.0402 30.0978 33.8198 29.7652 36.3131C29.4202 38.898 27.1885 40.9083 24.6035 41.0082C21.9454 41.1112 19.5901 39.3481 19.0021 36.7817C18.7075 35.4954 18.8424 34.241 19.449 33.0577C20.2441 31.5088 21.5263 30.5726 23.1988 30.1514C23.1988 26.4161 23.1988 22.7158 23.1988 19.0052C21.3543 18.5314 20.0062 17.4665 19.2781 15.7137C18.5438 13.9423 18.7631 12.2255 19.7127 10.6591C18.8527 9.79918 18.0227 8.96911 17.1823 8.12977L19.1473 6.21216ZM27.62 13.622C27.6169 11.8249 26.1153 10.3296 24.3244 10.3419C22.5273 10.3543 21.0319 11.8682 21.0566 13.6519C21.0814 15.4408 22.5469 16.897 24.3285 16.9053C26.1246 16.9125 27.622 15.4192 27.62 13.622ZM24.3347 38.7889C26.1514 38.7899 27.6292 37.3193 27.6231 35.518C27.6169 33.7168 26.1328 32.2544 24.3162 32.2585C22.5293 32.2626 21.0711 33.7178 21.0556 35.5098C21.0412 37.3059 22.5242 38.7889 24.3347 38.7889ZM32.0299 24.5685C32.0257 26.3924 33.4758 27.8466 35.2966 27.8466C37.0937 27.8455 38.5499 26.4006 38.5572 24.6087C38.5644 22.7714 37.139 21.3254 35.31 21.3162C33.4717 21.3069 32.035 22.7322 32.0299 24.5685Z" fill="#2D4059"/>
<path d="M24.9979 50C23.0608 50 21.1226 49.2626 19.6478 47.7878L2.21215 30.3522C-0.737384 27.4027 -0.737384 22.6025 2.21215 19.6519L19.6478 2.21627C21.0772 0.786818 22.9773 0 24.9979 0C27.0185 0 28.9186 0.786818 30.3481 2.21627L47.7837 19.6519C50.7333 22.6014 50.7333 27.4016 47.7837 30.3522L30.3481 47.7878C28.8733 49.2626 26.9351 50 24.9979 50ZM17.0639 8.29557L3.95984 21.3996C1.97322 23.3862 1.97322 26.6179 3.95984 28.6035L21.3955 46.0391C23.3821 48.0257 26.6138 48.0257 28.5994 46.0391L46.035 28.6035C48.0216 26.6169 48.0216 23.3852 46.035 21.3996L28.5994 3.96395C27.6385 3.00206 26.3584 2.47168 24.9979 2.47168C23.6375 2.47168 22.3584 3.00206 21.3955 3.96395L19.1473 6.21215" fill="#2D4059"/>
</svg>
