<svg width="52" height="50" viewBox="0 0 52 50" fill="none" xmlns="http://www.w3.org/2000/svg">
<circle opacity="0.16" cx="26" cy="25" r="25" fill="#56CCF2"/>
<path d="M22.6741 0.176847C10.921 1.45436 1.46737 10.908 0.189853 22.4056C-1.34317 35.1808 6.57744 46.1674 17.8196 49.7445V43.8679C17.8196 43.8679 16.7976 44.1234 15.5201 44.1234C11.943 44.1234 10.41 41.0574 10.1545 39.2689C9.89898 38.2468 9.38797 37.4803 8.62146 36.7138C7.85495 36.4583 7.59945 36.4583 7.59945 36.2028C7.59945 35.6918 8.36596 35.6918 8.62146 35.6918C10.1545 35.6918 11.432 37.4803 11.943 38.2468C13.2205 40.2909 14.7535 40.8019 15.5201 40.8019C16.5421 40.8019 17.3086 40.5464 17.8196 40.2909C18.0751 38.5023 18.8416 36.7138 20.3746 35.6918C14.498 34.4143 10.1545 31.0928 10.1545 25.4717C10.1545 22.6611 11.432 19.8506 13.2205 17.8066C12.965 17.2956 12.7095 16.0181 12.7095 14.2295C12.7095 13.2075 12.7095 11.6745 13.476 10.1415C13.476 10.1415 17.0531 10.1415 20.6301 13.463C21.9076 12.952 23.6962 12.6965 25.4847 12.6965C27.2732 12.6965 29.0617 12.952 30.5948 13.463C33.9163 10.1415 37.7488 10.1415 37.7488 10.1415C38.2598 11.6745 38.2599 13.2075 38.2599 14.2295C38.2599 16.2736 38.0043 17.2956 37.7488 17.8066C39.5374 19.8506 40.8149 22.4056 40.8149 25.4717C40.8149 31.0928 36.4713 34.4143 30.5948 35.6918C32.1278 36.9693 33.1498 39.2689 33.1498 41.5684V50C43.6254 46.6785 51.035 36.9693 51.035 25.7272C51.035 10.397 38.0043 -1.61168 22.6741 0.176847Z" fill="black"/>
</svg>
