<svg width="54" height="54" viewBox="0 0 54 54" fill="none" xmlns="http://www.w3.org/2000/svg">
<path d="M27 0C12.0843 0 0 12.0881 0 27.0084C0 27.2108 0.0337079 27.4299 0.0337079 27.6322C3.57303 21.9001 9.28652 18.444 15.691 18.5114C23.4101 18.5451 27.7247 24.0918 29.7809 27.059C31.9719 25.6597 36.2865 23.5186 40.7697 24.665C44.4101 25.5923 47.2921 28.4246 49.382 33.0946H53.2921C53.7472 31.139 54 29.1158 54 27.0084C53.9831 12.0881 41.8989 0 27 0Z" fill="#13387E"/>
<path d="M46.6681 35.3874C44.9827 31.1389 42.7074 28.6269 39.9097 27.9188C35.2748 26.7386 30.4715 30.6668 30.4209 30.7006L29.0557 31.8301L27.994 30.3971C27.8254 30.1779 27.6232 29.8913 27.4041 29.5541C25.7018 27.059 22.1793 21.8832 15.6569 21.8663C15.64 21.8663 15.6063 21.8663 15.5895 21.8663C8.98272 21.8663 3.28609 26.5026 0.875977 33.7352C3.87598 45.3849 14.4097 54 26.9827 54C38.5614 54 48.4041 46.6999 52.2468 36.4495H47.0895L46.6681 35.3874Z" fill="#0069FF"/>
</svg>
