<svg width="169" height="26" viewBox="0 0 169 26" fill="none" xmlns="http://www.w3.org/2000/svg">
<path d="M22.76 15.463C22.76 14.693 22.661 14.099 22.463 13.681C22.287 13.241 21.968 12.9 21.506 12.658C21.066 12.416 20.615 12.295 20.153 12.295C19.427 12.295 18.646 12.625 17.81 13.285L16.589 14.341V18.829C16.589 19.313 16.589 19.764 16.589 20.182C16.589 20.6 16.611 21.029 16.655 21.469C16.721 21.909 17.029 22.129 17.579 22.129C18.063 22.129 18.371 22.239 18.503 22.459C18.635 22.679 18.701 23.031 18.701 23.515C18.701 24.131 18.624 24.538 18.47 24.736C18.338 24.912 17.964 25 17.348 25H12.068C11.452 25 11.067 24.912 10.913 24.736C10.781 24.538 10.715 24.131 10.715 23.515C10.715 23.009 10.77 22.657 10.88 22.459C10.99 22.239 11.309 22.129 11.837 22.129C12.475 22.129 12.794 21.029 12.794 18.829V15.463C12.794 14.715 12.695 14.121 12.497 13.681C12.321 13.241 12.002 12.9 11.54 12.658C11.1 12.416 10.66 12.295 10.22 12.295C9.494 12.295 8.702 12.625 7.844 13.285L6.623 14.341V18.829C6.623 19.313 6.623 19.764 6.623 20.182C6.623 20.6 6.645 21.029 6.689 21.469C6.755 21.909 7.063 22.129 7.613 22.129C8.119 22.129 8.438 22.239 8.57 22.459C8.702 22.657 8.768 23.009 8.768 23.515C8.768 24.131 8.691 24.538 8.537 24.736C8.405 24.912 8.02 25 7.382 25H2.102C1.486 25 1.101 24.912 0.947 24.736C0.815 24.538 0.749 24.131 0.749 23.515C0.749 23.031 0.804 22.679 0.914 22.459C1.046 22.239 1.376 22.129 1.904 22.129C2.322 22.129 2.586 21.887 2.696 21.403C2.828 20.897 2.894 20.039 2.894 18.829V16.552V15.43V14.836C2.894 14.616 2.872 14.418 2.828 14.242C2.828 14.066 2.74 13.934 2.564 13.846L2.201 13.681L1.508 13.78C1.376 13.78 1.233 13.736 1.079 13.648L0.815 13.252L0.749 12.493C0.749 12.053 0.815 11.723 0.947 11.503C1.101 11.261 1.442 10.92 1.97 10.48L4.148 8.83C4.676 8.478 5.116 8.302 5.468 8.302C5.666 8.302 5.897 8.346 6.161 8.434C6.469 8.5 6.623 8.874 6.623 9.556V10.744C7.525 10.15 8.46 9.644 9.428 9.226C10.396 8.808 11.287 8.599 12.101 8.599C12.277 8.599 12.42 8.599 12.53 8.599C12.662 8.599 12.904 8.643 13.256 8.731C13.696 8.797 14.092 8.951 14.444 9.193C14.818 9.391 15.159 9.655 15.467 9.985L16.16 10.777C17.15 10.117 18.096 9.589 18.998 9.193C19.922 8.775 20.824 8.566 21.704 8.566C22.54 8.566 23.409 8.797 24.311 9.259C25.213 9.721 25.807 10.436 26.093 11.404C26.401 12.35 26.555 13.34 26.555 14.374V14.968V18.829C26.555 19.313 26.555 19.764 26.555 20.182C26.555 20.6 26.577 21.029 26.621 21.469C26.687 21.909 26.984 22.129 27.512 22.129C27.996 22.129 28.304 22.239 28.436 22.459C28.568 22.679 28.634 23.031 28.634 23.515C28.634 24.131 28.557 24.538 28.403 24.736C28.271 24.912 27.897 25 27.281 25H22.001C21.385 25 21 24.912 20.846 24.736C20.714 24.538 20.648 24.131 20.648 23.515C20.648 23.009 20.703 22.657 20.813 22.459C20.923 22.239 21.242 22.129 21.77 22.129C22.188 22.129 22.452 21.887 22.562 21.403C22.694 20.897 22.76 20.039 22.76 18.829V15.463ZM43.5255 21.997C43.5915 22.063 43.7675 22.096 44.0535 22.096H44.6145C44.8125 22.118 44.9555 22.239 45.0435 22.459L45.3075 23.086C45.3735 23.284 45.3845 23.471 45.3405 23.647C45.3185 23.801 45.1865 23.966 44.9445 24.142C44.7245 24.318 44.3615 24.505 43.8555 24.703L42.6345 25.066L41.7105 25.198C41.2265 25.198 40.8635 25.11 40.6215 24.934L40.0275 24.307L39.5655 23.581C38.6855 24.087 37.8275 24.483 36.9915 24.769C36.1555 25.055 35.3415 25.198 34.5495 25.198C33.8455 25.198 32.9545 25 31.8765 24.604C30.8205 24.208 30.0285 23.273 29.5005 21.799C29.3465 21.337 29.2695 20.864 29.2695 20.38C29.2695 19.94 29.3355 19.467 29.4675 18.961C29.6215 18.455 29.9735 17.784 30.5235 16.948C31.0955 16.09 32.1405 15.375 33.6585 14.803C35.1765 14.209 36.8045 13.912 38.5425 13.912H39.3675C39.3675 13.274 39.2905 12.801 39.1365 12.493C39.0045 12.163 38.7405 11.888 38.3445 11.668C37.9485 11.426 37.4865 11.305 36.9585 11.305C36.4965 11.305 36.1225 11.382 35.8365 11.536C35.5505 11.668 35.1215 12.02 34.5495 12.592C33.9775 13.164 33.4935 13.45 33.0975 13.45H32.3715L31.3155 13.417C31.1175 13.373 30.9195 13.23 30.7215 12.988C30.6335 12.856 30.5675 12.68 30.5235 12.46C30.4795 12.24 30.4575 11.932 30.4575 11.536C30.4575 11.206 30.4795 10.986 30.5235 10.876L30.6555 10.282C30.7215 10.018 30.9085 9.798 31.2165 9.622C31.5245 9.424 31.9645 9.237 32.5365 9.061L34.3185 8.698L36.6285 8.566C37.6845 8.566 38.6415 8.665 39.4995 8.863C40.3795 9.061 41.0725 9.358 41.5785 9.754C42.0845 10.15 42.4695 10.689 42.7335 11.371C42.9975 11.965 43.1295 12.856 43.1295 14.044V14.836V20.611C43.1295 21.403 43.2615 21.865 43.5255 21.997ZM34.5165 17.773C34.1865 18.059 33.9335 18.367 33.7575 18.697C33.6035 19.005 33.5045 19.357 33.4605 19.753L33.5595 20.71C33.6255 21.15 33.9555 21.502 34.5495 21.766C35.1435 22.008 35.6165 22.129 35.9685 22.129C36.8265 22.129 37.6845 21.832 38.5425 21.238L39.3675 20.545V16.42C38.3555 16.42 37.4205 16.541 36.5625 16.783C35.7265 17.003 35.0445 17.333 34.5165 17.773ZM52.1545 8.698C52.5505 8.632 53.1115 8.599 53.8375 8.599C54.6515 8.599 55.2125 8.621 55.5205 8.665C55.8285 8.687 56.3125 8.764 56.9725 8.896C57.6545 9.028 58.1495 9.27 58.4575 9.622C58.7875 9.952 58.9855 10.392 59.0515 10.942L59.1505 11.965L59.1175 12.526C59.0955 12.746 59.0185 12.933 58.8865 13.087C58.8425 13.153 58.6995 13.241 58.4575 13.351L57.9955 13.45L57.4675 13.483C57.0495 13.483 56.7415 13.461 56.5435 13.417L55.9825 13.186L55.5535 12.856L54.9265 12.229C54.7285 11.987 54.4645 11.767 54.1345 11.569C53.8045 11.371 53.3095 11.272 52.6495 11.272C51.9455 11.272 51.4395 11.47 51.1315 11.866C50.9335 12.196 50.8125 12.515 50.7685 12.823L50.9665 13.516C51.0985 13.846 51.4395 14.154 51.9895 14.44C52.1435 14.506 52.4515 14.627 52.9135 14.803C53.3755 14.957 53.7935 15.089 54.1675 15.199L55.1245 15.463C56.5325 15.815 57.5885 16.233 58.2925 16.717C59.0625 17.179 59.5245 17.773 59.6785 18.499C59.7005 18.609 59.7445 18.873 59.8105 19.291C59.8985 19.709 59.9425 19.973 59.9425 20.083C59.9425 20.655 59.8215 21.238 59.5795 21.832C59.3375 22.404 58.9085 22.965 58.2925 23.515C57.6985 24.043 56.8625 24.461 55.7845 24.769C54.7065 25.055 53.6725 25.198 52.6825 25.198L50.9335 25.099C50.7355 25.077 50.4715 25.033 50.1415 24.967C49.8335 24.901 49.5145 24.824 49.1845 24.736C48.5465 24.538 47.9415 24.307 47.3695 24.043C46.8855 23.779 46.6105 23.471 46.5445 23.119L46.4785 22.294V21.832C46.4785 21.238 46.4895 20.864 46.5115 20.71C46.5555 20.534 46.6655 20.369 46.8415 20.215C47.0395 20.039 47.4135 19.951 47.9635 19.951L48.3925 19.984L49.1185 20.083C49.4705 20.127 49.7675 20.248 50.0095 20.446L51.1645 21.601C51.5605 21.953 52.0885 22.239 52.7485 22.459L53.5405 22.525C54.0025 22.525 54.3875 22.481 54.6955 22.393C55.0035 22.283 55.2785 22.085 55.5205 21.799C55.7625 21.491 55.8835 21.15 55.8835 20.776C55.8835 20.644 55.8285 20.402 55.7185 20.05C55.6085 19.698 55.3335 19.423 54.8935 19.225L52.5835 18.466L51.6925 18.235C50.3285 17.861 49.2505 17.443 48.4585 16.981C47.6885 16.519 47.2265 15.969 47.0725 15.331L46.8085 14.143L46.7755 13.516C46.7755 12.988 46.8635 12.46 47.0395 11.932C47.2375 11.382 47.6115 10.876 48.1615 10.414C48.6235 9.952 49.2175 9.567 49.9435 9.259C50.2515 9.149 50.5705 9.05 50.9005 8.962C51.2525 8.874 51.6705 8.786 52.1545 8.698ZM67.0156 9.358L68.4676 8.698L68.8966 8.599C69.0726 8.599 69.2046 8.577 69.2926 8.533C69.5346 8.533 69.6886 8.566 69.7546 8.632C69.8426 8.698 69.9416 8.841 70.0516 9.061C70.0736 9.105 70.0956 9.204 70.1176 9.358C70.1616 9.49 70.1836 9.699 70.1836 9.985V10.579C70.1836 10.909 70.1066 11.162 69.9526 11.338L68.9956 11.998L67.0156 13.153V18.07L67.0486 20.248C67.0486 21.018 67.2026 21.48 67.5106 21.634L68.1706 21.931L68.5996 21.964C68.8416 21.964 69.0286 21.942 69.1606 21.898L69.7216 21.733C69.9196 21.667 70.0846 21.667 70.2166 21.733C70.6786 21.975 70.9096 22.426 70.9096 23.086C70.9096 23.592 70.6126 23.988 70.0186 24.274C69.4466 24.56 68.8416 24.791 68.2036 24.967C67.8736 25.033 67.5656 25.088 67.2796 25.132C67.0156 25.176 66.7516 25.198 66.4876 25.198C65.7396 25.198 65.1016 25.033 64.5736 24.703C64.0676 24.351 63.7156 23.845 63.5176 23.185C63.4516 22.833 63.3966 22.47 63.3526 22.096C63.3086 21.722 63.2866 21.304 63.2866 20.842V20.05V14.176L62.5606 14.473L61.9006 14.605C61.6806 14.605 61.4936 14.539 61.3396 14.407C61.2076 14.275 61.1416 13.835 61.1416 13.087V12.724C61.1416 12.152 61.2076 11.789 61.3396 11.635C61.4716 11.481 61.8896 11.217 62.5936 10.843L63.2866 10.513V7.015C63.2866 6.333 63.2976 5.915 63.3196 5.761C63.3636 5.607 63.6936 5.365 64.3096 5.035C64.9476 4.683 65.3986 4.463 65.6626 4.375C65.9266 4.287 66.1356 4.243 66.2896 4.243C66.4216 4.243 66.5206 4.254 66.5866 4.276C66.7406 4.408 66.8506 4.595 66.9166 4.837C66.9826 5.079 67.0156 5.431 67.0156 5.893V9.358ZM72.8844 13.516C73.4124 12.174 74.1824 11.107 75.1944 10.315C76.2284 9.501 77.1524 9.017 77.9664 8.863L79.4844 8.599L80.3094 8.566C81.3874 8.566 82.3994 8.72 83.3454 9.028C84.3134 9.314 85.1714 9.842 85.9194 10.612C86.6894 11.36 87.0744 12.174 87.0744 13.054C87.0744 13.296 87.0304 13.56 86.9424 13.846C86.8764 14.176 86.5244 14.561 85.8864 15.001C85.3804 15.353 84.5554 15.826 83.4114 16.42L77.0094 19.753C77.3394 20.303 77.8234 20.809 78.4614 21.271C79.1214 21.733 79.9354 21.964 80.9034 21.964C81.2554 21.964 81.5854 21.942 81.8934 21.898C82.2014 21.854 82.5644 21.766 82.9824 21.634C83.6864 21.436 84.3134 21.172 84.8634 20.842C85.4354 20.512 85.8534 20.347 86.1174 20.347C86.3154 20.347 86.5574 20.457 86.8434 20.677C87.1514 20.875 87.3054 21.293 87.3054 21.931C87.3054 22.239 87.0964 22.591 86.6784 22.987C86.6124 23.053 86.4584 23.174 86.2164 23.35C85.9744 23.504 85.6664 23.669 85.2924 23.845C84.4784 24.241 83.5874 24.582 82.6194 24.868C82.2014 24.978 81.7614 25.066 81.2994 25.132C80.8594 25.198 80.3974 25.231 79.9134 25.231C79.1874 25.231 78.5164 25.154 77.9004 25C77.3064 24.868 76.5364 24.538 75.5904 24.01C74.6444 23.46 73.8634 22.492 73.2474 21.106C72.6534 19.698 72.3564 18.345 72.3564 17.047C72.3564 15.661 72.5324 14.484 72.8844 13.516ZM79.2864 14.968C80.0344 14.66 80.5184 14.451 80.7384 14.341C80.9804 14.209 81.2334 14.066 81.4974 13.912C82.0474 13.604 82.3224 13.252 82.3224 12.856C82.3224 12.35 82.1134 11.987 81.6954 11.767C81.2774 11.525 80.8154 11.404 80.3094 11.404L79.1874 11.503C78.9234 11.569 78.4834 11.767 77.8674 12.097C77.2734 12.427 76.8114 12.999 76.4814 13.813C76.1954 14.605 76.0524 15.496 76.0524 16.486L79.2864 14.968ZM94.3437 10.975L95.7627 9.787C96.1367 9.501 96.5107 9.281 96.8847 9.127C97.2587 8.951 97.7097 8.808 98.2377 8.698L99.4917 8.599C99.7117 8.599 99.8877 8.621 100.02 8.665C100.174 8.665 100.317 8.819 100.449 9.127C100.515 9.303 100.559 9.446 100.581 9.556C100.603 9.666 100.614 9.864 100.614 10.15V11.734V12.394C100.614 12.79 100.592 13.076 100.548 13.252C100.526 13.428 100.438 13.571 100.284 13.681L99.6237 13.846L99.0957 13.879H98.3697L97.8087 13.78L97.0827 13.351C96.7967 13.153 96.5217 13.032 96.2577 12.988C95.9937 12.988 95.7077 13.098 95.3997 13.318L94.3437 14.143V18.829C94.3437 20.083 94.4097 20.952 94.5417 21.436C94.6737 21.898 95.0807 22.129 95.7627 22.129C96.2467 22.129 96.5547 22.239 96.6867 22.459C96.8187 22.679 96.8847 23.031 96.8847 23.515C96.8847 24.131 96.8077 24.538 96.6537 24.736C96.5217 24.912 96.1477 25 95.5317 25H89.8227C89.2067 25 88.8217 24.912 88.6677 24.736C88.5357 24.538 88.4697 24.131 88.4697 23.515C88.4697 23.031 88.5247 22.679 88.6347 22.459C88.7667 22.239 89.0967 22.129 89.6247 22.129C90.0427 22.129 90.3067 21.887 90.4167 21.403C90.5487 20.897 90.6147 20.039 90.6147 18.829V16.552V15.43V14.836C90.6147 14.616 90.5927 14.418 90.5487 14.242C90.5487 14.066 90.4607 13.934 90.2847 13.846L89.9217 13.681L89.2287 13.78C89.0967 13.78 88.9537 13.736 88.7997 13.648L88.5357 13.252L88.4697 12.493C88.4697 12.053 88.5357 11.723 88.6677 11.503C88.8217 11.261 89.1627 10.92 89.6907 10.48L91.8687 8.83C92.3967 8.478 92.8367 8.302 93.1887 8.302C93.3867 8.302 93.6177 8.346 93.8817 8.434C94.1897 8.5 94.3437 8.874 94.3437 9.556V10.975ZM108.709 14.11V18.433V19.588C108.709 19.83 108.709 20.061 108.709 20.281C108.709 20.479 108.731 20.71 108.774 20.974C108.841 21.216 109.017 21.414 109.303 21.568C109.611 21.7 109.941 21.766 110.293 21.766C110.777 21.766 111.085 21.887 111.217 22.129C111.349 22.371 111.415 22.712 111.415 23.152V23.581C111.415 24.065 111.338 24.428 111.184 24.67C111.052 24.89 110.689 25 110.095 25H103.165C102.593 25 102.208 24.89 102.01 24.67C101.878 24.428 101.812 24.065 101.812 23.581V23.152C101.812 22.668 101.867 22.316 101.977 22.096C102.087 21.876 102.417 21.766 102.967 21.766C103.275 21.766 103.572 21.7 103.858 21.568C104.144 21.436 104.331 21.194 104.418 20.842C104.529 20.468 104.584 19.962 104.584 19.324V18.433V7.345V6.256C104.584 5.728 104.551 5.299 104.485 4.969C104.441 4.639 104.276 4.419 103.99 4.309C103.704 4.177 103.363 4.089 102.967 4.045C102.439 4.045 102.12 3.946 102.01 3.748C101.922 3.55 101.867 3.396 101.845 3.286C101.823 3.176 101.812 2.967 101.812 2.659V2.23C101.812 1.746 101.878 1.383 102.01 1.141C102.142 0.898999 102.527 0.777999 103.165 0.777999H110.095C110.689 0.777999 111.052 0.898999 111.184 1.141C111.338 1.383 111.415 1.746 111.415 2.23V2.659C111.415 3.143 111.36 3.495 111.25 3.715C111.14 3.935 110.821 4.045 110.293 4.045C109.985 4.045 109.699 4.1 109.435 4.21C109.171 4.32 108.973 4.584 108.841 5.002L108.709 6.553V7.345V10.645H118.873V7.345V6.487C118.873 5.783 118.818 5.277 118.707 4.969C118.642 4.639 118.466 4.408 118.18 4.276C117.894 4.122 117.575 4.045 117.223 4.045C116.739 4.045 116.42 3.924 116.266 3.682C116.2 3.528 116.156 3.396 116.134 3.286C116.112 3.176 116.101 2.967 116.101 2.659V2.23C116.101 1.746 116.167 1.383 116.299 1.141C116.431 0.898999 116.805 0.777999 117.421 0.777999H124.318C124.912 0.777999 125.286 0.898999 125.44 1.141C125.594 1.383 125.671 1.746 125.671 2.23V2.659C125.671 3.143 125.616 3.495 125.506 3.715C125.396 3.935 125.077 4.045 124.549 4.045C124.241 4.045 123.955 4.1 123.691 4.21C123.427 4.32 123.229 4.584 123.097 5.002L122.965 6.553V7.345V18.433V19.588C122.965 19.83 122.965 20.061 122.965 20.281C122.965 20.479 122.987 20.71 123.031 20.974C123.097 21.216 123.273 21.414 123.559 21.568C123.867 21.7 124.197 21.766 124.549 21.766C125.033 21.766 125.341 21.887 125.473 22.129C125.605 22.371 125.671 22.712 125.671 23.152V23.581C125.671 24.153 125.561 24.538 125.341 24.736C125.143 24.912 124.802 25 124.318 25H117.421C116.827 25 116.453 24.89 116.299 24.67C116.167 24.428 116.101 24.065 116.101 23.581V23.152C116.101 22.668 116.156 22.316 116.266 22.096C116.376 21.876 116.695 21.766 117.223 21.766C117.531 21.766 117.817 21.711 118.081 21.601C118.367 21.469 118.565 21.227 118.675 20.875C118.807 20.501 118.873 19.984 118.873 19.324V18.433V14.11H108.709ZM133.394 8.698L134.681 8.599C135.737 8.599 136.782 8.808 137.816 9.226C138.85 9.622 139.73 10.238 140.456 11.074C141.204 11.91 141.765 12.856 142.139 13.912C142.513 14.968 142.7 15.991 142.7 16.981C142.7 17.685 142.667 18.213 142.601 18.565C142.535 18.895 142.469 19.17 142.403 19.39C142.359 19.588 142.26 19.907 142.106 20.347C141.908 21.117 141.402 21.931 140.588 22.789C139.796 23.625 138.806 24.241 137.618 24.637C136.452 25.011 135.407 25.198 134.483 25.198C133.537 25.198 132.668 25.077 131.876 24.835C131.436 24.681 131.018 24.505 130.622 24.307C130.248 24.087 129.808 23.779 129.302 23.383C128.4 22.657 127.707 21.722 127.223 20.578C127.003 20.028 126.827 19.445 126.695 18.829C126.563 18.191 126.497 17.542 126.497 16.882L126.596 15.133C126.662 14.407 127.025 13.483 127.685 12.361C128.345 11.217 129.291 10.326 130.523 9.688C131.755 9.028 132.712 8.698 133.394 8.698ZM132.14 12.064C131.414 12.592 130.952 13.208 130.754 13.912C130.578 14.594 130.49 15.441 130.49 16.453C130.49 17.355 130.721 18.356 131.183 19.456C131.667 20.556 132.283 21.337 133.031 21.799C133.801 22.261 134.472 22.492 135.044 22.492L135.737 22.459L136.694 22.063C137.156 21.821 137.552 21.414 137.882 20.842C138.212 20.248 138.432 19.665 138.542 19.093L138.641 17.971C138.641 16.959 138.465 15.925 138.113 14.869C137.783 13.813 137.332 13.065 136.76 12.625C136.276 12.207 135.803 11.888 135.341 11.668C135.143 11.58 134.945 11.514 134.747 11.47C134.571 11.426 134.362 11.404 134.12 11.404C133.834 11.404 133.548 11.448 133.262 11.536L132.635 11.734C132.481 11.778 132.316 11.888 132.14 12.064ZM149.414 8.698C149.81 8.632 150.371 8.599 151.097 8.599C151.911 8.599 152.472 8.621 152.78 8.665C153.088 8.687 153.572 8.764 154.232 8.896C154.914 9.028 155.409 9.27 155.717 9.622C156.047 9.952 156.245 10.392 156.311 10.942L156.41 11.965L156.377 12.526C156.355 12.746 156.278 12.933 156.146 13.087C156.102 13.153 155.959 13.241 155.717 13.351L155.255 13.45L154.727 13.483C154.309 13.483 154.001 13.461 153.803 13.417L153.242 13.186L152.813 12.856L152.186 12.229C151.988 11.987 151.724 11.767 151.394 11.569C151.064 11.371 150.569 11.272 149.909 11.272C149.205 11.272 148.699 11.47 148.391 11.866C148.193 12.196 148.072 12.515 148.028 12.823L148.226 13.516C148.358 13.846 148.699 14.154 149.249 14.44C149.403 14.506 149.711 14.627 150.173 14.803C150.635 14.957 151.053 15.089 151.427 15.199L152.384 15.463C153.792 15.815 154.848 16.233 155.552 16.717C156.322 17.179 156.784 17.773 156.938 18.499C156.96 18.609 157.004 18.873 157.07 19.291C157.158 19.709 157.202 19.973 157.202 20.083C157.202 20.655 157.081 21.238 156.839 21.832C156.597 22.404 156.168 22.965 155.552 23.515C154.958 24.043 154.122 24.461 153.044 24.769C151.966 25.055 150.932 25.198 149.942 25.198L148.193 25.099C147.995 25.077 147.731 25.033 147.401 24.967C147.093 24.901 146.774 24.824 146.444 24.736C145.806 24.538 145.201 24.307 144.629 24.043C144.145 23.779 143.87 23.471 143.804 23.119L143.738 22.294V21.832C143.738 21.238 143.749 20.864 143.771 20.71C143.815 20.534 143.925 20.369 144.101 20.215C144.299 20.039 144.673 19.951 145.223 19.951L145.652 19.984L146.378 20.083C146.73 20.127 147.027 20.248 147.269 20.446L148.424 21.601C148.82 21.953 149.348 22.239 150.008 22.459L150.8 22.525C151.262 22.525 151.647 22.481 151.955 22.393C152.263 22.283 152.538 22.085 152.78 21.799C153.022 21.491 153.143 21.15 153.143 20.776C153.143 20.644 153.088 20.402 152.978 20.05C152.868 19.698 152.593 19.423 152.153 19.225L149.843 18.466L148.952 18.235C147.588 17.861 146.51 17.443 145.718 16.981C144.948 16.519 144.486 15.969 144.332 15.331L144.068 14.143L144.035 13.516C144.035 12.988 144.123 12.46 144.299 11.932C144.497 11.382 144.871 10.876 145.421 10.414C145.883 9.952 146.477 9.567 147.203 9.259C147.511 9.149 147.83 9.05 148.16 8.962C148.512 8.874 148.93 8.786 149.414 8.698ZM164.275 9.358L165.727 8.698L166.156 8.599C166.332 8.599 166.464 8.577 166.552 8.533C166.794 8.533 166.948 8.566 167.014 8.632C167.102 8.698 167.201 8.841 167.311 9.061C167.333 9.105 167.355 9.204 167.377 9.358C167.421 9.49 167.443 9.699 167.443 9.985V10.579C167.443 10.909 167.366 11.162 167.212 11.338L166.255 11.998L164.275 13.153V18.07L164.308 20.248C164.308 21.018 164.462 21.48 164.77 21.634L165.43 21.931L165.859 21.964C166.101 21.964 166.288 21.942 166.42 21.898L166.981 21.733C167.179 21.667 167.344 21.667 167.476 21.733C167.938 21.975 168.169 22.426 168.169 23.086C168.169 23.592 167.872 23.988 167.278 24.274C166.706 24.56 166.101 24.791 165.463 24.967C165.133 25.033 164.825 25.088 164.539 25.132C164.275 25.176 164.011 25.198 163.747 25.198C162.999 25.198 162.361 25.033 161.833 24.703C161.327 24.351 160.975 23.845 160.777 23.185C160.711 22.833 160.656 22.47 160.612 22.096C160.568 21.722 160.546 21.304 160.546 20.842V20.05V14.176L159.82 14.473L159.16 14.605C158.94 14.605 158.753 14.539 158.599 14.407C158.467 14.275 158.401 13.835 158.401 13.087V12.724C158.401 12.152 158.467 11.789 158.599 11.635C158.731 11.481 159.149 11.217 159.853 10.843L160.546 10.513V7.015C160.546 6.333 160.557 5.915 160.579 5.761C160.623 5.607 160.953 5.365 161.569 5.035C162.207 4.683 162.658 4.463 162.922 4.375C163.186 4.287 163.395 4.243 163.549 4.243C163.681 4.243 163.78 4.254 163.846 4.276C164 4.408 164.11 4.595 164.176 4.837C164.242 5.079 164.275 5.431 164.275 5.893V9.358Z" fill="#0069FF"/>
</svg>
